<svg width="630" height="119" viewBox="0 0 630 119" fill="none" xmlns="http://www.w3.org/2000/svg">
<path d="M42.1362 59.5996L316.448 59.5996" stroke="#4E4D4D" stroke-width="82.2934" stroke-linecap="round"/>
<path d="M437.931 79.9685C453.606 70.9186 461.444 66.3937 461.444 59.6062C461.444 52.8188 453.606 48.2938 437.931 39.2439L420.297 29.0627C404.622 20.0128 396.785 15.4878 390.907 18.8815C385.028 22.2753 385.028 31.3252 385.028 49.4251V69.7874C385.028 87.8872 385.028 96.9372 390.907 100.331C396.785 103.725 404.622 99.1996 420.297 90.1497L437.931 79.9685Z" fill="#4E4D4D"/>
<path d="M523.681 78.9333C536.354 70.1533 542.691 65.7633 542.691 59.6062C542.691 53.4491 536.354 49.0591 523.681 40.2791L515.004 34.2672C498.805 23.0441 490.705 17.4325 484.403 20.733C478.101 24.0335 478.101 33.8871 478.101 53.5943V65.6181C478.101 85.3253 478.101 95.1789 484.403 98.4794C490.705 101.78 498.805 96.1683 515.004 84.9452L523.681 78.9333Z" fill="#4E4D4D"/>
<path d="M602.052 78.9333C614.725 70.1533 621.061 65.7633 621.061 59.6062C621.061 53.4491 614.725 49.0591 602.052 40.2791L593.375 34.2672C577.176 23.0441 569.076 17.4325 562.774 20.733C556.472 24.0335 556.472 33.8871 556.472 53.5943V65.6181C556.472 85.3253 556.472 95.1789 562.774 98.4794C569.076 101.78 577.176 96.1683 593.375 84.9452L602.052 78.9333Z" fill="#4E4D4D"/>
</svg>
