<svg width="18" height="55" viewBox="0 0 18 55" fill="none" xmlns="http://www.w3.org/2000/svg">
<path d="M8.77344 7L8.77344 19.7623" stroke="#4E4D4D" stroke-width="12.2814" stroke-linecap="round"/>
<path d="M5.73359 37.8929C7.08419 40.2323 7.7595 41.4019 8.77245 41.4019C9.78541 41.4019 10.4607 40.2323 11.8113 37.8929L13.3308 35.2612C14.6814 32.9219 15.3567 31.7522 14.8502 30.875C14.3437 29.9977 12.9931 29.9977 10.2919 29.9977H7.25302C4.5518 29.9977 3.2012 29.9977 2.69472 30.875C2.18824 31.7522 2.86354 32.9219 4.21415 35.2612L5.73359 37.8929Z" fill="#4E4D4D"/>
<path d="M5.88809 50.6902C7.19841 52.5815 7.85357 53.5271 8.77245 53.5271C9.69133 53.5271 10.3465 52.5815 11.6568 50.6902L12.554 49.3952C14.229 46.9776 15.0664 45.7688 14.5739 44.8283C14.0813 43.8879 12.6108 43.8879 9.66966 43.8879H7.87523C4.93414 43.8879 3.46359 43.8879 2.97103 44.8283C2.47846 45.7688 3.31593 46.9776 4.99087 49.3952L5.88809 50.6902Z" fill="#4E4D4D"/>
</svg>
