<svg width="67" height="65" viewBox="0 0 67 65" fill="none" xmlns="http://www.w3.org/2000/svg">
<ellipse cx="36.1995" cy="31.0054" rx="18.5902" ry="18" fill="#0339A6"/>
<g clip-path="url(#clip0_3020_3140)">
<path d="M29.083 62.3294C28.4197 61.5865 27.6661 60.7427 27.0929 60.6312C26.1667 60.6706 25.2683 60.9594 24.4925 61.4671L24.5111 61.4538C23.5745 62.0046 22.53 62.3467 21.449 62.4568L21.4172 62.4594H21.3907C21.0564 62.4598 20.7255 62.394 20.4168 62.2657L20.4328 62.2711C19.1299 61.7298 18.6019 60.2226 18.0977 58.7632C17.8955 57.8845 17.4789 57.0695 16.8851 56.391L16.8904 56.3963C16.4315 56.1735 15.9203 56.0808 15.4124 56.1283H15.423C15.0356 56.1283 14.627 56.1522 14.2184 56.1761C13.7779 56.2026 13.3374 56.2238 12.9182 56.2238C12.4147 56.2713 11.9068 56.2189 11.4237 56.0695C10.9406 55.9201 10.4917 55.6768 10.1028 55.3535L10.1082 55.3588C9.69067 54.7636 9.4029 54.0873 9.26348 53.3737C9.12407 52.6602 9.13612 51.9253 9.29885 51.2168L9.29354 51.2512C9.44902 50.3438 9.37235 49.4119 9.07065 48.5421L9.08127 48.5819C8.41503 47.9962 7.61494 47.5834 6.75153 47.3798L6.71438 47.3719C5.25498 46.8651 3.74251 46.3397 3.20651 45.0368C3.05275 44.3342 3.04719 43.6071 3.1902 42.9022C3.3332 42.1972 3.62162 41.5298 4.03704 40.9426L4.02643 40.9585C4.51121 40.1803 4.79143 39.2922 4.84104 38.3767V38.3634C4.72959 37.7876 3.8858 37.0367 3.14283 36.3733C1.98061 35.3438 0.78125 34.2744 0.78125 32.8442C0.78125 31.414 1.98061 30.3447 3.14017 29.3072C3.88314 28.6438 4.72694 27.8902 4.83839 27.3171C4.78454 26.3926 4.49694 25.497 4.00255 24.714L4.01581 24.7352C3.60155 24.1435 3.31556 23.4718 3.17618 22.763C3.03681 22.0543 3.04714 21.3242 3.20651 20.6197L3.2012 20.6542C3.74251 19.3514 5.24967 18.8233 6.70907 18.3192C7.62717 18.1043 8.42586 17.6824 9.08127 17.1039L9.07596 17.1092C9.3751 16.2405 9.44637 15.3095 9.28293 14.4053L9.28824 14.4372C9.13185 13.73 9.12422 12.998 9.26583 12.2877C9.40744 11.5773 9.69519 10.9042 10.1108 10.311L10.1002 10.327C10.491 10.0049 10.9416 9.76317 11.4261 9.61564C11.9106 9.46811 12.4195 9.41768 12.9235 9.46725H12.9076C13.3321 9.46725 13.7699 9.49113 14.2077 9.51501C14.6164 9.53889 15.025 9.56277 15.4124 9.56277C15.9226 9.6095 16.4357 9.51495 16.8957 9.28947L16.8798 9.29743C17.4503 8.64468 17.8722 7.84864 18.0791 6.96769L18.0871 6.93054C18.5966 5.47114 19.1219 3.95867 20.4221 3.42267C20.726 3.2981 21.0516 3.23497 21.38 3.23693H21.4092H21.4066C22.5635 3.35633 23.6143 3.71455 24.5403 4.26116L24.5032 4.24259C25.2692 4.74635 26.1582 5.03166 27.0744 5.06781H27.085C27.6608 4.95637 28.4117 4.11257 29.0751 3.3696C30.1205 2.20473 31.1925 1.00537 32.6227 1.00537C34.053 1.00537 35.1223 2.20473 36.1598 3.36695C36.8232 4.10992 37.5767 4.95372 38.1499 5.06516C39.0759 5.02241 39.9737 4.73293 40.7503 4.22667L40.7291 4.23994C41.6665 3.68923 42.712 3.34797 43.7938 3.23958L43.8256 3.23693H43.8522C44.1971 3.23693 44.5262 3.30592 44.826 3.43063L44.8101 3.42532C46.1129 3.96663 46.641 5.47379 47.1451 6.9332C47.36 7.85129 47.7819 8.64733 48.3577 9.30539L48.3524 9.30008C48.8123 9.52262 49.3247 9.61354 49.8331 9.56277H49.8225C50.2099 9.56277 50.6185 9.53889 51.0271 9.51766C51.4676 9.49378 51.9081 9.4699 52.3273 9.4699C52.8312 9.4228 53.3394 9.47542 53.8229 9.62475C54.3064 9.77409 54.7558 10.0172 55.1453 10.3402L55.14 10.3349C55.5561 10.9308 55.8429 11.6072 55.9818 12.3206C56.1207 13.0339 56.1087 13.7685 55.9466 14.477L55.9519 14.4425C55.796 15.35 55.8736 16.2824 56.1775 17.1517L56.1669 17.1145C56.817 17.6877 57.6157 18.1096 58.4966 18.3139L58.5338 18.3218C59.9932 18.8313 61.5056 19.3567 62.0416 20.6569C62.1938 21.3595 62.1988 22.086 62.0563 22.7907C61.9138 23.4954 61.627 24.1629 61.2137 24.7512L61.2244 24.7352C60.7383 25.5075 60.4553 26.3902 60.4018 27.3011V27.3171C60.5132 27.8929 61.357 28.6438 62.1 29.3072C63.2702 30.35 64.4695 31.4193 64.4695 32.8495C64.4695 34.2797 63.2702 35.3517 62.108 36.3892C61.365 37.0526 60.5212 37.8035 60.4098 38.3793C60.4681 39.3425 60.768 40.2261 61.2456 40.985L61.2323 40.9611C61.6467 41.5523 61.9327 42.2236 62.0721 42.9319C62.2115 43.6403 62.2011 44.3699 62.0416 45.074L62.0469 45.0395C61.5083 46.345 59.9985 46.8704 58.5391 47.3745C57.6598 47.5766 56.8446 47.9943 56.1669 48.5898L56.1722 48.5845C55.873 49.4533 55.8018 50.3842 55.9652 51.2884L55.9599 51.2566C56.1159 51.9634 56.1233 52.6949 55.9817 53.4047C55.8401 54.1145 55.5526 54.7872 55.1373 55.38L55.1479 55.3641C54.7578 55.6868 54.3079 55.9293 53.8238 56.0777C53.3398 56.2262 52.8313 56.2776 52.3273 56.2291H52.3432C51.9187 56.2291 51.4809 56.2053 51.043 56.1814C50.642 56.154 50.2403 56.138 49.8384 56.1336C49.3282 56.0859 48.8148 56.1805 48.3551 56.4069L48.371 56.399C47.7871 57.066 47.3753 57.8659 47.1716 58.7287L47.1637 58.7658C46.6542 60.2252 46.1288 61.7377 44.8286 62.2737C44.5248 62.3983 44.1992 62.4614 43.8707 62.4594H43.8416H43.8442C42.7382 62.3492 41.6696 61.9987 40.7131 61.4326L40.7476 61.4511C39.9819 60.9471 39.0926 60.6626 38.1764 60.6286H38.1658C37.59 60.74 36.8391 61.5838 36.1757 62.3268C35.1276 63.489 34.0583 64.6884 32.6254 64.6884C31.1925 64.6884 30.1258 63.489 29.0857 62.3294H29.083ZM38.455 20.3995L25.5062 43.9304C25.4693 43.9973 25.4506 44.0728 25.4517 44.1492C25.4528 44.2256 25.4738 44.3004 25.5127 44.3663C25.5515 44.4322 25.6068 44.4868 25.6731 44.5248C25.7394 44.5628 25.8145 44.5829 25.8909 44.5831H28.1384C28.2165 44.5832 28.2931 44.5624 28.3604 44.5227C28.4276 44.483 28.4829 44.426 28.5205 44.3576V44.3549L41.4508 20.8214C41.4876 20.7544 41.5064 20.679 41.5053 20.6026C41.5041 20.5261 41.4831 20.4513 41.4443 20.3854C41.4055 20.3196 41.3502 20.265 41.2839 20.227C41.2176 20.1889 41.1425 20.1689 41.066 20.1686H38.8398C38.7611 20.1689 38.684 20.1901 38.6163 20.2303C38.5486 20.2704 38.493 20.3279 38.455 20.3968V20.3995ZM36.587 32.4701C36.2498 32.7488 35.9784 33.0986 35.7922 33.4945C35.6059 33.8904 35.5095 34.3225 35.5097 34.76V41.131C35.5097 42.0437 35.929 42.8584 36.5844 43.3944L36.5897 43.3997C37.2689 43.9675 38.1499 44.3098 39.1131 44.3098C40.0763 44.3098 40.9573 43.9649 41.6418 43.3944L41.6365 43.3997C42.2999 42.861 42.7191 42.0464 42.7191 41.1336V34.7653C42.7191 33.8525 42.3079 33.0326 41.6631 32.486L41.6578 32.4833C40.9853 31.8791 40.1127 31.5454 39.2086 31.5467H39.1264H39.1317H39.0494C38.1428 31.5454 37.267 31.8757 36.587 32.4754L36.5923 32.4727L36.587 32.4701ZM25.3257 21.0416C24.9886 21.3204 24.7171 21.6702 24.5309 22.0661C24.3447 22.4619 24.2482 22.8941 24.2484 23.3316V29.6999C24.2484 30.6153 24.665 31.4352 25.3231 31.9739L25.3284 31.9792C26.0077 32.555 26.8913 32.9026 27.8571 32.9026C28.823 32.9026 29.7092 32.5523 30.3912 31.9739L30.3859 31.9792C31.0545 31.4352 31.4764 30.6153 31.4764 29.6946V23.3422C31.4764 22.4214 31.0599 21.6015 30.4018 21.0549L30.3965 21.0522C29.6879 20.4487 28.7874 20.1175 27.8566 20.118C26.9259 20.1184 26.0257 20.4506 25.3178 21.0549L25.3231 21.0496L25.3257 21.0416ZM38.5346 41.4759C38.4776 41.4305 38.4315 41.3728 38.3998 41.3071C38.3681 41.2414 38.3516 41.1694 38.3516 41.0965V34.7255C38.3516 34.5716 38.4232 34.4363 38.532 34.3487C38.6697 34.2292 38.8458 34.1633 39.0282 34.163H39.0627H39.06H39.0919C39.2746 34.1628 39.4515 34.2277 39.5907 34.3461C39.6474 34.3912 39.6933 34.4485 39.725 34.5137C39.7567 34.5789 39.7734 34.6504 39.7738 34.7229V41.0965C39.7739 41.1688 39.7577 41.2402 39.7264 41.3054C39.6952 41.3706 39.6497 41.428 39.5934 41.4733C39.4501 41.59 39.2643 41.659 39.0627 41.659C38.861 41.659 38.6753 41.59 38.5293 41.4706H38.532L38.5346 41.4759ZM27.284 30.0501C27.2272 30.0044 27.1813 29.9467 27.1497 29.881C27.118 29.8154 27.1013 29.7435 27.1009 29.6707V23.3024C27.1009 23.1485 27.1725 23.0131 27.2813 22.9229C27.4246 22.8062 27.6104 22.7372 27.812 22.7372C28.0137 22.7372 28.1994 22.8062 28.3454 22.9256H28.3427C28.3998 22.971 28.4459 23.0287 28.4776 23.0944C28.5093 23.1601 28.5257 23.2321 28.5258 23.305V29.676C28.5257 29.7486 28.5094 29.8204 28.4782 29.886C28.447 29.9516 28.4016 30.0095 28.3454 30.0554C28.2021 30.1722 28.0163 30.2412 27.8147 30.2412C27.613 30.2412 27.4273 30.1722 27.2813 30.0528H27.284V30.0501Z" fill="#0339A6"/>
</g>
<path d="M12.0673 28.7576C12.5077 28.8472 12.8648 29.0633 13.1387 29.4057C13.4124 29.741 13.5544 30.1277 13.5646 30.5658C13.5794 31.1978 13.3685 31.7024 12.9319 32.0796C12.5023 32.4496 11.8924 32.638 11.1022 32.6447L7.57874 32.6746L7.40166 25.1122L10.8066 25.0833C11.5752 25.0768 12.1791 25.2477 12.6184 25.5959C13.0648 25.9441 13.2951 26.4198 13.3092 27.0231C13.3196 27.4684 13.2098 27.8392 12.9796 28.1357C12.7566 28.4321 12.4526 28.6394 12.0673 28.7576ZM9.31584 28.156L10.5226 28.1458C10.8244 28.1432 11.0527 28.0766 11.2077 27.946C11.3697 27.8082 11.4477 27.61 11.4417 27.3514C11.4356 27.0929 11.3484 26.8961 11.18 26.761C11.0187 26.6259 10.7873 26.5596 10.4856 26.5622L9.27876 26.5724L9.31584 28.156ZM10.7441 31.1608C11.053 31.1582 11.2885 31.0879 11.4505 30.9501C11.6195 30.805 11.7009 30.5996 11.6947 30.3338C11.6885 30.0681 11.5938 29.8606 11.4107 29.7113C11.2348 29.562 10.9924 29.4886 10.6835 29.4912L9.34737 29.5026L9.38647 31.1723L10.7441 31.1608ZM17.4204 32.6772C16.8313 32.6822 16.2968 32.5611 15.8168 32.3137C15.344 32.0663 14.9657 31.7104 14.6818 31.2459C14.405 30.7813 14.2594 30.2367 14.2447 29.6119C14.2303 28.9942 14.3541 28.4509 14.6161 27.9817C14.878 27.5054 15.243 27.1396 15.7112 26.8842C16.1794 26.6288 16.7081 26.4986 17.2971 26.4936C17.8861 26.4886 18.4207 26.6098 18.9007 26.8571C19.3806 27.1045 19.7627 27.464 20.0467 27.9356C20.3306 28.4001 20.4798 28.9412 20.4943 29.5588C20.5087 30.1764 20.3815 30.7234 20.1124 31.1998C19.8504 31.6689 19.4816 32.0312 19.0062 32.2867C18.538 32.542 18.0094 32.6722 17.4204 32.6772ZM17.383 31.0829C17.735 31.0799 18.0301 30.9481 18.2683 30.6875C18.5136 30.4268 18.6307 30.0559 18.6194 29.5747C18.6082 29.0936 18.4774 28.7247 18.2271 28.4683C17.984 28.2117 17.6864 28.085 17.3344 28.088C16.9753 28.091 16.6802 28.2228 16.4492 28.4834C16.218 28.7367 16.1082 29.1076 16.1196 29.5959C16.1309 30.0771 16.2545 30.446 16.4904 30.7026C16.7335 30.9591 17.031 31.0859 17.383 31.0829ZM24.2811 32.619C23.692 32.624 23.1575 32.5028 22.6775 32.2555C22.2047 32.0081 21.8264 31.6522 21.5425 31.1877C21.2657 30.7231 21.1201 30.1784 21.1054 29.5536C21.091 28.936 21.2148 28.3926 21.4768 27.9235C21.7387 27.4472 22.1037 27.0814 22.5719 26.826C23.0401 26.5706 23.5688 26.4404 24.1578 26.4354C24.7469 26.4304 25.2814 26.5516 25.7614 26.7989C26.2413 27.0462 26.6234 27.4057 26.9074 27.8774C27.1913 28.3419 27.3405 28.883 27.355 29.5006C27.3695 30.1182 27.2422 30.6652 26.9731 31.1416C26.7111 31.6107 26.3423 31.973 25.8669 32.2284C25.3987 32.4838 24.8701 32.614 24.2811 32.619ZM24.2437 31.0247C24.5957 31.0217 24.8908 30.8899 25.129 30.6293C25.3743 30.3686 25.4914 29.9977 25.4801 29.5165C25.4689 29.0353 25.3381 28.6665 25.0878 28.41C24.8447 28.1535 24.5471 28.0267 24.1951 28.0297C23.836 28.0328 23.5409 28.1646 23.3099 28.4251C23.0787 28.6785 22.9689 29.0494 22.9803 29.5377C22.9916 30.0189 23.1152 30.3878 23.3511 30.6444C23.5942 30.9009 23.8917 31.0277 24.2437 31.0247ZM32.0772 32.4667L30.1864 29.9614L30.2454 32.4822L28.4029 32.4978L28.2162 24.5262L30.0587 24.5105L30.1619 28.9165L31.9256 26.4557L34.1992 26.4364L31.77 29.4739L34.3615 32.4473L32.0772 32.4667ZM35.8349 25.7976C35.5117 25.8003 35.2437 25.7092 35.031 25.5243C34.8253 25.3321 34.7192 25.0959 34.7126 24.8158C34.7059 24.5286 34.8009 24.2907 34.9977 24.1023C35.2015 23.9066 35.465 23.8074 35.7882 23.8047C36.1043 23.802 36.3652 23.8967 36.5709 24.0889C36.7836 24.2739 36.8933 24.51 36.9 24.7973C36.9066 25.0774 36.8079 25.3152 36.6042 25.5109C36.4074 25.6993 36.151 25.7949 35.8349 25.7976ZM36.7654 26.4146L36.9062 32.4257L35.0636 32.4413L34.9229 26.4302L36.7654 26.4146ZM41.7627 26.3076C42.4667 26.3016 43.0324 26.5266 43.4598 26.9827C43.8942 27.4316 44.1207 28.0546 44.1394 28.8518L44.2216 32.3636L42.3899 32.3791L42.3134 29.1151C42.304 28.7129 42.1925 28.4014 41.979 28.1805C41.7655 27.9596 41.4827 27.8507 41.1307 27.8537C40.7787 27.8567 40.5012 27.9704 40.2981 28.1948C40.095 28.4192 39.9981 28.7325 40.0076 29.1346L40.084 32.3987L38.2415 32.4143L38.1007 26.4033L39.9432 26.3876L39.9619 27.1848C40.1425 26.9175 40.389 26.7071 40.7015 26.5536C41.0139 26.3929 41.3676 26.3109 41.7627 26.3076ZM47.6436 26.2361C48.0674 26.2325 48.4393 26.3155 48.7595 26.4852C49.0867 26.6548 49.3399 26.879 49.5188 27.1576L49.4989 26.3065L51.3414 26.2909L51.4819 32.2912C51.4949 32.8442 51.3952 33.3443 51.183 33.7914C50.9781 34.2457 50.6525 34.6076 50.2061 34.8772C49.767 35.1467 49.2134 35.2843 48.5453 35.2899C47.6546 35.2975 46.9277 35.0918 46.3646 34.6727C45.8018 34.2609 45.4724 33.6962 45.3766 32.9787L47.1976 32.9633C47.2604 33.1926 47.4011 33.371 47.6196 33.4984C47.8383 33.6331 48.1057 33.699 48.4218 33.6963C48.8025 33.6931 49.1016 33.5792 49.3191 33.3547C49.5439 33.1373 49.6507 32.788 49.6394 32.3068L49.6195 31.4558C49.4465 31.7374 49.204 31.9693 48.8921 32.1516C48.5801 32.3266 48.2122 32.4159 47.7884 32.4195C47.2927 32.4237 46.8408 32.3019 46.4326 32.0539C46.0243 31.7988 45.6962 31.4388 45.4482 30.974C45.2072 30.502 45.0795 29.9572 45.065 29.3395C45.0506 28.7219 45.1528 28.1787 45.3717 27.71C45.5979 27.2411 45.9091 26.8793 46.3055 26.6246C46.7019 26.3698 47.1479 26.2403 47.6436 26.2361ZM49.5693 29.3121C49.5585 28.8525 49.4207 28.4909 49.1559 28.2274C48.8983 27.9638 48.5863 27.8335 48.2199 27.8366C47.8536 27.8397 47.5442 27.9753 47.2918 28.2432C47.0464 28.5038 46.9291 28.864 46.9399 29.3236C46.9507 29.7833 47.085 30.1485 47.3428 30.4192C47.6076 30.6827 47.9232 30.813 48.2895 30.8099C48.6559 30.8067 48.9617 30.6713 49.2069 30.4034C49.4592 30.1355 49.58 29.7717 49.5693 29.3121ZM55.2632 32.3561C54.7388 32.3605 54.2697 32.2747 53.8561 32.0987C53.4424 31.9226 53.1135 31.6812 52.8692 31.3744C52.6247 31.0604 52.4836 30.7096 52.4458 30.322L54.2668 30.3066C54.2932 30.5147 54.3941 30.6826 54.5695 30.8104C54.745 30.9382 54.9584 31.0011 55.2098 30.9989C55.4397 30.997 55.6147 30.9524 55.7348 30.8652C55.8619 30.7707 55.9238 30.6517 55.9204 30.5081C55.9164 30.3357 55.8236 30.2108 55.6422 30.1333C55.4606 30.0486 55.1675 29.9577 54.7629 29.8606C54.3295 29.7637 53.9679 29.6626 53.678 29.5574C53.388 29.4449 53.1361 29.271 52.9222 29.0358C52.7081 28.7934 52.5963 28.4675 52.5868 28.0582C52.5787 27.7134 52.6647 27.4002 52.845 27.1186C53.0322 26.8297 53.307 26.6011 53.6695 26.4328C54.0392 26.2644 54.479 26.1781 54.9891 26.1738C55.7433 26.1674 56.3403 26.3491 56.7801 26.7188C57.227 27.0886 57.49 27.582 57.5691 28.1991L55.8667 28.2135C55.8331 28.0055 55.7358 27.8411 55.5749 27.7203C55.4212 27.5995 55.2186 27.5402 54.9672 27.5423C54.7517 27.5442 54.5875 27.5887 54.4746 27.6758C54.3615 27.7558 54.3066 27.8676 54.31 28.0112C54.314 28.1836 54.4069 28.3121 54.5885 28.3967C54.7773 28.4813 55.0666 28.5651 55.4565 28.648C55.9046 28.7591 56.27 28.8709 56.5529 28.9835C56.8356 29.0888 57.084 29.2663 57.2982 29.5159C57.5194 29.7582 57.6385 30.0876 57.6554 30.5041C57.6637 30.856 57.5705 31.1729 57.3759 31.4546C57.1884 31.7292 56.9097 31.9471 56.5398 32.1082C56.1772 32.2693 55.7516 32.352 55.2632 32.3561ZM28.2509 45.5736C27.5397 45.5796 26.8822 45.42 26.2782 45.0947C25.6815 44.7693 25.2002 44.3137 24.8344 43.7278C24.4756 43.1346 24.2876 42.4682 24.2703 41.7285C24.253 40.9888 24.4098 40.323 24.7408 39.7312C25.079 39.1393 25.5388 38.6757 26.1201 38.3403C26.7086 38.0049 27.3584 37.8342 28.0695 37.8281C28.7807 37.8221 29.4346 37.9818 30.0314 38.3071C30.6354 38.6324 31.1131 39.0881 31.4645 39.6741C31.8231 40.2601 32.011 40.9229 32.0283 41.6626C32.0457 42.4023 31.8889 43.0717 31.5581 43.6707C31.227 44.2625 30.7709 44.7261 30.1896 45.0615C29.6083 45.3968 28.9621 45.5675 28.2509 45.5736ZM28.2115 43.8931C28.815 43.8879 29.2915 43.6828 29.6413 43.2775C29.9982 42.8723 30.169 42.3393 30.1535 41.6785C30.1378 41.0106 29.9422 40.4808 29.5666 40.0889C29.198 39.6897 28.712 39.4927 28.1086 39.4979C27.498 39.503 27.0142 39.7047 26.6571 40.1028C26.3072 40.5008 26.1401 41.0374 26.1559 41.7125C26.1716 42.3804 26.3637 42.9139 26.7323 43.313C27.1079 43.7049 27.601 43.8982 28.2115 43.8931ZM36.6637 39.3498C37.3677 39.3439 37.9334 39.5689 38.3608 40.025C38.7952 40.4739 39.0217 41.0969 39.0404 41.894L39.1226 45.4059L37.2909 45.4214L37.2144 42.1574C37.205 41.7552 37.0935 41.4437 36.88 41.2228C36.6665 41.0019 36.3837 40.893 36.0317 40.896C35.6797 40.899 35.4022 41.0127 35.1991 41.2371C34.996 41.4615 34.8991 41.7748 34.9086 42.1769L34.985 45.441L33.1425 45.4566L33.0017 39.4456L34.8442 39.4299L34.8629 40.2271C35.0435 39.9598 35.29 39.7494 35.6025 39.5959C35.9149 39.4352 36.2686 39.3532 36.6637 39.3498ZM42.644 37.5428L42.5494 42.7047L40.987 42.718L40.6506 37.5597L42.644 37.5428ZM41.8597 45.4689C41.5364 45.4716 41.2684 45.3805 41.0558 45.1955C40.8501 45.0033 40.744 44.7672 40.7374 44.4871C40.7307 44.1998 40.8256 43.9584 41.0222 43.7628C41.226 43.5671 41.4895 43.4679 41.8128 43.4652C42.1288 43.4625 42.3897 43.5572 42.5954 43.7494C42.8082 43.9416 42.918 44.1813 42.9248 44.4686C42.9313 44.7486 42.8327 44.9865 42.6289 45.1822C42.4322 45.3706 42.1757 45.4662 41.8597 45.4689Z" fill="white"/>
<defs>
<clipPath id="clip0_3020_3140">
<rect width="63.683" height="63.683" fill="white" transform="translate(0.78125 1.00537)"/>
</clipPath>
</defs>
</svg>
