<svg width="144" height="121" viewBox="0 0 144 121" fill="none" xmlns="http://www.w3.org/2000/svg">
<path d="M51.9524 66.7206C52.8364 66.7206 53.5529 66.004 53.5529 65.1201C53.5529 64.2362 52.8364 63.5196 51.9524 63.5196H48.209V61.9192V61.9203C48.209 61.0364 47.4925 60.3199 46.6085 60.3199C45.7246 60.3199 45.0092 61.0364 45.0092 61.9203V63.5208L43.921 63.5196C42.2056 63.5196 40.6207 64.4348 39.7636 65.9203C38.9064 67.4047 38.9064 69.2352 39.7636 70.7206C40.6207 72.205 42.2056 73.1201 43.921 73.1201H45.0092V76.3198H41.2012C40.3172 76.3198 39.6007 77.0364 39.6007 77.9203C39.6007 78.8031 40.3172 79.5196 41.2012 79.5196H44.9612V81.1201C44.9612 82.004 45.6766 82.7206 46.5605 82.7206C47.4445 82.7206 48.161 82.004 48.161 81.1201V79.5196H49.2335H49.2324C50.9478 79.5196 52.5327 78.6056 53.3898 77.1201C54.247 75.6346 54.247 73.8052 53.3898 72.3198C52.5327 70.8344 50.9479 69.9203 49.2324 69.9203H48.1599V66.7206H51.9524ZM49.2805 73.12C49.7761 73.12 50.3531 73.7919 50.3531 74.7204C50.3531 75.6479 49.7772 76.3209 49.2805 76.3209H48.208V73.1212L49.2805 73.12ZM45.0082 69.9203H43.9212C43.4256 69.9203 42.8486 69.2484 42.8486 68.3198C42.8486 67.3924 43.4245 66.7194 43.9212 66.7194H45.0094L45.0082 69.9203Z" fill="black" fill-opacity="0.54"/>
<path d="M71.9524 66.7206C72.8364 66.7206 73.5529 66.004 73.5529 65.1201C73.5529 64.2362 72.8364 63.5196 71.9524 63.5196H68.209V61.9192V61.9203C68.209 61.0364 67.4925 60.3199 66.6085 60.3199C65.7246 60.3199 65.0092 61.0364 65.0092 61.9203V63.5208L63.921 63.5196C62.2056 63.5196 60.6207 64.4348 59.7636 65.9203C58.9064 67.4047 58.9064 69.2352 59.7636 70.7206C60.6207 72.205 62.2056 73.1201 63.921 73.1201H65.0092V76.3198H61.2492C60.3652 76.3198 59.6487 77.0364 59.6487 77.9203C59.6487 78.8031 60.3652 79.5196 61.2492 79.5196H65.0092V81.1201C65.0092 82.004 65.7246 82.7206 66.6085 82.7206C67.4925 82.7206 68.209 82.004 68.209 81.1201V79.5196H69.2815H69.2804C70.9958 79.5196 72.5807 78.6056 73.4378 77.1201C74.295 75.6346 74.295 73.8052 73.4378 72.3198C72.5807 70.8344 70.9959 69.9203 69.2804 69.9203H68.2079V66.7206H71.9524ZM69.2805 73.12C69.7761 73.12 70.3531 73.7919 70.3531 74.7204C70.3531 75.6479 69.7772 76.3209 69.2805 76.3209H68.208V73.1212L69.2805 73.12ZM65.0082 69.9203H63.9212C63.4256 69.9203 62.8486 69.2484 62.8486 68.3198C62.8486 67.3924 63.4245 66.7194 63.9212 66.7194H65.0094L65.0082 69.9203Z" fill="black" fill-opacity="0.54"/>
<path d="M91.9524 66.7206C92.8364 66.7206 93.5529 66.004 93.5529 65.1201C93.5529 64.2362 92.8364 63.5196 91.9524 63.5196H88.209V61.9192V61.9203C88.209 61.0364 87.4925 60.3199 86.6085 60.3199C85.7246 60.3199 85.0092 61.0364 85.0092 61.9203V63.5208L83.921 63.5196C82.2056 63.5196 80.6207 64.4348 79.7636 65.9203C78.9064 67.4047 78.9064 69.2352 79.7636 70.7206C80.6207 72.205 82.2056 73.1201 83.921 73.1201H85.0092V76.3198H81.2012C80.3172 76.3198 79.6007 77.0364 79.6007 77.9203C79.6007 78.8031 80.3172 79.5196 81.2012 79.5196H84.9612V81.1201C84.9612 82.004 85.6766 82.7206 86.5605 82.7206C87.4445 82.7206 88.161 82.004 88.161 81.1201V79.5196H89.2335H89.2324C90.9478 79.5196 92.5327 78.6056 93.3898 77.1201C94.247 75.6346 94.247 73.8052 93.3898 72.3198C92.5327 70.8344 90.9479 69.9203 89.2324 69.9203H88.1599V66.7206H91.9524ZM89.2805 73.12C89.7761 73.12 90.3531 73.7919 90.3531 74.7204C90.3531 75.6479 89.7772 76.3209 89.2805 76.3209H88.208V73.1212L89.2805 73.12ZM85.0082 69.9203H83.9212C83.4256 69.9203 82.8486 69.2484 82.8486 68.3198C82.8486 67.3924 83.4245 66.7194 83.9212 66.7194H85.0094L85.0082 69.9203Z" fill="black" fill-opacity="0.54"/>
<path d="M126.592 0H46.5925C42.193 0.004464 37.9753 1.75446 34.8647 4.86486C31.7542 7.97526 30.0042 12.1929 29.9999 16.5926V90.0011H1.60046C0.716514 90.0011 0 90.7177 0 91.6016V104.114C0.00892857 108.51 1.76006 112.723 4.87057 115.83C7.98114 118.939 12.1966 120.685 16.5926 120.69H96.5926C100.991 120.69 105.211 118.944 108.325 115.837C111.438 112.729 113.192 108.512 113.201 104.114V33.2027H141.6C142.024 33.2027 142.431 33.0342 142.732 32.734C143.032 32.4338 143.2 32.0264 143.2 31.6023V16.5946C143.196 12.1929 141.444 7.97174 138.33 4.86146C135.216 1.74974 130.994 0.00202724 126.592 0.00202724L126.592 0ZM86.801 117.489H16.5925C13.0433 117.489 9.63931 116.079 7.12817 113.571C4.617 111.063 3.20417 107.661 3.20074 104.113V93.2009H80.0007V104.113H79.9996C80.0052 104.738 80.0432 105.363 80.1124 105.984L80.2083 106.576C80.2083 106.992 80.3367 107.407 80.4327 107.808C80.5287 108.207 80.5443 108.255 80.609 108.464C80.6726 108.672 80.8166 109.216 80.9449 109.585L81.1849 110.209C81.3289 110.593 81.5052 110.961 81.6804 111.329C81.8568 111.697 81.84 111.681 81.936 111.857V111.856C82.2039 112.375 82.503 112.877 82.8322 113.36C83.1525 113.84 83.5041 114.288 83.8568 114.721H83.8557C84.003 114.861 84.1414 115.011 84.2719 115.168C84.5275 115.456 84.7999 115.729 85.0722 116L85.6001 116.48L86.4316 117.167L86.801 117.489ZM110.001 104.113C109.84 108.79 107.251 113.045 103.172 115.337C99.0913 117.63 94.1113 117.63 90.031 115.337C85.9519 113.044 83.3625 108.79 83.2019 104.113V91.6003C83.2019 91.1762 83.0334 90.7688 82.7331 90.4686C82.4329 90.1684 82.0255 89.9999 81.6015 89.9999H33.2015V16.5913C33.2015 13.0387 34.6122 9.63271 37.1235 7.12129C39.6347 4.60986 43.0409 3.19928 46.5935 3.19928H116.802L116.514 3.43924C116.211 3.67919 115.906 3.91915 115.618 4.17472L115.138 4.62227C114.85 4.89459 114.578 5.18253 114.306 5.4861C114.034 5.78967 114.034 5.75842 113.923 5.90238C113.539 6.34993 113.187 6.81421 112.85 7.29412C112.53 7.78967 112.226 8.30192 111.954 8.89458C111.859 9.06088 111.774 9.23164 111.698 9.40687C111.522 9.77518 111.347 10.1424 111.203 10.5274L110.963 11.1513C110.834 11.5196 110.723 11.9035 110.627 12.2718C110.531 12.6402 110.498 12.7038 110.45 12.9281C110.402 13.1524 110.291 13.7596 110.226 14.1759L110.13 14.7674C110.056 15.3723 110.014 15.9806 110.002 16.591L110.001 104.113ZM140.001 30.0011H113.202V16.5937C113.362 11.9163 115.952 7.66171 120.031 5.36828C124.111 3.07588 129.091 3.07588 133.171 5.36828C137.25 7.6618 139.84 11.9163 140 16.5937L140.001 30.0011Z" fill="black" fill-opacity="0.54"/>
<path d="M41.6011 53.2006H61.6011C62.0252 53.2006 62.4326 53.032 62.7328 52.7318C63.033 52.4316 63.2015 52.0242 63.2015 51.6001V46.6079C63.2015 46.1837 63.033 45.7764 62.7328 45.4762C62.4325 45.1771 62.0252 45.0085 61.6011 45.0085H41.6011C40.7171 45.0085 40.0006 45.7239 40.0006 46.6079V51.6002C40.0006 52.0243 40.1691 52.4317 40.4694 52.7319C40.7696 53.0321 41.1769 53.2006 41.601 53.2006L41.6011 53.2006ZM43.2015 48.2083H60.0018V50.0007L43.2015 49.9996V48.2083Z" fill="black" fill-opacity="0.54"/>
<path d="M41.6011 37.9377H61.6011C62.0252 37.9377 62.4326 37.7692 62.7328 37.469C63.033 37.1687 63.2015 36.7625 63.2015 36.3373V31.3296C63.2015 30.9055 63.033 30.4981 62.7328 30.199C62.4325 29.8988 62.0252 29.7303 61.6011 29.7303H41.6011C40.7171 29.7303 40.0006 30.4468 40.0006 31.3296V36.3373C40.0006 36.7625 40.1691 37.1688 40.4694 37.469C40.7696 37.7692 41.1769 37.9377 41.601 37.9377L41.6011 37.9377ZM43.2015 32.93H60.0018V34.738H43.2015V32.93Z" fill="black" fill-opacity="0.54"/>
<path d="M41.6011 22.6577H61.6011C62.0252 22.6577 62.4326 22.4892 62.7328 22.189C63.033 21.8888 63.2015 21.4825 63.2015 21.0584V16.0661C63.2015 15.642 63.033 15.2346 62.7328 14.9344C62.4325 14.6342 62.0252 14.4657 61.6011 14.4657H41.6011C40.7171 14.4657 40.0006 15.1822 40.0006 16.0662V21.0584C40.0006 21.4826 40.1691 21.8888 40.4694 22.189C40.7696 22.4892 41.1769 22.6578 41.601 22.6578L41.6011 22.6577ZM43.2015 17.6654H60.0018V19.4578H43.2015V17.6654Z" fill="black" fill-opacity="0.54"/>
<path d="M101.601 45.0092H68.6725C67.7885 45.0092 67.072 45.7246 67.072 46.6085V51.6008C67.072 52.0249 67.2405 52.4323 67.5408 52.7325C67.841 53.0327 68.2473 53.2012 68.6725 53.2012H101.601C102.025 53.2012 102.432 53.0327 102.733 52.7325C103.033 52.4322 103.201 52.0249 103.201 51.6008V46.6085C103.201 46.1844 103.033 45.777 102.733 45.4768C102.432 45.1777 102.025 45.0092 101.601 45.0092L101.601 45.0092ZM100.001 50.0014L70.272 50.0003V48.209H100.001V50.0014Z" fill="black" fill-opacity="0.54"/>
<path d="M101.601 29.7291H68.6725C67.7885 29.7291 67.072 30.4456 67.072 31.3285V36.3362C67.072 36.7614 67.2405 37.1677 67.5408 37.4679C67.841 37.7681 68.2473 37.9366 68.6725 37.9366H101.601C102.025 37.9366 102.432 37.7681 102.733 37.4679C103.033 37.1676 103.201 36.7614 103.201 36.3362V31.3285C103.201 30.9044 103.033 30.497 102.733 30.1979C102.432 29.8977 102.025 29.7292 101.601 29.7292L101.601 29.7291ZM100.001 34.7368H70.272V32.9288H100.001V34.7368Z" fill="black" fill-opacity="0.54"/>
<path d="M101.601 14.4634H68.6725C67.7885 14.4634 67.072 15.18 67.072 16.0639V21.0562C67.072 21.4803 67.2405 21.8865 67.5408 22.1868C67.841 22.487 68.2473 22.6555 68.6725 22.6555H101.601C102.025 22.6555 102.432 22.487 102.733 22.1868C103.033 21.8865 103.201 21.4803 103.201 21.0562V16.0639C103.201 15.6398 103.033 15.2324 102.733 14.9322C102.432 14.632 102.025 14.4635 101.601 14.4635L101.601 14.4634ZM100.001 19.4557H70.272V17.6633H100.001V19.4557Z" fill="black" fill-opacity="0.54"/>
</svg>
