<svg width="76" height="120" viewBox="0 0 76 120" fill="none" xmlns="http://www.w3.org/2000/svg">
<path d="M37.92 59.52C44.4803 59.52 49.92 54.0803 49.92 47.52C49.92 40.9597 44.4803 35.52 37.92 35.52C31.3597 35.52 25.92 40.9597 25.92 47.52C25.92 54.0803 31.2 59.52 37.92 59.52ZM37.92 40.3203C41.92 40.3203 45.1197 43.52 45.1197 47.52C45.1197 51.52 41.92 54.7197 37.92 54.7197C33.92 54.7197 30.7203 51.52 30.7203 47.52C30.7203 43.52 33.92 40.3203 37.92 40.3203Z" fill="black" fill-opacity="0.54"/>
<path d="M29.28 32.16L22.56 28.9603C21.6001 28.4804 20.4796 28.64 19.8401 29.4402C19.2006 30.0797 18.8803 31.2003 19.3602 32.1601L22.5599 38.8801C22.7195 39.2004 22.8802 39.36 23.1994 39.6803C24.7999 36.8009 27.1994 34.4003 30.0789 32.8009C29.7597 32.4806 29.4393 32.321 29.2797 32.1602L29.28 32.16Z" fill="black" fill-opacity="0.54"/>
<path d="M35.68 23.52L33.1198 30.5603V31.3605C34.7202 30.8806 36.3195 30.721 37.92 30.721C39.6801 30.721 41.2806 31.0413 42.8798 31.5212C42.8798 31.2009 42.8798 30.8817 42.7202 30.5614L40.1599 23.52C39.8396 22.5602 38.8798 21.9195 37.92 21.9195C36.9602 21.9195 36.0003 22.5602 35.68 23.52V23.52Z" fill="black" fill-opacity="0.54"/>
<path d="M52.64 39.68C52.9603 39.5204 53.1199 39.2001 53.2795 38.8798L56.4792 32.1598C56.9591 31.1999 56.7995 30.0794 55.9993 29.4399C55.1991 28.6397 54.2392 28.4801 53.2794 28.96L46.5594 32.1597C46.2391 32.3193 46.0795 32.48 45.7592 32.7992C48.7995 34.2401 51.2001 36.6406 52.6398 39.6798L52.64 39.68Z" fill="black" fill-opacity="0.54"/>
<path d="M33.12 63.68C33.12 64.0003 33.12 64.3195 33.2796 64.6398L35.8398 71.6801C36.1602 72.6399 37.12 73.2806 38.0798 73.2806C39.0396 73.2806 39.9994 72.641 40.3197 71.6801L42.88 64.6398C43.0396 64.3195 43.0396 64.0003 43.0396 63.68C41.4391 64.1599 39.8399 64.4802 38.0799 64.4802C36.1602 64.3206 34.5599 64.0003 33.1202 63.68H33.12Z" fill="black" fill-opacity="0.54"/>
<path d="M53.28 56.16C53.1204 55.8397 52.9597 55.6801 52.6405 55.3598C51.04 58.2392 48.6405 60.6398 45.761 62.2392C45.9206 62.3988 46.241 62.7191 46.5613 62.8787L53.2813 66.0784C53.6016 66.238 53.9208 66.238 54.2411 66.238C54.8806 66.238 55.5212 65.9177 56.0012 65.5985C56.6407 64.959 56.961 63.8384 56.4811 62.8786L53.28 56.16Z" fill="black" fill-opacity="0.54"/>
<path d="M21.6 52.32C21.7607 52.32 21.7607 52.32 21.6 52.32C21.2797 50.7195 20.9605 49.1203 20.9605 47.5197C20.9605 45.7596 21.2808 44.1591 21.6 42.7194C21.2797 42.7194 20.9605 42.7194 20.6402 42.879L13.9202 45.2797C12.9603 45.6 12.3197 46.5598 12.3197 47.5196C12.3197 48.4794 12.9592 49.4393 13.9202 49.7596L20.7996 52.1591C21.1199 52.3198 21.4402 52.3198 21.5998 52.3198L21.6 52.32Z" fill="black" fill-opacity="0.54"/>
<path d="M61.92 45.28L54.8797 42.7197C54.5594 42.5602 54.2402 42.5602 53.9199 42.5602C54.3998 44.1606 54.7201 45.7599 54.7201 47.5199C54.7201 49.2799 54.3998 50.8804 53.9199 52.4796H54.0795C54.3998 52.4796 54.5594 52.4796 54.8797 52.32L61.92 49.7597C62.8798 49.4394 63.5204 48.4796 63.5204 47.5198C63.5204 46.56 62.8798 45.6001 61.92 45.2798V45.28Z" fill="black" fill-opacity="0.54"/>
<path d="M23.04 55.52C22.8804 55.6796 22.5601 55.9999 22.4005 56.3202L19.2008 63.0402C18.7209 64 18.8805 65.1206 19.6807 65.7601C20.1606 66.24 20.8012 66.3996 21.4407 66.3996C21.7611 66.3996 22.0803 66.3996 22.4006 66.24L29.1206 63.0403C29.4409 62.8807 29.6005 62.72 29.9208 62.4008C27.0402 60.8003 24.6397 58.3996 23.0402 55.5202L23.04 55.52Z" fill="black" fill-opacity="0.54"/>
<path d="M37.92 0C15.8397 0 0 16.3203 0 38.88C0 52.0006 5.91972 60.4806 11.0403 67.84C15.0403 73.6 18.4009 78.56 18.4009 84.4794C18.4009 92.3197 31.3606 95.6791 37.9209 95.6791C44.4811 95.6791 57.4409 92.3186 57.4409 84.4794C57.4409 78.3991 60.9609 73.4391 64.8014 67.84C69.922 60.4794 75.8417 51.9997 75.8417 38.88C75.8395 16.4806 60.0003 0 37.9189 0H37.92ZM60.9603 65.12C56.64 71.2003 52.64 76.9603 52.64 84.4806C52.64 87.6803 44.16 90.88 37.92 90.88C31.68 90.88 23.2 87.6803 23.2 84.4806C23.2 76.9606 19.2 71.2006 14.8797 65.12C9.92 57.9203 4.63971 50.5597 4.63971 38.88C4.63971 19.2003 18.5594 4.8 37.7597 4.8C56.9594 4.8 70.8797 19.1994 70.8797 38.88C71.0393 50.5597 65.9189 57.9191 60.9589 65.12H60.9603Z" fill="black" fill-opacity="0.54"/>
<path d="M20.64 98.88C25.2794 102.241 30.88 103.84 38.0797 103.84C45.12 103.84 50.7191 102.239 55.3597 98.88C56.4803 98.0798 56.6399 96.64 55.8396 95.5194C55.0394 94.3988 53.5997 94.2393 52.4791 95.0395C48.7993 97.7594 43.9991 99.0395 38.0796 99.0395C31.9993 99.0395 27.3596 97.7594 23.5193 95.0395C22.3988 94.2393 20.9591 94.5596 20.1588 95.5194C19.2001 96.64 19.5204 98.0797 20.6398 98.88H20.64Z" fill="black" fill-opacity="0.54"/>
<path d="M52.48 103.52C48.1597 106.56 42.72 107.04 38.0806 107.04C31.3606 107.04 27.0403 105.919 23.5203 103.36C22.3998 102.56 20.96 102.88 20.1597 103.84C19.3595 104.961 19.6798 106.4 20.6397 107.201C23.1999 108.961 25.7602 110.08 28.4799 110.721C28.9598 115.521 33.1194 119.36 38.0805 119.36C43.0402 119.36 47.2011 115.52 47.6811 110.721C50.4009 110.081 52.9611 108.961 55.3608 107.201C56.4813 106.401 56.6409 104.961 55.8407 103.84C55.0405 102.72 53.4401 102.72 52.4801 103.52L52.48 103.52ZM37.9197 114.72C35.8394 114.72 34.24 113.44 33.4397 111.679C34.8795 111.839 36.48 111.839 37.9197 111.839C39.3595 111.839 40.7992 111.839 42.3997 111.679C41.7602 113.44 40.0002 114.72 37.9197 114.72Z" fill="black" fill-opacity="0.54"/>
<path d="M15.52 23.84C15.9999 24.1603 16.4798 24.3199 16.9598 24.3199C17.5993 24.3199 18.3995 23.9996 18.8794 23.3601C23.1997 17.9204 28 14.8801 34.24 13.7595C35.5201 13.5999 36.4799 12.3198 36.1597 11.0396C36.0001 9.7595 34.7199 8.7997 33.4398 9.11999C26.0792 10.4001 20.3192 13.9203 15.1998 20.4806C14.24 21.4393 14.3996 23.0397 15.5201 23.84H15.52Z" fill="black" fill-opacity="0.54"/>
</svg>
