<svg width="102" height="102" viewBox="0 0 102 102" fill="none" xmlns="http://www.w3.org/2000/svg">
<rect x="0.439453" y="0.0566406" width="101.43" height="101.43" rx="12.6787" fill="#0583D1" fill-opacity="0.15"/>
<path d="M71.108 46.1423C70.4069 46.1773 69.7084 46.0347 69.0783 45.728C68.4482 45.4214 67.9074 44.9607 67.5069 44.3894C67.2085 43.9821 66.8056 43.5328 66.1989 43.7343C65.5567 43.9476 65.2017 44.4554 65.0733 45.1174C64.9136 45.9397 65.1458 46.7131 65.3736 47.4835C65.8215 48.9982 66.5318 50.4262 66.8892 51.9713C67.3293 53.873 66.8262 54.8527 65.0116 55.6009C64.5297 55.7994 64.0302 55.9549 63.5466 56.1502C62.5799 56.5396 61.794 57.0644 61.7589 58.26C61.7433 58.5231 61.6596 58.7778 61.5157 58.9994C61.3719 59.2211 61.1727 59.4023 60.9376 59.5254C59.2186 60.5149 58.0567 62.0719 56.7617 63.4922C55.2697 65.1297 53.7776 66.7683 52.3227 68.4391C51.3707 69.5497 50.1517 70.4049 48.7781 70.9256C47.9903 71.2135 47.2697 71.657 46.66 72.2291C46.1347 72.7336 45.9052 73.3296 46.1637 73.987C47.0297 76.1894 47.1503 78.339 46.0042 80.5006C45.6814 81.1097 45.8468 81.8293 46.0344 82.4854C46.3335 83.5314 46.029 84.3737 45.1974 85.0467C44.7609 85.4188 44.3043 85.7672 43.8295 86.0901C42.657 86.827 41.6446 87.7883 40.8515 88.9176C39.7007 90.5627 38.0145 90.4315 36.9587 88.6919C36.1837 87.4161 35.9819 85.9604 35.7638 84.5336C35.5144 82.8998 34.9665 81.4376 33.8678 80.177C32.8118 78.9655 32.5119 77.4542 32.2877 75.9343C32.0927 74.6121 31.7869 73.3125 31.0314 72.207C28.6357 68.6981 28.1469 64.8382 28.6946 60.7461C28.9052 59.4075 28.8409 58.0406 28.5055 56.7272C28.2127 55.6734 27.9099 55.5853 27.0483 56.2627C26.5977 56.6167 26.1806 57.0144 25.7664 57.4115C25.5625 57.6172 25.3034 57.7607 25.0198 57.8252C24.7362 57.8896 24.4399 57.8723 24.1659 57.7753C22.4361 57.2451 20.9556 56.2802 19.6235 55.0874C19.062 54.5845 19.2477 54.0236 19.5783 53.4686C20.1526 52.5048 20.1493 52.5004 19.3144 51.7612C19.1191 51.5885 18.9111 51.4299 18.7083 51.2658C18.031 50.7175 18.0148 50.5978 18.657 50.0518C19.3959 49.4238 20.2577 48.9769 21.1082 48.5211C21.3708 48.3944 21.6685 48.3582 21.9543 48.4182C22.3666 48.4886 22.7778 48.564 23.1901 48.635C24.7032 48.8959 25.0039 48.6084 24.5027 47.1832C23.8723 45.3925 23.0821 43.6585 21.6531 42.3267C20.9596 41.6799 20.9739 40.9809 21.2799 40.2028C21.5859 39.4246 22.0885 38.8849 22.9888 38.8076C23.7491 38.76 24.5121 38.8339 25.2488 39.0263C26.8373 39.4011 27.9338 38.747 28.8322 37.5478C29.4946 36.6637 29.9177 35.6567 30.2945 34.6374C30.8467 33.0944 31.785 31.7155 33.0216 30.6296C34.8299 29.0346 34.8251 28.5296 33.0846 26.894C32.6724 26.5146 32.3452 26.0537 32.1244 25.541C31.9036 25.0283 31.794 24.4753 31.8027 23.918C31.7863 22.9586 31.8073 21.9962 31.8657 21.0386C31.9183 20.1829 31.7106 19.4523 31.0768 18.8507C30.8883 18.6703 30.7154 18.4744 30.5601 18.2651C29.6985 17.1128 30.1051 15.8212 31.5058 15.4765C32.317 15.2562 33.1671 15.2141 33.9965 15.3531C34.8259 15.4921 35.6146 15.8089 36.3077 16.2813C37.5415 17.1099 38.7021 18.0413 39.9718 18.823C40.8397 19.3575 41.6761 19.3831 42.5554 18.8813C43.0303 18.6106 43.5187 18.3591 44.0143 18.1271C44.7798 17.7691 45.4336 17.9667 45.9983 18.5617C46.2589 18.8056 46.4266 19.1311 46.4732 19.4833C46.5197 19.8355 46.4424 20.1928 46.254 20.4951C45.9145 21.1081 45.5281 21.6944 45.0982 22.249C44.4119 23.139 44.2114 24.0431 44.8105 25.0526C44.9282 25.2508 44.9717 25.4909 45.0753 25.6981C45.4525 26.4563 45.2407 27.0449 44.571 27.5143C44.3146 27.694 44.0599 27.8764 43.8092 28.0636C42.5796 28.9819 42.5762 29.7738 43.7955 30.7337C44.45 31.208 45.1423 31.6289 45.8655 31.9923C46.2988 32.2326 46.7376 32.4656 47.1552 32.7309C47.9354 33.2264 48.0863 33.7643 47.6398 34.5737C47.3397 35.1178 46.9807 35.6307 46.6374 36.1506C46.3787 36.5425 46.3536 36.8513 46.8626 37.0614C48.0968 37.5709 49.077 38.4149 49.9691 39.3813C50.4059 39.8719 50.963 40.2425 51.5866 40.4573C52.2103 40.6721 52.8793 40.7239 53.529 40.6076C55.4568 40.2885 57.4357 40.6853 59.0866 41.722C59.9915 42.2759 60.9697 42.7452 62.0917 42.7484C63.6987 42.7527 64.3372 42.0183 64.0783 40.4478C64.032 40.1663 63.9879 39.8844 63.9497 39.6016C63.8706 39.0161 63.6689 38.3851 64.433 38.0642C65.3913 37.6613 66.2657 37.8539 66.7524 38.5727C67.1063 39.0954 67.2318 39.7167 67.4827 40.2842C67.6704 40.7088 67.8904 41.0521 68.4679 40.9695C69.9179 40.7612 71.3715 40.5684 72.8278 40.4072C73.3112 40.3535 73.5886 40.1455 73.5424 39.683C73.4556 38.7939 73.9206 38.1448 74.4323 37.5201C74.96 36.8765 75.5312 36.268 76.0818 35.6425C77.2647 34.299 78.7644 34.0577 80.4437 34.3842C81.5258 34.5784 82.5661 34.9555 83.5192 35.4991C84.0217 35.7814 84.4678 36.1525 84.8356 36.5939C85.7056 37.6699 85.5558 38.1584 84.2879 38.6554C82.3064 39.4331 80.9365 40.903 79.8389 42.657C79.5217 43.1636 79.6451 43.6856 79.9246 44.1323C80.8282 45.5759 80.0147 46.7662 79.3732 47.9672C79.1451 48.3939 78.6128 48.4212 78.1812 48.453C76.4458 48.5813 76.2583 49.9406 76.7719 51.0117C76.9512 51.3866 77.1502 51.7512 77.3215 52.1283C77.477 52.4269 77.6002 52.741 77.689 53.0653C77.8019 53.588 77.8227 54.2428 77.3055 54.4586C76.8657 54.642 76.5979 54.0357 76.3462 53.6969C75.9076 53.1468 75.5658 52.5273 75.3354 51.8644C75.1685 51.3258 74.8327 51.1942 74.3256 51.2787C73.8874 51.3516 73.4467 51.4103 73.0067 51.4707C72.3157 51.5656 71.9377 51.2508 71.751 50.5961C71.4635 49.7242 71.5128 48.7776 71.8895 47.9397C71.999 47.7049 72.1024 47.4671 72.2121 47.2318C72.7093 46.165 72.7097 46.1652 71.108 46.1423Z" fill="#83C7FF"/>
<path d="M48.5137 27.5652V27.0116C48.5227 27.0053 48.5378 27.0005 48.5399 26.9924C48.6772 26.4737 49.0376 26.1207 49.4373 25.7942C49.688 25.5891 49.9612 25.4134 50.1989 25.1904C50.2635 25.1384 50.3113 25.0687 50.3364 24.9901C50.3616 24.9115 50.3629 24.8273 50.3403 24.7479C50.3004 24.5682 50.2627 24.3887 50.2071 24.2129C50.0871 23.8584 50.0038 23.4927 49.9584 23.1214C49.911 22.7869 49.986 22.4466 50.1701 22.1622C50.3541 21.8778 50.6349 21.6682 50.9615 21.5713C51.1725 21.508 51.3896 21.4661 51.6092 21.4464C52.0019 21.3987 52.3987 21.4385 52.7917 21.3839C52.8807 21.3825 52.9672 21.3546 53.0401 21.3039C53.113 21.2532 53.1688 21.182 53.2004 21.0995C53.266 20.9342 53.3404 20.7722 53.399 20.6035C53.5232 20.1713 53.7168 19.7617 53.9725 19.3906C54.1473 19.1465 54.3974 18.9654 54.6851 18.8744C54.9728 18.7834 55.2826 18.7876 55.5678 18.8862C55.9802 19.0425 56.3679 19.2564 56.7192 19.5215C57.4757 20.0177 57.4103 20.0169 58.1675 19.5215C58.4501 19.3198 58.7481 19.14 59.0588 18.9839C59.8645 18.618 60.5893 18.84 61.0495 19.5927C61.1998 19.8523 61.323 20.1263 61.4171 20.4107C61.5018 20.6917 61.6145 20.9637 61.7533 21.2228C61.7717 21.2578 61.7982 21.2881 61.8306 21.3112C61.863 21.3342 61.9005 21.3494 61.9399 21.3554C62.1566 21.3963 62.3767 21.4172 62.5973 21.4179C63.0565 21.3982 63.5159 21.4552 63.9561 21.5865C64.217 21.6644 64.4483 21.8184 64.6196 22.0284C64.7909 22.2384 64.8944 22.4947 64.9165 22.7639C64.9415 23.1784 64.8831 23.5937 64.7446 23.9856C64.6514 24.2639 64.5797 24.5488 64.53 24.8378C64.5188 24.8907 64.5218 24.9455 64.5386 24.9968C64.5553 25.0482 64.5853 25.0943 64.6256 25.1306C64.7626 25.2635 64.9078 25.3877 65.0604 25.5025C65.3862 25.725 65.6854 25.9835 65.9523 26.273C66.2199 26.5451 66.3697 26.9101 66.3697 27.2902C66.3697 27.6702 66.2199 28.0352 65.9523 28.3074C65.809 28.4663 65.6538 28.6141 65.4879 28.7496C65.2369 28.9637 64.9572 29.1411 64.7103 29.362C64.6342 29.4183 64.5775 29.4966 64.5481 29.5861C64.5188 29.6756 64.5181 29.7719 64.5462 29.8618C64.5882 30.0228 64.6176 30.1873 64.6683 30.3463C64.7911 30.706 64.8765 31.0772 64.923 31.4541C64.9715 31.7915 64.8953 32.1349 64.7086 32.4211C64.5219 32.7073 64.2371 32.917 63.9067 33.0117C63.701 33.0723 63.4899 33.1127 63.2762 33.1325C62.877 33.1806 62.4752 33.1412 62.0765 33.197C61.9904 33.2006 61.9073 33.2291 61.8375 33.2791C61.7677 33.3291 61.7142 33.3983 61.6837 33.4781C61.6161 33.6428 61.5429 33.805 61.4845 33.9739C61.3614 34.4064 61.1677 34.8161 60.9112 35.1866C60.7675 35.3914 60.5696 35.553 60.3393 35.6535C60.1089 35.7541 59.8551 35.7898 59.6056 35.7568C59.2495 35.6973 58.9111 35.5604 58.6147 35.3561C58.3216 35.1804 58.0557 34.9647 57.7573 34.7954C57.6638 34.7342 57.5542 34.7015 57.4421 34.7015C57.33 34.7015 57.2204 34.7342 57.1269 34.7954C56.7696 35.0001 56.4497 35.261 56.0902 35.4617C55.0363 36.0525 54.1734 35.7741 53.6722 34.6827C53.5106 34.3312 53.4028 33.9608 53.2597 33.6029C53.2296 33.4802 53.1581 33.3715 53.057 33.2947C52.9559 33.2179 52.8314 33.1777 52.7041 33.1808C52.5723 33.1808 52.4382 33.1624 52.3048 33.1624C51.9734 33.1645 51.6425 33.1413 51.3147 33.0929C50.6086 32.9846 50.1287 32.5838 49.9908 31.9872C49.932 31.6633 49.944 31.3307 50.0261 31.0119C50.1102 30.6 50.2819 30.212 50.3445 29.7939C50.3601 29.7221 50.3558 29.6474 50.3322 29.5778C50.3086 29.5082 50.2664 29.4462 50.2102 29.3983C49.9496 29.1484 49.6428 28.961 49.3696 28.7272C49.0653 28.494 48.8156 28.1983 48.6379 27.8603C48.6118 27.7563 48.57 27.6568 48.5137 27.5652V27.5652ZM54.612 26.5468C54.4788 26.5519 54.3495 26.5931 54.2384 26.6661C54.1441 26.7268 54.0651 26.8079 54.0071 26.9033C53.9492 26.9988 53.914 27.106 53.904 27.2169C53.8941 27.3278 53.9098 27.4395 53.9499 27.5436C53.9899 27.6476 54.0534 27.7412 54.1354 27.8174C54.7269 28.4121 55.3254 28.9999 55.9216 29.5898C56.301 29.9647 56.7202 29.967 57.0966 29.5938C57.7509 28.9473 58.4044 28.3 59.0571 27.6519C59.6158 27.098 60.1744 26.544 60.733 25.99C60.8084 25.9231 60.8693 25.8417 60.9119 25.7507C60.9545 25.6598 60.9779 25.5612 60.9807 25.4609C60.9835 25.3607 60.9657 25.2609 60.9283 25.1678C60.8908 25.0746 60.8346 24.99 60.7631 24.9191C60.6915 24.8482 60.6061 24.7925 60.5121 24.7554C60.418 24.7183 60.3174 24.7006 60.2162 24.7034C60.115 24.7062 60.0155 24.7294 59.9237 24.7716C59.8319 24.8138 59.7497 24.8741 59.6823 24.9488C58.6616 25.9571 57.6431 26.9675 56.6267 27.9802C56.5363 28.0704 56.4916 28.0756 56.3995 27.9817C56.007 27.5809 55.6041 27.1904 55.2065 26.7948C55.1305 26.7145 55.0383 26.6509 54.9359 26.6082C54.8334 26.5654 54.7231 26.5445 54.612 26.5468V26.5468Z" fill="#0583D1"/>
<path d="M54.6112 26.546C54.7223 26.5436 54.8326 26.5644 54.935 26.607C55.0374 26.6497 55.1297 26.7131 55.2058 26.7933C55.6034 27.189 56.0062 27.5802 56.3988 27.9803C56.4908 28.0742 56.5356 28.069 56.6259 27.9788C57.6415 26.9654 58.66 25.9549 59.6815 24.9474C59.749 24.8727 59.8311 24.8123 59.9229 24.7701C60.0147 24.7279 60.1143 24.7047 60.2154 24.7019C60.3166 24.6992 60.4173 24.7168 60.5113 24.7539C60.6053 24.791 60.6907 24.8467 60.7623 24.9176C60.8339 24.9885 60.8901 25.0732 60.9275 25.1663C60.9649 25.2595 60.9828 25.3592 60.98 25.4595C60.9771 25.5597 60.9537 25.6583 60.9111 25.7493C60.8686 25.8403 60.8077 25.9217 60.7323 25.9885C60.1752 26.5438 59.6166 27.0978 59.0563 27.6504C58.4028 28.2977 57.7493 28.945 57.0958 29.5924C56.7176 29.9655 56.3002 29.9636 55.9209 29.5884C55.3245 28.9985 54.726 28.4107 54.1346 27.816C54.0526 27.7398 53.9892 27.6462 53.9491 27.5421C53.909 27.4381 53.8934 27.3264 53.9033 27.2155C53.9132 27.1045 53.9485 26.9973 54.0064 26.9019C54.0643 26.8065 54.1434 26.7253 54.2376 26.6647C54.3488 26.5919 54.4781 26.5509 54.6112 26.546V26.546Z" fill="#FEFEFD"/>
<path d="M39.3223 36.0839V36.0581H39.4606C39.4682 36.0631 39.4707 36.0679 39.4677 36.0722C39.4648 36.0766 39.4621 36.0787 39.4593 36.0787L39.3223 36.0839Z" fill="#ECB1B6"/>
<path d="M39.4609 36.0789C39.4609 36.072 39.4609 36.0652 39.4622 36.0581H39.5773C39.5437 36.0947 39.5008 36.078 39.4609 36.0789Z" fill="#F4989C"/>
<path d="M39.3343 56.8315C39.7312 57.4512 40.132 58.0676 40.5226 58.6923C40.6234 58.853 40.6754 58.8714 40.7849 58.6956C41.1666 58.0816 41.5625 57.4787 41.9531 56.8717C42.866 56.9239 43.7628 57.1654 44.5995 57.5844C44.8408 57.6975 45.0644 57.8543 45.2615 58.0489C45.8131 58.621 45.8057 59.2063 45.2166 59.7426C44.6123 60.2929 43.8803 60.521 43.14 60.7057C42.1018 60.9514 41.0393 61.0368 39.9811 60.9597C38.7626 60.8854 37.5601 60.6845 36.4617 60.0098C36.2009 59.8579 35.9756 59.6373 35.8047 59.3664C35.703 59.1854 35.6603 58.9695 35.6842 58.7563C35.7081 58.5432 35.797 58.3463 35.9355 58.2002C36.2478 57.8575 36.6237 57.599 37.0355 57.4438C37.7469 57.1366 38.4928 56.9455 39.2512 56.8761C39.2808 56.8665 39.3089 56.8515 39.3343 56.8315V56.8315Z" fill="#CBE4FC"/>
<path d="M37.0156 40.5633V39.9242C37.0228 39.9134 37.0299 39.9132 37.0366 39.9242C37.0366 40.1018 37.0366 40.2795 37.0366 40.4573C37.0366 40.4929 37.0507 40.5335 37.0156 40.5633Z" fill="#EC8086"/>
<path d="M37.0566 40.884C37.0109 40.8281 37.0427 40.7629 37.0343 40.7026C37.0788 40.7585 37.0471 40.8237 37.0566 40.884Z" fill="#EC7B81"/>
<path d="M37.0586 39.5333C37.0646 39.4872 37.0399 39.4363 37.081 39.396C37.0741 39.4415 37.1001 39.493 37.0586 39.5333Z" fill="#EA7C82"/>
<path d="M37.0333 39.7398C37.0391 39.6937 37.0146 39.6428 37.0557 39.6025C37.0488 39.6484 37.0745 39.6995 37.0333 39.7398Z" fill="#EA7C82"/>
<path d="M37.039 39.9228C37.0317 39.9228 37.0246 39.9228 37.0181 39.9228C37.0235 39.8769 36.9992 39.8264 37.039 39.7861V39.9228Z" fill="#DB737A"/>
<path d="M37.0809 41.0655C37.04 41.0256 37.0645 40.9752 37.0587 40.9297C37.0998 40.9698 37.074 41.0202 37.0809 41.0655Z" fill="#E77A81"/>
<path d="M37.1039 41.2282C37.0662 41.1958 37.0857 41.1526 37.0815 41.1138C37.1194 41.1462 37.0987 41.1896 37.1039 41.2282Z" fill="#EE7B81"/>
<path d="M37.1273 41.4103C37.0892 41.3785 37.1095 41.3353 37.1049 41.2969C37.1428 41.3287 37.1223 41.3721 37.1273 41.4103Z" fill="#E67A82"/>
</svg>
