<svg width="859" height="859" viewBox="0 0 859 859" fill="none" xmlns="http://www.w3.org/2000/svg">
<circle cx="429.737" cy="429.44" r="428.896" fill="#FDF8DE"/>
<circle cx="429.736" cy="429.443" r="255.347" fill="white"/>
<circle cx="429.736" cy="429.443" r="275.613" stroke="#FDCF4B" stroke-opacity="0.6" stroke-width="40.5313"/>
<g clip-path="url(#clip0_3366_4036)">
<path d="M505.82 415.308C490.919 415.314 476.351 410.899 463.96 402.623C451.569 394.347 441.911 382.581 436.209 368.815C430.507 355.048 429.016 339.9 431.926 325.286C434.836 310.672 442.015 297.249 452.556 286.717C466.682 272.591 485.842 264.654 505.82 264.654C525.798 264.654 544.957 272.591 559.084 286.717C573.211 300.844 581.147 320.003 581.147 339.981C581.147 359.959 573.211 379.119 559.084 393.245C552.105 400.262 543.805 405.825 534.662 409.612C525.519 413.399 515.716 415.335 505.82 415.308Z" fill="#FED947"/>
<path d="M505.819 269.134C491.808 269.133 478.11 273.287 466.46 281.071C454.809 288.855 445.729 299.919 440.367 312.864C435.005 325.809 433.602 340.054 436.337 353.796C439.072 367.539 445.82 380.161 455.729 390.068C469.04 403.231 487.02 410.591 505.741 410.539C524.461 410.487 542.4 403.027 555.638 389.79C568.875 376.552 576.335 358.614 576.387 339.893C576.439 321.172 569.079 303.192 555.916 289.881C549.351 283.283 541.544 278.053 532.945 274.491C524.346 270.93 515.127 269.109 505.819 269.134V269.134Z" fill="#FED947"/>
<path d="M559.083 286.717C552.105 279.7 543.804 274.138 534.661 270.351C525.518 266.564 515.715 264.628 505.819 264.655C502.823 264.655 499.829 264.831 496.853 265.181C510.891 266.857 524.173 272.451 535.181 281.322C546.188 290.193 554.477 301.983 559.099 315.343C563.72 328.704 564.488 343.096 561.314 356.872C558.14 370.649 551.153 383.254 541.151 393.245C529.238 405.213 513.625 412.797 496.853 414.764C499.829 415.116 502.823 415.293 505.819 415.296C520.717 415.299 535.282 410.884 547.671 402.609C560.059 394.333 569.715 382.569 575.417 368.805C581.119 355.041 582.61 339.895 579.703 325.283C576.795 310.671 569.62 297.25 559.083 286.717Z" fill="#FECC30"/>
<path d="M348.72 531.332L381.853 523.64C385.246 522.852 388.773 522.831 392.176 523.58L472.194 541.219C476.872 542.251 481.715 542.286 486.407 541.322C491.099 540.358 495.535 538.417 499.427 535.624L575.226 481.23C577.172 479.835 578.734 477.969 579.765 475.808C580.797 473.647 581.265 471.26 581.126 468.869V468.869C581.003 466.725 580.394 464.636 579.346 462.761C578.299 460.886 576.839 459.274 575.077 458.046C573.315 456.817 571.297 456.005 569.175 455.67C567.054 455.336 564.884 455.487 562.829 456.113L457.03 488.313L362.887 457.667L348.72 531.332Z" fill="#FDD8AE"/>
<path d="M374.241 523.571C370.839 522.823 367.312 522.843 363.919 523.631L349.573 526.966L348.736 531.324L378.288 524.462L374.241 523.571Z" fill="#FBBF7D"/>
<path d="M342.138 454.988L389.239 440.81C404.21 436.308 420.292 437.254 434.632 443.482L479.545 463.004C482.793 464.412 485.436 466.927 487.002 470.101C488.569 473.276 488.957 476.904 488.099 480.338V480.338C487.156 484.131 484.764 487.403 481.436 489.454C478.109 491.504 474.11 492.169 470.298 491.306L444.787 485.55L342.138 454.988Z" fill="#FDD8AE"/>
<path d="M470.298 482.367L444.787 476.611C444.787 479.156 445.653 481.626 447.242 483.614C448.831 485.601 451.049 486.99 453.532 487.55L473.478 492.051C481.518 493.844 488.093 488.608 488.093 480.365C488.762 477.693 488.678 474.887 487.848 472.26C486.726 475.84 484.298 478.867 481.047 480.74C477.795 482.613 473.958 483.194 470.298 482.367Z" fill="#FBBF7D"/>
<path d="M369.915 546.844L333.985 553.06L279.592 562.505V445.205L314.356 439.951L350.316 433.717C351.633 433.487 352.984 433.519 354.289 433.812C355.594 434.106 356.829 434.654 357.922 435.425C359.014 436.196 359.944 437.176 360.658 438.308C361.371 439.439 361.854 440.7 362.079 442.019L378.218 535.063C378.45 536.382 378.42 537.734 378.128 539.041C377.836 540.348 377.288 541.585 376.517 542.68C375.745 543.775 374.765 544.707 373.632 545.421C372.499 546.136 371.236 546.619 369.915 546.844V546.844Z" fill="#2370B5"/>
<path d="M377.166 529.039C376.441 530.414 375.41 531.604 374.153 532.518C372.896 533.432 371.447 534.045 369.915 534.311L333.985 540.545L279.592 549.972V562.524L333.985 553.062L369.945 546.828C371.261 546.599 372.519 546.114 373.648 545.399C374.776 544.684 375.752 543.754 376.52 542.661C377.289 541.568 377.834 540.335 378.125 539.032C378.417 537.728 378.448 536.38 378.218 535.064L377.166 529.039Z" fill="#0A56A4"/>
<path d="M369.915 546.844L333.985 553.06L314.355 439.951L350.315 433.717C351.633 433.487 352.983 433.519 354.289 433.812C355.594 434.106 356.828 434.654 357.921 435.425C359.014 436.196 359.944 437.176 360.657 438.308C361.371 439.439 361.854 440.7 362.079 442.019L378.218 535.063C378.45 536.382 378.419 537.734 378.128 539.041C377.836 540.348 377.288 541.585 376.516 542.68C375.745 543.775 374.764 544.706 373.631 545.421C372.499 546.136 371.235 546.619 369.915 546.844V546.844Z" fill="#0A56A4"/>
<path d="M378.218 535.065L362.079 442.021C361.854 440.701 361.371 439.439 360.656 438.306C359.942 437.174 359.011 436.194 357.917 435.422C356.823 434.651 355.587 434.103 354.28 433.811C352.974 433.518 351.622 433.487 350.303 433.719L344.44 434.735L360.286 526.099C360.518 527.417 360.488 528.769 360.196 530.076C359.905 531.383 359.358 532.619 358.587 533.714C357.816 534.809 356.836 535.741 355.704 536.456C354.571 537.171 353.309 537.655 351.989 537.88L331.929 541.359L333.985 553.062L369.945 546.828C371.261 546.6 372.519 546.114 373.647 545.399C374.776 544.684 375.752 543.754 376.52 542.661C377.288 541.569 377.834 540.336 378.125 539.032C378.416 537.729 378.448 536.38 378.218 535.065V535.065Z" fill="#144E92"/>
<path d="M498.016 338.395H479.833C479.741 338.389 479.65 338.389 479.558 338.395H479.385L479.14 338.437L478.948 338.467C478.877 338.467 478.805 338.503 478.733 338.521L478.524 338.574L478.309 338.652L478.117 338.724C478.028 338.76 477.944 338.807 477.854 338.849L477.729 338.915L477.508 339.047L477.352 339.142L477.185 339.268L477 339.405L476.868 339.531L476.671 339.71L476.569 339.824L476.402 340.021C476.354 340.075 476.318 340.128 476.276 340.182L476.145 340.374C476.103 340.433 476.067 340.499 476.031 340.559C475.991 340.62 475.955 340.684 475.924 340.75C475.888 340.816 475.858 340.882 475.828 340.947C475.792 341.012 475.762 341.08 475.738 341.151C475.709 341.217 475.683 341.285 475.661 341.354C475.635 341.422 475.613 341.492 475.595 341.563C475.571 341.631 475.553 341.701 475.541 341.772L475.487 341.987C475.487 342.065 475.487 342.137 475.457 342.209C475.428 342.28 475.458 342.352 475.428 342.424C475.398 342.496 475.428 342.591 475.428 342.675C475.428 342.759 475.428 342.776 475.428 342.83V342.866C475.428 342.95 475.428 343.039 475.428 343.123C475.428 343.207 475.428 343.249 475.428 343.314L475.463 343.53C475.463 343.601 475.463 343.679 475.499 343.751C475.51 343.805 475.524 343.859 475.541 343.912C475.541 343.996 475.583 344.085 475.607 344.175C475.62 344.218 475.636 344.26 475.655 344.301C475.655 344.396 475.72 344.486 475.756 344.582L475.852 344.779C475.88 344.844 475.912 344.908 475.948 344.97C475.984 345.036 476.025 345.102 476.067 345.167C476.1 345.227 476.135 345.285 476.175 345.341C476.211 345.397 476.251 345.451 476.294 345.502L476.438 345.699L476.557 345.825C476.617 345.897 476.677 345.962 476.743 346.028L515.996 384.008C516.852 384.827 517.997 385.274 519.182 385.252C520.366 385.229 521.494 384.738 522.317 383.887C523.141 383.035 523.594 381.892 523.578 380.708C523.562 379.523 523.077 378.393 522.23 377.565L490.939 347.289H498.01C504.231 347.287 510.252 345.093 515.017 341.094C519.781 337.094 522.985 331.544 524.065 325.418H531.776C532.965 325.418 534.105 324.946 534.946 324.105C535.787 323.264 536.259 322.124 536.259 320.935C536.259 319.746 535.787 318.606 534.946 317.765C534.105 316.924 532.965 316.452 531.776 316.452H524.065C523.236 311.632 521.079 307.138 517.837 303.475H531.776C532.965 303.475 534.105 303.003 534.946 302.162C535.787 301.322 536.259 300.181 536.259 298.992C536.259 297.803 535.787 296.663 534.946 295.822C534.105 294.982 532.965 294.509 531.776 294.509H479.869C478.68 294.509 477.54 294.982 476.699 295.822C475.858 296.663 475.386 297.803 475.386 298.992C475.386 300.181 475.858 301.322 476.699 302.162C477.54 303.003 478.68 303.475 479.869 303.475H498.016C501.865 303.48 505.604 304.755 508.655 307.101C511.705 309.447 513.897 312.734 514.89 316.452H479.869C478.68 316.452 477.54 316.924 476.699 317.765C475.858 318.606 475.386 319.746 475.386 320.935C475.386 322.124 475.858 323.264 476.699 324.105C477.54 324.946 478.68 325.418 479.869 325.418H514.89C513.896 329.136 511.704 332.422 508.654 334.768C505.603 337.114 501.864 338.389 498.016 338.395V338.395ZM585.596 468.582C585.436 465.759 584.636 463.01 583.258 460.542C581.879 458.074 579.958 455.951 577.639 454.334C575.321 452.717 572.665 451.647 569.872 451.207C567.079 450.767 564.223 450.966 561.519 451.791L492.624 472.76C491.992 469.706 490.637 466.848 488.672 464.426C486.708 462.004 484.191 460.088 481.333 458.839L436.413 439.317C421.099 432.684 403.931 431.682 387.949 436.489L366.789 442.855L366.508 441.223C366.179 439.325 365.48 437.509 364.449 435.881C363.419 434.252 362.078 432.843 360.502 431.733C358.927 430.623 357.149 429.834 355.269 429.411C353.388 428.988 351.443 428.94 349.545 429.269L313.597 435.479L283.31 440.733C282.73 440.834 282.175 441.048 281.677 441.362C281.18 441.677 280.749 442.087 280.41 442.568C279.725 443.54 279.455 444.744 279.657 445.916C279.758 446.496 279.972 447.05 280.286 447.548C280.601 448.045 281.011 448.476 281.492 448.815C282.464 449.5 283.668 449.771 284.84 449.568L310.704 445.079L328.773 549.372L283.31 557.232C282.204 557.423 281.21 558.022 280.525 558.911C279.84 559.799 279.512 560.912 279.608 562.03C279.703 563.148 280.214 564.19 281.04 564.949C281.866 565.709 282.947 566.131 284.069 566.132C284.327 566.131 284.585 566.109 284.84 566.066L370.681 551.183C374.514 550.516 377.926 548.355 380.167 545.174C382.409 541.994 383.296 538.054 382.635 534.219L381.601 528.242L382.88 527.943C385.622 527.314 388.47 527.298 391.219 527.895L471.226 545.54C476.518 546.705 481.997 546.743 487.305 545.652C492.614 544.562 497.634 542.367 502.039 539.21L577.832 484.816C580.396 482.99 582.453 480.542 583.812 477.702C585.17 474.863 585.784 471.724 585.596 468.582ZM369.144 542.372L337.608 547.842L319.538 443.549L351.081 438.079C352.569 437.826 354.097 438.174 355.33 439.045C356.562 439.917 357.399 441.242 357.656 442.73L373.795 535.773C373.923 536.512 373.904 537.269 373.739 538C373.575 538.731 373.268 539.423 372.836 540.036C372.404 540.649 371.856 541.17 371.223 541.571C370.589 541.972 369.883 542.244 369.144 542.372V542.372ZM572.607 477.56L496.809 531.954C493.427 534.375 489.573 536.059 485.499 536.897C481.424 537.734 477.219 537.705 473.156 536.813L393.161 519.144C389.108 518.26 384.909 518.284 380.866 519.216L380.083 519.401L368.331 451.732L390.531 445.049C404.488 440.859 419.477 441.742 432.845 447.542L477.759 467.064C479.858 467.978 481.6 469.555 482.719 471.553C483.838 473.551 484.273 475.86 483.957 478.128C483.907 478.496 483.837 478.861 483.748 479.221C483.094 481.881 481.421 484.177 479.089 485.614C476.758 487.051 473.955 487.513 471.285 486.902L445.762 481.146C445.187 481.017 444.593 481.002 444.013 481.102C443.432 481.202 442.877 481.416 442.379 481.73C441.881 482.045 441.45 482.455 441.111 482.936C440.771 483.417 440.53 483.961 440.4 484.535C440.271 485.11 440.256 485.704 440.356 486.285C440.456 486.865 440.67 487.42 440.984 487.918C441.299 488.416 441.709 488.847 442.19 489.187C442.671 489.526 443.215 489.768 443.79 489.897L469.307 495.665C470.715 495.987 472.154 496.15 473.599 496.149C477.781 496.151 481.852 494.802 485.205 492.302C488.559 489.802 491.014 486.285 492.206 482.276L564.114 460.399C565.038 460.118 565.999 459.975 566.965 459.974C569.018 459.983 571.017 460.643 572.672 461.858C574.328 463.072 575.557 464.781 576.181 466.737C576.806 468.694 576.795 470.798 576.15 472.747C575.504 474.697 574.258 476.392 572.589 477.59L572.607 477.56ZM505.822 419.753C521.615 419.76 537.056 415.082 550.189 406.311C563.321 397.539 573.557 385.068 579.599 370.477C585.641 355.885 587.218 339.829 584.13 324.341C581.043 308.853 573.43 294.629 562.255 283.469C554.842 276.058 546.043 270.18 536.359 266.17C526.675 262.16 516.296 260.097 505.814 260.098C495.332 260.099 484.954 262.164 475.271 266.176C465.587 270.189 456.789 276.069 449.378 283.481C441.968 290.893 436.089 299.693 432.079 309.377C428.069 319.061 426.006 329.44 426.007 339.922C426.008 350.403 428.074 360.782 432.086 370.465C436.098 380.148 441.978 388.947 449.39 396.357C456.782 403.795 465.576 409.693 475.262 413.709C484.949 417.725 495.336 419.779 505.822 419.753V419.753ZM455.726 289.829C462.291 283.191 470.104 277.915 478.715 274.306C487.325 270.698 496.565 268.826 505.901 268.8C515.237 268.774 524.487 270.594 533.118 274.155C541.748 277.716 549.59 282.948 556.192 289.55C562.794 296.152 568.026 303.993 571.587 312.624C575.147 321.255 576.967 330.504 576.941 339.841C576.915 349.177 575.044 358.416 571.435 367.027C567.826 375.638 562.551 383.45 555.913 390.015C542.602 403.179 524.622 410.539 505.901 410.487C487.18 410.435 469.242 402.975 456.004 389.738C442.767 376.5 435.307 358.561 435.255 339.841C435.203 321.12 442.563 303.14 455.726 289.829V289.829Z" fill="#3C3B41"/>
</g>
<defs>
<clipPath id="clip0_3366_4036">
<rect width="306.04" height="306.04" fill="white" transform="translate(279.591 260.168)"/>
</clipPath>
</defs>
</svg>
