<svg width="450" height="318" viewBox="0 0 450 318" fill="none" xmlns="http://www.w3.org/2000/svg">
<path d="M61.4926 77.2655L89.0187 96.884L101.33 81.4485L74.5719 59.9782C73.4207 59.0545 72.0931 58.3756 70.6703 57.983C69.2475 57.5904 67.7595 57.4923 66.2975 57.6949C64.8356 57.8975 63.4303 58.3964 62.1679 59.1611C60.9055 59.9258 59.8125 60.9402 58.9559 62.1421V62.1421C57.2868 64.484 56.6163 67.393 57.0921 70.2292C57.5678 73.0653 59.1507 75.5964 61.4926 77.2655Z" fill="#FFD05B"/>
<path d="M4.67212 301.115L14.3238 303.644L28.6711 267.622L14.4272 263.889L4.67212 301.115Z" fill="#FFB8B8"/>
<path d="M30.5879 317.484L0.25548 309.536L3.32627 297.817L21.9393 302.694C25.0475 303.508 27.7048 305.524 29.3267 308.298C30.9487 311.071 31.4023 314.376 30.5879 317.484V317.484V317.484Z" fill="#2F2E41"/>
<path d="M90.4655 307.988L100.287 306.234L98.1942 267.516L83.6987 270.105L90.4655 307.988Z" fill="#FFB8B8"/>
<path d="M120.859 311.97L89.9908 317.484L87.8605 305.557L106.802 302.174C108.368 301.894 109.974 301.926 111.528 302.266C113.082 302.607 114.554 303.251 115.859 304.161C117.164 305.07 118.278 306.228 119.136 307.568C119.993 308.908 120.579 310.404 120.859 311.97V311.97V311.97Z" fill="#2F2E41"/>
<path d="M71.1266 23.2426C73.5467 23.8317 75.5157 26.2979 76.6982 29.1548C77.7888 32.1556 78.5273 35.2728 78.8987 38.4439C79.8279 44.3495 80.7201 50.7427 78.7985 56.2123C76.5462 62.6228 70.5448 65.9805 65.339 64.4026C60.1333 62.8247 55.9931 56.9021 54.5785 50.0845C53.2908 43.1958 54.1205 36.0785 56.9584 29.6708C58.4372 26.3041 60.4755 23.198 63.1843 21.679C64.513 20.8755 66.0967 20.6049 67.6168 20.9217C69.1369 21.2384 70.4807 22.119 71.3779 23.3863" fill="#2F2E41"/>
<path d="M84.8215 130.167L103.52 297.643L88.0768 303.507L59.5937 191.203L19.9386 293.887L3.03442 294.826C3.03442 294.826 26.2278 135.05 43.4165 131.419L84.8215 130.167Z" fill="#2F2E41"/>
<path d="M69.1133 44.6158C80.1523 44.6158 89.1011 35.6669 89.1011 24.628C89.1011 13.589 80.1523 4.64014 69.1133 4.64014C58.0743 4.64014 49.1255 13.589 49.1255 24.628C49.1255 35.6669 58.0743 44.6158 69.1133 44.6158Z" fill="#FFB8B8"/>
<path d="M77.6883 53.001L56.0885 50.1836C56.0885 50.1836 42.0017 67.0877 42.9408 96.2004C43.88 125.313 40.593 134.235 40.593 134.235L85.6292 135.048C79.1188 126.097 106.35 74.683 77.6883 53.001Z" fill="#FFD05B"/>
<path d="M89.2943 139.12C88.844 139.123 88.3947 139.162 87.9504 139.235L60.3177 109.82L63.135 100.428L49.5178 94.3242L41.0654 114.985L80.8213 146.609C80.6076 148.33 80.923 150.075 81.7255 151.613C82.528 153.151 83.7796 154.408 85.3138 155.217C86.848 156.026 88.5922 156.348 90.3143 156.142C92.0364 155.935 93.6549 155.21 94.9545 154.061C96.2541 152.912 97.1731 151.395 97.5895 149.711C98.0058 148.028 97.8997 146.257 97.2853 144.635C96.6708 143.013 95.5772 141.617 94.1498 140.631C92.7223 139.646 91.0288 139.119 89.2943 139.12V139.12Z" fill="#FFB8B8"/>
<path d="M59.0276 64.4486L46.229 95.7339L64.0723 104.186L78.8493 73.2246C79.485 71.8926 79.8421 70.4448 79.8987 68.97C79.9553 67.4951 79.7102 66.0242 79.1785 64.6474C78.6467 63.2705 77.8394 62.0168 76.8061 60.9629C75.7728 59.909 74.5352 59.0771 73.1691 58.5183V58.5183C71.8512 57.9791 70.44 57.7048 69.016 57.711C67.5921 57.7173 66.1833 58.0039 64.8701 58.5546C63.5569 59.1053 62.3651 59.9092 61.3627 60.9205C60.3602 61.9318 59.5667 63.1306 59.0276 64.4486V64.4486Z" fill="#FFD05B"/>
<path d="M63.8831 42.7988C67.015 40.9921 67.3491 36.6337 66.9235 33.0432C66.4978 29.4527 65.7869 25.45 67.8974 22.5142C70.4163 19.0104 75.4769 18.9406 79.7907 18.8263C84.1045 18.7119 89.3577 17.4487 90.4755 13.2807C91.214 10.5266 89.6339 7.57122 87.3663 5.84245C85.0988 4.11368 82.262 3.34937 79.5047 2.62298C73.3366 0.998055 66.9677 -0.640561 60.652 0.25253C54.3963 1.13712 48.7405 4.44914 44.9082 9.472C41.0759 14.4949 39.3754 20.8247 40.1745 27.0918C41.1968 35.1086 42.6793 38.6092 41.7062 42.144C39.8936 48.7279 32.0781 52.9574 31.9225 59.7844C31.8007 65.1246 36.5176 69.2442 41.1198 71.9557C44.7702 74.1065 48.7098 75.9315 52.9167 76.435C57.1235 76.9385 61.6527 75.9745 64.7866 73.1232C68.8285 69.4456 69.8284 63.3016 68.6693 57.9613C67.5103 52.6211 64.5372 47.8787 61.5962 43.273" fill="#2F2E41"/>
<path d="M442.079 48.7881H153.179C151.238 48.791 149.377 49.5636 148.004 50.9365C146.631 52.3095 145.858 54.1707 145.855 56.1123V241.659C145.858 243.601 146.631 245.462 148.004 246.835C149.377 248.208 151.238 248.981 153.179 248.983H442.079C444.021 248.981 445.882 248.208 447.255 246.835C448.628 245.462 449.4 243.601 449.403 241.659V56.1123C449.4 54.1707 448.628 52.3095 447.255 50.9365C445.882 49.5636 444.021 48.791 442.079 48.7881V48.7881ZM447.776 241.659C447.774 243.17 447.173 244.618 446.105 245.686C445.038 246.753 443.59 247.354 442.079 247.356H153.179C151.669 247.354 150.221 246.753 149.153 245.686C148.085 244.618 147.485 243.17 147.483 241.659V56.1123C147.485 54.602 148.085 53.154 149.153 52.0861C150.221 51.0181 151.669 50.4174 153.179 50.4157H442.079C443.59 50.4174 445.038 51.0181 446.105 52.0861C447.173 53.154 447.774 54.602 447.776 56.1123V241.659Z" fill="#3F3D56"/>
<path d="M214.848 141.153H169.275C167.441 141.151 165.683 140.421 164.386 139.125C163.089 137.828 162.36 136.07 162.357 134.236V88.6629C162.36 86.829 163.089 85.0708 164.386 83.7741C165.683 82.4773 167.441 81.7478 169.275 81.7456H214.848C216.682 81.7478 218.44 82.4773 219.737 83.7741C221.033 85.0708 221.763 86.829 221.765 88.6629V134.236C221.763 136.07 221.033 137.828 219.737 139.125C218.44 140.421 216.682 141.151 214.848 141.153V141.153Z" fill="#2448FC"/>
<path d="M427.029 189.578H168.24C166.837 189.578 165.491 189.021 164.499 188.029C163.507 187.037 162.95 185.692 162.95 184.289C162.95 182.886 163.507 181.54 164.499 180.548C165.491 179.556 166.837 178.999 168.24 178.999H427.029C428.432 178.999 429.777 179.556 430.769 180.548C431.761 181.54 432.319 182.886 432.319 184.289C432.319 185.692 431.761 187.037 430.769 188.029C429.777 189.021 428.432 189.578 427.029 189.578V189.578Z" fill="#CCCCCC"/>
<path d="M427.207 163.942H168.418C167.015 163.942 165.67 163.385 164.678 162.393C163.686 161.401 163.128 160.055 163.128 158.653C163.128 157.25 163.686 155.904 164.678 154.912C165.67 153.92 167.015 153.363 168.418 153.363H427.207C428.61 153.363 429.956 153.92 430.948 154.912C431.94 155.904 432.497 157.25 432.497 158.653C432.497 160.055 431.94 161.401 430.948 162.393C429.956 163.385 428.61 163.942 427.207 163.942V163.942Z" fill="#CCCCCC"/>
<path d="M299.439 128.941H261.19C259.787 128.941 258.442 128.384 257.45 127.392C256.458 126.4 255.901 125.054 255.901 123.652C255.901 122.249 256.458 120.903 257.45 119.911C258.442 118.919 259.787 118.362 261.19 118.362H299.439C300.842 118.362 302.187 118.919 303.179 119.911C304.171 120.903 304.729 122.249 304.729 123.652C304.729 125.054 304.171 126.4 303.179 127.392C302.187 128.384 300.842 128.941 299.439 128.941V128.941Z" fill="#CCCCCC"/>
<path d="M427.206 102.909H261.19C259.787 102.909 258.442 102.352 257.45 101.36C256.458 100.368 255.901 99.0222 255.901 97.6193C255.901 96.2164 256.458 94.8709 257.45 93.8789C258.442 92.8869 259.787 92.3296 261.19 92.3296H427.206C428.609 92.3296 429.954 92.8869 430.946 93.8789C431.938 94.8709 432.496 96.2164 432.496 97.6193C432.496 99.0222 431.938 100.368 430.946 101.36C429.954 102.352 428.609 102.909 427.206 102.909V102.909Z" fill="#CCCCCC"/>
<path d="M292.925 215.617H168.24C166.837 215.617 165.491 215.06 164.499 214.068C163.507 213.076 162.95 211.73 162.95 210.327C162.95 208.924 163.507 207.579 164.499 206.587C165.491 205.595 166.837 205.038 168.24 205.038H292.925C294.328 205.038 295.674 205.595 296.666 206.587C297.658 207.579 298.215 208.924 298.215 210.327C298.215 211.73 297.658 213.076 296.666 214.068C295.674 215.06 294.328 215.617 292.925 215.617V215.617Z" fill="#CCCCCC"/>
<path d="M141.108 64.888C141.008 65.3271 140.943 65.7734 140.913 66.2227L105.954 86.3904L97.4572 81.4986L88.3987 93.3576L106.577 106.314L146.459 74.85C148.086 75.4519 149.857 75.5444 151.538 75.1151C153.218 74.6857 154.728 73.755 155.867 72.4466C157.006 71.1383 157.719 69.5142 157.912 67.7906C158.105 66.0669 157.769 64.3253 156.948 62.7973C156.128 61.2694 154.861 60.0275 153.317 59.2369C151.774 58.4463 150.026 58.1443 148.306 58.3713C146.587 58.5982 144.977 59.3433 143.691 60.5074C142.405 61.6715 141.504 63.1994 141.108 64.888V64.888Z" fill="#FFB8B8"/>
</svg>
