<svg width="112" height="112" viewBox="0 0 112 112" fill="none" xmlns="http://www.w3.org/2000/svg">
<rect x="2" width="109" height="109" rx="12.6787" fill="#FD3F97" fill-opacity="0.15"/>
<path d="M31.5707 86.729C29.336 86.6812 27.1013 86.6273 24.8664 86.5871C21.6878 86.5304 19.9948 85.3277 18.8711 82.3176C18.8219 82.2248 18.7607 82.1389 18.6892 82.0622L19.4684 27.2136C20.6852 23.7335 23.2572 22.7083 26.714 22.9063C30.2591 23.1094 33.819 23.0496 37.3727 23.1046C37.3441 24.782 37.321 26.4596 37.2819 28.1367C37.2752 28.4285 37.3899 28.7632 37.0867 28.9922C36.7149 28.6477 36.228 28.4564 35.7226 28.4562C33.8202 28.4534 31.918 28.4058 30.0155 28.3871C29.0799 28.3779 28.4587 28.8798 28.4235 29.6414C28.3872 30.4136 28.9675 30.9272 29.9377 30.9455C31.8399 30.9816 33.7432 30.9794 35.6442 31.0413C36.3311 31.0637 36.837 30.8482 37.2107 30.284C37.2581 32.4678 37.2181 34.6513 37.123 36.8324C36.814 36.4255 36.5045 36.0477 35.9163 36.0432C33.8181 36.0268 31.7199 35.9897 29.6212 35.9569C29.3676 35.9366 29.1143 35.9997 28.8994 36.1366C28.6844 36.2735 28.5193 36.4769 28.429 36.7162C28.0478 37.6073 28.69 38.4901 29.7751 38.5179C31.6489 38.5672 33.5239 38.5612 35.3977 38.6134C35.958 38.6611 36.5146 38.4851 36.9471 38.1233C36.9995 38.1868 37.0981 38.2506 37.0975 38.3137C37.08 40.1663 37.0542 42.0189 37.0201 43.8715C37.0192 43.935 36.9201 43.9968 36.8665 44.0594C36.493 43.717 36.0057 43.5276 35.5004 43.5283C33.5978 43.5253 31.6952 43.4777 29.7926 43.4595C28.8608 43.4505 28.2381 43.961 28.2079 44.7238C28.1777 45.4941 28.7562 46.0017 29.7263 46.0202C31.6286 46.0561 33.5322 46.0544 35.4335 46.1158C35.739 46.1475 36.0472 46.0931 36.3237 45.9586C36.6003 45.8241 36.8342 45.6148 36.9993 45.3542C37.0369 47.5376 37.0054 49.7201 36.9047 51.9017C36.597 51.4927 36.2861 51.1206 35.6966 51.1151C33.5986 51.0998 31.5009 51.0571 29.4028 51.033C29.1344 51.0114 28.8669 51.0838 28.6453 51.2377C28.4238 51.3917 28.2619 51.6179 28.1868 51.878C27.8836 52.7562 28.5161 53.5642 29.5702 53.5898C31.4438 53.6357 33.3186 53.6327 35.1921 53.6851C35.7525 53.7322 36.3087 53.5541 36.7391 53.1898C37.0404 53.428 36.9151 53.7627 36.9125 54.0562C36.8937 56.1418 36.8604 58.2274 36.8317 60.3128C36.3858 60.3101 35.9398 60.3017 35.4939 60.3054C32.7371 60.328 29.9804 60.0913 27.2236 60.3033C25.7306 60.0603 24.2237 59.9332 22.7766 60.461C20.5508 61.2725 19.9053 64.3801 21.4504 66.1509C22.9896 67.9152 24.9082 67.422 26.7938 67.303C27.36 67.4504 27.9438 67.5176 28.5284 67.5028C31.2658 67.5417 34.0033 67.5849 36.7408 67.6324L36.5923 73.5731C36.2339 72.9982 35.7353 72.7716 35.046 72.7757C33.1704 72.7868 31.2946 72.7323 29.4191 72.7102C28.4116 72.6984 27.8314 73.1278 27.7949 73.8941C27.7551 74.7319 28.3679 75.2527 29.4335 75.2705C31.253 75.3009 33.0732 75.3064 34.8921 75.359C35.1697 75.3828 35.4492 75.351 35.7145 75.2654C35.9798 75.1799 36.2256 75.0422 36.4377 74.8605C36.7104 75.0725 36.6103 75.3741 36.6065 75.6415C36.5576 79.3419 36.5045 83.0421 36.4473 86.7424L31.5707 86.729ZM23.3165 52.2191C23.3035 52.8767 23.8619 53.504 24.4729 53.5179C25.0516 53.5311 25.8304 52.782 25.816 52.2261C25.8105 52.0568 25.7716 51.8903 25.7016 51.7362C25.6317 51.5822 25.5321 51.4436 25.4085 51.3285C25.285 51.2135 25.14 51.1243 24.9819 51.066C24.8239 51.0078 24.6559 50.9816 24.4877 50.9892C23.744 50.994 23.332 51.4273 23.3165 52.2191ZM23.5313 37.0989C23.518 37.4211 23.6232 37.737 23.8267 37.9861C24.0301 38.2353 24.3177 38.4003 24.6344 38.4496C25.193 38.4965 26.0135 37.7705 26.034 37.2107C26.0345 37.0414 26.0017 36.8736 25.9376 36.7171C25.8734 36.5606 25.7792 36.4183 25.6602 36.2986C25.5413 36.1788 25.4 36.0839 25.2444 36.0193C25.0889 35.9547 24.9222 35.9216 24.7539 35.922C24.0036 35.9009 23.5666 36.3208 23.5313 37.0989ZM23.0091 73.8535C22.9995 74.1758 23.1086 74.4902 23.3155 74.7364C23.5224 74.9826 23.8124 75.1431 24.1298 75.1871C24.6942 75.2227 25.5036 74.4875 25.5126 73.9305C25.508 73.5887 25.3687 73.2627 25.1253 73.0242C24.882 72.7857 24.5544 72.6543 24.2147 72.6587C23.4695 72.6461 23.0382 73.0728 23.0091 73.8535ZM24.7654 30.8442C24.9332 30.8573 25.1019 30.8369 25.2618 30.784C25.4217 30.7312 25.5696 30.6469 25.697 30.5362C25.8243 30.4255 25.9286 30.2905 26.0038 30.139C26.079 29.9874 26.1236 29.8224 26.1351 29.6535C26.1702 29.0987 25.4204 28.3248 24.8388 28.3161C24.5336 28.3375 24.2457 28.467 24.0262 28.6816C23.8067 28.8961 23.6697 29.1819 23.6396 29.4884C23.5933 30.3238 24.0006 30.8136 24.7654 30.8442ZM24.5749 45.9118C24.743 45.9219 24.9113 45.8984 25.0703 45.8427C25.2293 45.787 25.3758 45.7002 25.5013 45.5873C25.6268 45.4744 25.7288 45.3376 25.8015 45.1848C25.8742 45.032 25.9161 44.8662 25.9248 44.697C25.9448 44.1409 25.1747 43.376 24.6012 43.3828C24.296 43.4096 24.0102 43.5447 23.7948 43.7639C23.5794 43.9831 23.4483 44.2722 23.425 44.5796C23.3891 45.4122 23.8043 45.8931 24.5749 45.9118Z" fill="#017297"/>
<path d="M31.5707 86.729L36.4502 86.7424C37.4842 86.77 38.5185 86.7788 39.5521 86.8335C40.0282 86.8589 40.1745 86.696 40.1797 86.2191C40.2457 80.0833 40.322 73.9475 40.4086 67.8117C40.4189 67.7034 40.3746 67.6528 40.2635 67.6718L36.7437 67.6333C34.0063 67.5893 31.2688 67.5461 28.5313 67.5038C27.9467 67.5186 27.3629 67.4513 26.7968 67.304C25.1746 66.5424 24.2736 65.2205 24.3607 63.7294C24.4567 62.0837 25.4193 60.9332 27.2265 60.3042C29.9833 60.092 32.74 60.3289 35.4968 60.3063C35.9427 60.3027 36.3888 60.3111 36.8346 60.3138C37.7853 60.3384 38.7397 60.3182 39.685 60.402C40.3962 60.4651 40.558 60.2189 40.5661 59.5266C40.6763 50.1218 40.8043 40.7173 40.9502 31.313C40.9882 28.6385 41.0121 25.964 41.0417 23.2893C41.0652 23.2374 41.0691 23.1786 41.0526 23.124L83.4645 23.7205C83.4448 26.0282 83.4196 28.3359 83.4066 30.6438C83.3896 33.6771 85.3432 35.7549 88.3513 35.9113C88.909 35.9405 89.4676 35.9572 90.0259 35.9803C89.7738 53.6493 89.524 71.3182 89.2764 88.9872C89.274 89.7177 89.1251 90.4402 88.8386 91.1114C88.5522 91.7826 88.1341 92.3888 87.6093 92.8936C86.8107 93.7084 85.7966 94.0633 84.8156 94.5148C68.8945 94.2886 52.9732 94.0646 37.0518 93.8426C34.4029 93.8068 31.77 91.3312 31.7019 88.6563C31.6844 88.0179 31.5451 87.3771 31.5707 86.729ZM63.2279 50.7156C58.8601 50.65 54.4924 50.5705 50.1243 50.527C49.8419 50.5111 49.5592 50.553 49.2934 50.6502C49.0276 50.7474 48.7841 50.8978 48.5776 51.0924C48.3712 51.287 48.2062 51.5217 48.0925 51.7823C47.9788 52.0429 47.9188 52.324 47.9162 52.6086C47.8533 53.6764 47.8367 54.7508 47.8705 55.8198C47.9108 57.0532 48.7491 57.9256 49.9348 57.947C54.2736 58.0247 58.6146 58.0703 62.9544 58.1267C64.0173 58.1482 65.0804 58.1879 66.1431 58.1863C66.4241 58.2002 66.705 58.1569 66.969 58.0589C67.2329 57.9609 67.4745 57.8102 67.6792 57.616C67.8839 57.4217 68.0475 57.1878 68.1601 56.9284C68.2728 56.669 68.3322 56.3893 68.3348 56.1062C68.3974 55.0391 68.4131 53.9658 68.3804 52.8973C68.3406 51.611 67.4542 50.772 66.1644 50.7404C65.1867 50.7163 64.2074 50.7228 63.2279 50.7156ZM62.9574 46.4079C64.0766 46.436 65.1967 46.502 66.315 46.4819C67.5764 46.4593 68.4565 45.5619 68.5125 44.2804C68.5569 43.2668 68.5713 42.2522 68.5557 41.2364C68.5384 39.969 67.7345 39.0825 66.4995 39.0175C65.4106 38.9601 64.317 38.995 63.2256 38.9893C58.8894 38.9261 54.5534 38.8511 50.2172 38.8072C48.9793 38.7946 48.1514 39.6416 48.0826 40.9412C48.0335 41.8683 48.0395 42.8007 48.0355 43.7304C48.0287 45.3344 48.8431 46.2083 50.4398 46.236C54.6123 46.3077 58.7848 46.3525 62.9574 46.4079ZM81.6391 58.3822C82.7855 58.4076 83.9317 58.4553 85.077 58.4523C85.3506 58.4616 85.6233 58.4155 85.879 58.317C86.1346 58.2184 86.3681 58.0693 86.5655 57.8784C86.763 57.6875 86.9204 57.4588 87.0286 57.2057C87.1367 56.9525 87.1933 56.6802 87.1951 56.4047C87.2847 51.3957 87.3559 46.3864 87.4086 41.3768C87.4146 41.1082 87.3676 40.8411 87.2702 40.591C87.1728 40.3408 87.027 40.1127 86.8413 39.9197C86.6556 39.7267 86.4336 39.5728 86.1883 39.4668C85.943 39.3609 85.6792 39.305 85.4122 39.3024C84.2955 39.2538 83.1758 39.2752 82.0577 39.2659C80.463 39.2414 78.8683 39.2045 77.2737 39.1963C75.9731 39.1896 75.1395 39.965 75.1171 41.259C75.0304 46.2432 74.9596 51.2279 74.9046 56.2131C74.8897 56.4893 74.9316 56.7655 75.0276 57.0246C75.1236 57.2837 75.2718 57.52 75.4627 57.7189C75.6537 57.9177 75.8833 58.0748 76.1374 58.1802C76.3914 58.2857 76.6643 58.3373 76.9391 58.3317C78.5046 58.3793 80.0721 58.3679 81.6384 58.3822L81.6391 58.3822ZM58.3391 87.0661C59.4316 87.0816 60.5241 87.0971 61.6164 87.1126C63.6623 87.1417 65.7062 87.1836 67.7511 87.1912C68.7405 87.1948 69.3327 86.5031 69.1069 85.621C68.9053 84.8334 68.2968 84.6297 67.556 84.6201C61.4494 84.5403 55.3428 84.4553 49.2363 84.365C48.1108 84.3491 47.5525 84.7937 47.5587 85.6711C47.5646 86.5235 48.0564 86.9161 49.1794 86.9339C52.2321 86.9822 55.2854 87.0263 58.3391 87.0661ZM85.9411 71.3124C85.9572 70.2692 85.1913 69.5612 84.2993 69.8255C83.6198 70.0269 83.3563 70.5434 83.3081 71.2324C83.1552 73.4134 82.3211 74.2266 80.1555 74.3261C79.178 74.3711 78.1986 74.3683 77.222 74.4309C75.0504 74.5702 73.4924 75.6566 72.5162 77.6023C72.2043 78.2242 72.2458 78.8028 72.7847 79.2838C73.4717 79.8975 74.3305 79.6927 74.8365 78.7246C75.4883 77.4798 76.5237 76.9858 77.8579 76.9817C78.5298 76.9797 79.2025 77.0071 79.8735 76.9852C83.679 76.8605 85.8867 74.7916 85.9402 71.3126L85.9411 71.3124ZM49.3814 73.6932C49.3506 75.864 49.3146 78.0348 49.2914 80.2059C49.2808 81.2025 49.7257 81.784 50.4946 81.8228C51.2941 81.8633 51.833 81.2535 51.8489 80.2449C51.9163 75.9315 51.9776 71.6179 52.0328 67.3043C52.0462 66.2828 51.5545 65.6531 50.7633 65.6344C49.9801 65.6163 49.4916 66.2207 49.4736 67.265C49.4378 69.4076 49.4116 71.5506 49.3814 73.6932ZM79.6975 87.3695C81.6557 87.3973 83.6136 87.431 85.5719 87.4504C86.6458 87.4612 87.1619 87.0297 87.1544 86.1628C87.1476 85.3594 86.6118 84.8992 85.6127 84.8834C81.6965 84.8216 77.7802 84.7659 73.864 84.7165C72.8927 84.7045 72.3315 85.181 72.3108 85.986C72.2904 86.7762 72.8413 87.2632 73.8233 87.2822C75.7807 87.3202 77.739 87.3417 79.6975 87.3695ZM59.2932 75.3051C59.2693 76.9942 59.2385 78.6831 59.2238 80.3728C59.2152 81.3531 59.6791 81.9406 60.4485 81.9658C61.2502 81.9921 61.766 81.391 61.7823 80.372C61.8353 77.0505 61.8825 73.7289 61.9239 70.4073C61.9376 69.344 61.5032 68.7746 60.6817 68.7482C59.8401 68.7211 59.3858 69.2525 59.3654 70.3234C59.3337 71.9832 59.3168 73.6443 59.2932 75.3051ZM64.2062 77.4153C64.1913 78.4587 64.1625 79.5023 64.1659 80.5459C64.1688 81.438 64.6846 82.0226 65.4328 82.0364C66.1731 82.05 66.7134 81.4855 66.7352 80.584C66.7843 78.5256 66.8135 76.4668 66.823 74.4078C66.8271 73.4978 66.3113 72.9275 65.5642 72.9191C64.8107 72.9109 64.283 73.4752 64.2541 74.3695C64.2206 75.383 64.2206 76.3997 64.2062 77.4153ZM52.7268 31.2719C53.6785 31.2855 54.6302 31.3126 55.5821 31.3084C56.4322 31.3047 56.9536 30.8197 56.967 30.0648C56.9804 29.3099 56.4746 28.7782 55.6299 28.756C53.6994 28.7076 51.7682 28.6809 49.8365 28.6759C49.0012 28.6749 48.4932 29.2135 48.5012 29.9798C48.509 30.7409 48.9517 31.1909 49.7878 31.2223C50.7668 31.259 51.7468 31.2555 52.7264 31.271L52.7268 31.2719ZM56.8044 78.4838C56.8141 77.8069 56.8385 77.1296 56.8295 76.4528C56.8187 75.6299 56.3644 75.096 55.6736 75.0493C55.4974 75.0402 55.3213 75.067 55.1557 75.128C54.99 75.1891 54.8384 75.2833 54.7099 75.4048C54.5813 75.5264 54.4785 75.6728 54.4076 75.8353C54.3367 75.9978 54.2992 76.1731 54.2973 76.3506C54.2431 77.7597 54.2231 79.1699 54.2372 80.5812C54.2325 80.7515 54.2616 80.921 54.3228 81.0798C54.3841 81.2386 54.4763 81.3835 54.5939 81.506C54.7115 81.6285 54.8523 81.7261 55.008 81.7931C55.1636 81.8601 55.331 81.8951 55.5003 81.8962C56.1947 81.8992 56.7315 81.3706 56.7683 80.599C56.8015 79.8937 56.7929 79.1883 56.804 78.4829L56.8044 78.4838ZM55.6624 69.3797C55.3255 69.3802 55.0025 69.5144 54.7633 69.7531C54.5242 69.9918 54.3882 70.3158 54.385 70.6548C54.3995 70.9933 54.5437 71.3131 54.7875 71.5469C55.0312 71.7807 55.3555 71.9104 55.6923 71.9088C56.0139 71.8963 56.3185 71.7599 56.5429 71.5278C56.7674 71.2956 56.8946 70.9856 56.8982 70.6617C56.9094 70.4936 56.8854 70.325 56.8278 70.1668C56.7701 70.0086 56.6802 69.8644 56.5636 69.7434C56.4471 69.6224 56.3066 69.5274 56.1513 69.4645C55.996 69.4016 55.8293 69.3721 55.6619 69.3781L55.6624 69.3797Z" fill="#EBF4F9"/>
<path d="M90.0247 35.9803C89.4665 35.9579 88.9079 35.9418 88.3502 35.9113C85.3421 35.7554 83.3885 33.6771 83.4055 30.6438C83.4185 28.3359 83.4436 26.0282 83.4634 23.7204C83.4998 22.086 83.5361 20.4516 83.5724 18.8173C83.639 15.5856 85.6962 13.5806 88.9184 13.6266C91.9162 13.6692 94.9138 13.7256 97.9111 13.7759C98.0293 13.8401 98.1518 13.8961 98.2777 13.9433C99.2848 14.2199 100.17 14.8286 100.793 15.672C101.415 16.5154 101.738 17.5445 101.709 18.5946C101.651 22.8546 101.59 27.1146 101.528 31.3746C101.511 32.5823 101.043 33.5676 100.239 34.4817C99.5823 35.2282 98.6242 35.4286 97.9294 36.0589L93.7151 36.0373L90.0247 35.9803ZM93.3621 24.1063L93.65 24.3193L93.3614 24.4713C90.6874 25.026 88.9122 26.603 88.0953 29.2256C87.687 30.5369 88.0421 30.9955 89.4262 31.0201C92.1689 31.0686 94.9103 31.1019 97.6523 31.1413C98.3776 31.167 99.1027 31.215 99.828 31.2125C100.834 31.2091 101.262 30.7008 101.039 29.6993C100.489 27.2327 99.0018 25.5747 96.6467 24.7074C96.2799 24.5723 95.9011 24.4705 95.4657 24.3322C97.6165 23.435 98.5075 21.5738 97.7367 19.7234C97.5763 19.3212 97.3381 18.955 97.0359 18.6461C96.7338 18.3373 96.3736 18.0919 95.9765 17.9243C95.5793 17.7567 95.1529 17.6701 94.7221 17.6696C94.2914 17.6692 93.8649 17.7548 93.4672 17.9216C92.0846 18.4402 91.3672 19.4997 91.3216 20.9257C91.275 22.4013 92.0089 23.4829 93.3621 24.1063Z" fill="#037397"/>
<path d="M90.0247 35.9803L93.7151 36.0373C93.4665 53.6658 93.2141 71.2942 92.958 88.9223C92.959 89.6785 92.8084 90.4271 92.5154 91.1234C92.2223 91.8197 91.7927 92.4494 91.2523 92.9749C90.7119 93.5004 90.0718 93.9109 89.3702 94.1818C88.6687 94.4527 87.92 94.5785 87.1691 94.5516C86.3846 94.5267 85.5994 94.5262 84.8145 94.5146C85.7955 94.063 86.81 93.7082 87.6082 92.8934C88.1329 92.3886 88.5511 91.7824 88.8375 91.1112C89.124 90.4399 89.2729 89.7175 89.2753 88.987C89.5164 71.3184 89.7662 53.6495 90.0247 35.9803Z" fill="#D0E6F1"/>
<path d="M41.0406 23.2893C41.0103 25.9639 40.9855 28.6385 40.9491 31.313C40.8182 40.7177 40.6901 50.1222 40.5649 59.5266C40.5569 60.2189 40.3942 60.465 39.6838 60.402C38.7386 60.3184 37.7841 60.3383 36.8335 60.3138C36.8631 58.2283 36.8955 56.1427 36.9143 54.0571C36.9169 53.763 37.0422 53.429 36.7409 53.1907C36.9387 52.792 36.9971 52.3378 36.9065 51.9017C37.0102 49.7201 37.0418 47.5377 37.0013 45.3542C37.103 44.9198 37.0562 44.4636 36.8683 44.0594C36.9218 43.9968 37.0208 43.935 37.0219 43.8715C37.056 42.0189 37.0818 40.1663 37.0993 38.3138C37.1002 38.2507 37.0012 38.1868 36.9491 38.1234C37.1509 37.7254 37.2128 37.2703 37.1248 36.8324C37.2199 34.6506 37.2599 32.4671 37.2125 30.284C37.3182 29.8518 37.2745 29.3962 37.0885 28.9924C37.3917 28.7634 37.2764 28.4294 37.2837 28.1369C37.3228 26.4598 37.3459 24.7823 37.3745 23.1048L40.8969 23.1456L41.0406 23.2893Z" fill="#035F80"/>
<path d="M97.9294 36.0589C98.6242 35.4286 99.5823 35.2282 100.239 34.4817C101.043 33.5676 101.511 32.5823 101.528 31.3746C101.59 27.1146 101.651 22.8546 101.709 18.5946C101.738 17.5445 101.415 16.5154 100.793 15.672C100.17 14.8286 99.2848 14.2199 98.2777 13.9433C98.1518 13.8961 98.0293 13.8401 97.9111 13.7759C99.1153 13.7903 100.323 13.7515 101.523 13.8306C103.783 13.9794 105.768 16.1978 105.744 18.5268C105.702 22.7013 105.631 26.8749 105.571 31.0501C105.53 33.9298 103.552 36.005 100.701 36.1155C99.7794 36.151 98.8535 36.0804 97.9294 36.0589Z" fill="#035F80"/>
<path d="M41.0406 23.2893L40.8951 23.1453C40.9426 23.1181 40.9987 23.1107 41.0515 23.1249C41.0677 23.1792 41.0639 23.2376 41.0406 23.2893Z" fill="#30DCE4"/>
<path d="M40.4068 67.8116C40.3274 73.9475 40.2511 80.0833 40.1779 86.219C40.1727 86.696 40.0264 86.8588 39.5503 86.8335C38.518 86.7788 37.4824 86.77 36.4484 86.7424C36.5028 83.0421 36.5559 79.3418 36.6077 75.6415C36.6115 75.3741 36.7106 75.0725 36.4389 74.8605C36.6342 74.4614 36.6887 74.0073 36.5934 73.5729L36.7419 67.6322L40.2617 67.6706L40.4068 67.8116Z" fill="#035F80"/>
<path d="M27.2247 60.3042C25.4168 60.9331 24.456 62.0837 24.3589 63.7294C24.2718 65.2205 25.1734 66.5424 26.795 67.304C24.9093 67.4234 22.9907 67.9168 21.4516 66.1519C19.9065 64.3799 20.5519 61.274 22.7777 60.4619C24.2248 59.9341 25.7317 60.0612 27.2247 60.3042Z" fill="#035F80"/>
<path d="M36.5934 73.574C36.6887 74.0084 36.6342 74.4625 36.4388 74.8616C36.2267 75.0434 35.9809 75.181 35.7156 75.2666C35.4503 75.3521 35.1708 75.3839 34.8932 75.3601C33.0743 75.3076 31.2541 75.3021 29.4346 75.2717C28.369 75.2538 27.7558 74.733 27.796 73.8952C27.8325 73.1289 28.4127 72.6995 29.4202 72.7113C31.2957 72.7335 33.1715 72.7873 35.0471 72.7768C35.7364 72.7726 36.2351 72.9991 36.5934 73.574Z" fill="#EBF4F9"/>
<path d="M36.8683 44.0594C37.0562 44.4636 37.103 44.9198 37.0013 45.3542C36.8361 45.6149 36.6017 45.8241 36.3252 45.9586C36.0486 46.0931 35.7403 46.1475 35.4348 46.1158C33.5335 46.0544 31.63 46.0561 29.7276 46.0202C28.7576 46.0017 28.179 45.4941 28.2093 44.7238C28.2395 43.961 28.8622 43.4505 29.7939 43.4595C31.6965 43.4777 33.5991 43.5253 35.5017 43.5283C36.007 43.5276 36.4948 43.717 36.8683 44.0594Z" fill="#EBF4F9"/>
<path d="M37.123 36.8324C37.211 37.2703 37.1489 37.7253 36.9471 38.1233C36.5146 38.4851 35.958 38.6611 35.3977 38.6134C33.5239 38.5612 31.6489 38.566 29.7751 38.5179C28.69 38.4901 28.0478 37.6073 28.429 36.7162C28.5193 36.4769 28.6844 36.2735 28.8994 36.1366C29.1143 35.9997 29.3676 35.9366 29.6212 35.9569C31.7192 35.9897 33.8174 36.0267 35.9163 36.0432C36.5057 36.0477 36.8142 36.4255 37.123 36.8324Z" fill="#EBF4F9"/>
<path d="M36.9058 51.9017C36.9964 52.3378 36.9381 52.792 36.7402 53.1907C36.3098 53.5551 35.7537 53.7331 35.1933 53.686C33.3197 53.6336 31.4449 53.6366 29.5713 53.5907C28.5172 53.5651 27.8847 52.7578 28.1879 51.879C28.263 51.6188 28.4249 51.3926 28.6465 51.2387C28.868 51.0847 29.1355 51.0124 29.4039 51.0339C31.502 51.058 33.5997 51.1007 35.6977 51.1161C36.287 51.1206 36.5981 51.4927 36.9058 51.9017Z" fill="#EBF4F9"/>
<path d="M37.0867 28.9922C37.2727 29.396 37.3164 29.8518 37.2107 30.284C36.837 30.8482 36.3311 31.0637 35.6442 31.0413C33.7432 30.9794 31.8399 30.9816 29.9377 30.9455C28.9675 30.9272 28.3872 30.4136 28.4235 29.6414C28.4593 28.8798 29.0806 28.3779 30.0155 28.3871C31.918 28.4058 33.8202 28.4534 35.7226 28.4562C36.228 28.4564 36.7149 28.6477 37.0867 28.9922Z" fill="#EBF4F9"/>
<path d="M23.3165 52.2191C23.332 51.4273 23.744 50.994 24.4877 50.9892C24.6559 50.9816 24.8239 51.0078 24.9819 51.066C25.14 51.1243 25.285 51.2135 25.4085 51.3285C25.5321 51.4436 25.6317 51.5822 25.7016 51.7362C25.7716 51.8903 25.8105 52.0568 25.816 52.2261C25.8304 52.782 25.0516 53.5311 24.4729 53.5179C23.8619 53.504 23.3035 52.8767 23.3165 52.2191Z" fill="#035F80"/>
<path d="M23.5313 37.0989C23.5666 36.3208 24.0036 35.9009 24.7542 35.9229C24.9224 35.9225 25.0891 35.9555 25.2447 36.0202C25.4002 36.0848 25.5415 36.1797 25.6604 36.2995C25.7794 36.4192 25.8736 36.5615 25.9378 36.718C26.0019 36.8745 26.0347 37.0423 26.0343 37.2116C26.0137 37.7714 25.1932 38.4974 24.6346 38.4505C24.3178 38.4012 24.0302 38.2361 23.8267 37.9869C23.6233 37.7376 23.5179 37.4212 23.5313 37.0989Z" fill="#035F80"/>
<path d="M23.0091 73.8535C23.0382 73.0728 23.4695 72.6461 24.2147 72.6587C24.5544 72.6543 24.882 72.7857 25.1253 73.0242C25.3687 73.2627 25.508 73.5887 25.5126 73.9305C25.5036 74.4875 24.6942 75.2227 24.1298 75.1871C23.8124 75.1431 23.5224 74.9826 23.3155 74.7364C23.1086 74.4902 22.9995 74.1758 23.0091 73.8535Z" fill="#035F80"/>
<path d="M24.7654 30.8442C24.0012 30.8136 23.5933 30.3234 23.6396 29.4884C23.6697 29.1819 23.8067 28.8961 24.0262 28.6816C24.2457 28.467 24.5336 28.3375 24.8388 28.3161C25.4204 28.3248 26.1702 29.0987 26.1351 29.6535C26.1236 29.8224 26.079 29.9874 26.0038 30.139C25.9286 30.2905 25.8243 30.4255 25.697 30.5362C25.5696 30.6469 25.4217 30.7312 25.2618 30.784C25.1019 30.8369 24.9332 30.8573 24.7654 30.8442Z" fill="#035F80"/>
<path d="M24.5749 45.9118C23.8043 45.8931 23.3891 45.4122 23.425 44.5796C23.4483 44.2722 23.5794 43.9831 23.7948 43.7639C24.0102 43.5447 24.296 43.4096 24.6012 43.3828C25.1747 43.376 25.9448 44.1409 25.9248 44.697C25.9161 44.8662 25.8742 45.032 25.8015 45.1848C25.7288 45.3376 25.6268 45.4744 25.5013 45.5873C25.3758 45.7002 25.2293 45.787 25.0703 45.8427C24.9113 45.8984 24.743 45.9219 24.5749 45.9118Z" fill="#035F80"/>
<path d="M81.6384 58.3822C80.0715 58.3679 78.504 58.3793 76.9393 58.3308C76.6646 58.3364 76.3916 58.2848 76.1376 58.1793C75.8836 58.0739 75.6539 57.9168 75.463 57.718C75.272 57.5191 75.1239 57.2828 75.0279 57.0237C74.9319 56.7646 74.89 56.4884 74.9049 56.2122C74.96 51.2276 75.0308 46.2429 75.1173 41.2581C75.1398 39.9641 75.9734 39.1885 77.2739 39.1954C78.8686 39.2036 80.4633 39.2407 82.0579 39.265C83.1663 39.817 83.5537 40.7745 83.5374 41.9504C83.4741 46.5657 83.4198 51.181 83.3331 55.7943C83.3099 56.9838 82.9122 57.9901 81.6384 58.3822Z" fill="#9857BC"/>
<path d="M62.9574 46.4079C58.7848 46.3525 54.6123 46.3077 50.4398 46.236C48.8431 46.2083 48.0287 45.3344 48.0355 43.7304C48.0395 42.8007 48.0334 41.8692 48.0826 40.9412C48.1514 39.6416 48.9793 38.7946 50.2172 38.8072C54.5534 38.8511 58.8894 38.9261 63.2256 38.9893C64.3859 39.6253 64.6793 40.6416 64.537 41.8894C64.4682 42.5029 64.4595 43.1218 64.5108 43.737C64.6154 45.0118 64.1256 45.9005 62.9574 46.4079Z" fill="#07E39C"/>
<path d="M62.9553 58.1267C58.6162 58.0696 54.2752 58.0247 49.9357 57.947C48.75 57.9256 47.9117 57.0532 47.8715 55.8198C47.8365 54.7508 47.8531 53.6764 47.9171 52.6086C47.9197 52.324 47.9797 52.043 48.0934 51.7823C48.2071 51.5217 48.3721 51.287 48.5786 51.0924C48.785 50.8978 49.0285 50.7474 49.2943 50.6502C49.5601 50.553 49.8428 50.5111 50.1252 50.527C54.4933 50.5705 58.8609 50.6511 63.2288 50.7156C64.469 51.6766 64.4761 53.0161 64.3537 54.4003C64.3156 54.7064 64.3125 55.0159 64.3444 55.3227C64.5234 56.587 63.9817 57.4745 62.9553 58.1267Z" fill="#FD3F97"/>
<path d="M81.6384 58.3822C82.9115 57.99 83.3092 56.9838 83.3315 55.7952C83.4182 51.1803 83.4725 46.5661 83.5358 41.9513C83.5526 40.7749 83.1647 39.819 82.0563 39.2658C83.1745 39.2752 84.2942 39.2537 85.4109 39.3024C85.6779 39.305 85.9417 39.3608 86.187 39.4668C86.4323 39.5728 86.6543 39.7267 86.84 39.9197C87.0257 40.1127 87.1715 40.3408 87.2689 40.591C87.3663 40.8411 87.4133 41.1082 87.4073 41.3768C87.356 46.3864 87.2849 51.3957 87.1938 56.4047C87.192 56.6802 87.1353 56.9525 87.0272 57.2056C86.9191 57.4587 86.7617 57.6875 86.5642 57.8784C86.3668 58.0692 86.1333 58.2184 85.8776 58.317C85.622 58.4155 85.3493 58.4615 85.0757 58.4523C83.931 58.4553 82.7849 58.4075 81.6384 58.3822Z" fill="#8439B5"/>
<path d="M58.3391 87.0661C55.2859 87.0227 52.2326 86.9785 49.1794 86.9339C48.0564 86.9161 47.5646 86.5235 47.5587 85.6711C47.5525 84.7928 48.1108 84.3495 49.2363 84.365C55.3427 84.4489 61.4493 84.534 67.556 84.6201C68.2979 84.6306 68.9053 84.8334 69.1069 85.621C69.3327 86.5031 68.7411 87.1948 67.7511 87.1912C65.7062 87.1836 63.6614 87.141 61.6164 87.1126C60.5235 87.0969 59.431 87.0816 58.3391 87.0661Z" fill="#017297"/>
<path d="M85.9402 71.3126C85.8867 74.7916 83.6801 76.8606 79.872 76.9859C79.2009 77.0078 78.5282 76.9804 77.8563 76.9824C76.5221 76.9861 75.4867 77.4805 74.8349 78.7253C74.328 79.6929 73.4702 79.8977 72.7831 79.2844C72.2449 78.8034 72.2034 78.2249 72.5147 77.603C73.4908 75.6573 75.0489 74.5709 77.2204 74.4315C78.1965 74.3689 79.1776 74.3718 80.154 74.3268C82.3195 74.2272 83.1536 73.4141 83.3065 71.2331C83.3547 70.5441 83.6182 70.0276 84.2977 69.8261C85.1899 69.5614 85.9563 70.2694 85.9402 71.3126Z" fill="#FD5CA7"/>
<path d="M49.3814 73.6932C49.4119 71.5506 49.4373 69.4076 49.4743 67.265C49.4923 66.2208 49.9808 65.6163 50.7639 65.6344C51.5552 65.6529 52.0468 66.2826 52.0334 67.3043C51.9771 71.6179 51.9158 75.9315 51.8496 80.245C51.8337 81.2537 51.2948 81.8633 50.4953 81.8228C49.7263 81.784 49.2815 81.2025 49.292 80.2059C49.3152 78.0348 49.3508 75.864 49.3814 73.6932Z" fill="#04C7DC"/>
<path d="M79.6975 87.3695C77.7395 87.3417 75.7812 87.3206 73.8233 87.2831C72.8413 87.2642 72.2904 86.7771 72.3108 85.987C72.3315 85.1819 72.8927 84.7054 73.864 84.7174C77.7804 84.7658 81.6966 84.8214 85.6127 84.8843C86.6118 84.9001 87.1476 85.3603 87.1544 86.1637C87.1619 87.0307 86.6457 87.4621 85.5719 87.4513C83.6132 87.4308 81.6552 87.3973 79.6975 87.3695Z" fill="#017297"/>
<path d="M59.2932 75.3051C59.3168 73.6443 59.3344 71.9832 59.3663 70.3225C59.3867 69.2516 59.8411 68.7202 60.6826 68.7473C61.5041 68.7737 61.9386 69.3422 61.9248 70.4064C61.882 73.728 61.8348 77.0496 61.7832 80.3711C61.767 81.3892 61.2511 81.9912 60.4494 81.9649C59.68 81.9399 59.2161 81.3522 59.2247 80.3719C59.2381 78.6838 59.2693 76.9942 59.2932 75.3051Z" fill="#037397"/>
<path d="M62.9574 46.4079C64.1256 45.9005 64.6154 45.0118 64.5108 43.737C64.4595 43.1218 64.4682 42.5029 64.537 41.8894C64.6793 40.6416 64.3859 39.6244 63.2256 38.9893C64.317 38.995 65.4106 38.9601 66.4995 39.0175C67.7354 39.0825 68.5384 39.9701 68.5557 41.2364C68.5695 42.2508 68.5551 43.2654 68.5125 44.2804C68.4565 45.5612 67.5764 46.4593 66.315 46.4819C65.1967 46.502 64.0766 46.436 62.9574 46.4079Z" fill="#0DBF7F"/>
<path d="M62.9553 58.1267C63.9815 57.4745 64.5232 56.5877 64.3433 55.3227C64.3114 55.0159 64.3145 54.7064 64.3526 54.4003C64.475 53.0161 64.4681 51.6766 63.2279 50.7156C64.2071 50.7227 65.1865 50.7163 66.1653 50.7404C67.4551 50.7721 68.3415 51.611 68.3813 52.8973C68.414 53.9658 68.3983 55.0391 68.3357 56.1062C68.3331 56.3893 68.2737 56.669 68.161 56.9284C68.0484 57.1878 67.8848 57.4217 67.6801 57.616C67.4754 57.8102 67.2338 57.9609 66.9699 58.0589C66.7059 58.1569 66.425 58.2002 66.144 58.1863C65.0815 58.1879 64.0184 58.1482 62.9553 58.1267Z" fill="#EF1B85"/>
<path d="M64.2062 77.4153C64.2206 76.3997 64.2206 75.3837 64.2533 74.3688C64.2822 73.4745 64.8098 72.9102 65.5633 72.9184C66.3104 72.9265 66.8262 73.4969 66.8221 74.4071C66.8131 76.4662 66.7838 78.5249 66.7343 80.5833C66.7128 81.4848 66.1725 82.0494 65.4319 82.0357C64.6829 82.0219 64.1679 81.4373 64.1651 80.5453C64.1621 79.5021 64.1913 78.4587 64.2062 77.4153Z" fill="#035F80"/>
<path d="M52.7264 31.2701C51.7468 31.2562 50.7666 31.259 49.7878 31.2223C48.9508 31.1909 48.5081 30.7409 48.5012 29.9798C48.4932 29.2135 49.0012 28.6749 49.8365 28.6759C51.7677 28.678 53.6988 28.7047 55.6299 28.756C56.4746 28.7773 56.9804 29.309 56.967 30.0648C56.9536 30.8206 56.4322 31.3047 55.5821 31.3084C54.6298 31.3116 53.678 31.2845 52.7264 31.2701Z" fill="#30DCE4"/>
<path d="M56.8033 78.4829C56.7933 79.1883 56.8015 79.8944 56.7679 80.5983C56.731 81.3699 56.1942 81.8986 55.4998 81.8955C55.3305 81.8944 55.1632 81.8594 55.0075 81.7924C54.8519 81.7254 54.7111 81.6278 54.5935 81.5053C54.4758 81.3828 54.3837 81.2379 54.3224 81.0791C54.2612 80.9203 54.232 80.7508 54.2368 80.5805C54.2246 79.1704 54.2446 77.7602 54.2969 76.3499C54.2988 76.1724 54.3363 75.9972 54.4072 75.8346C54.4781 75.6721 54.5809 75.5257 54.7094 75.4041C54.838 75.2826 54.9896 75.1884 55.1552 75.1274C55.3208 75.0663 55.497 75.0395 55.6731 75.0486C56.3639 75.0953 56.8178 75.6292 56.829 76.4522C56.8387 77.1287 56.8136 77.806 56.8033 78.4829Z" fill="#017297"/>
<path d="M55.6619 69.3781C55.829 69.3723 55.9955 69.4018 56.1506 69.4647C56.3056 69.5276 56.4459 69.6225 56.5623 69.7433C56.6786 69.8641 56.7686 70.0081 56.8263 70.166C56.8839 70.3239 56.9081 70.4922 56.8971 70.6601C56.8935 70.984 56.7663 71.294 56.5418 71.5262C56.3174 71.7583 56.0128 71.8947 55.6912 71.9072C55.3544 71.9089 55.0301 71.7792 54.7864 71.5453C54.5426 71.3115 54.3984 70.9917 54.3839 70.6532C54.3871 70.3141 54.5231 69.99 54.7624 69.7513C55.0018 69.5126 55.325 69.3785 55.6619 69.3781Z" fill="#017297"/>
<path d="M40.4068 67.8116L40.2617 67.6718C40.3728 67.6525 40.4171 67.7034 40.4068 67.8116Z" fill="#30DCE4"/>
<path d="M97.6523 31.1413C94.9094 31.1023 92.168 31.0686 89.4262 31.0201C88.0421 30.9955 87.687 30.5369 88.0953 29.2256C88.9122 26.603 90.6874 25.026 93.3614 24.4713C93.4275 24.658 93.5985 24.6836 93.7551 24.746C94.8346 25.1758 95.8405 25.761 96.5266 26.706C97.4754 28.0125 98.5046 29.3499 97.6523 31.1413Z" fill="#CEE6F1"/>
<path d="M97.6523 31.1413C98.5046 29.3499 97.4754 28.0125 96.5266 26.706C95.8405 25.761 94.8346 25.1758 93.7551 24.746C93.5985 24.6836 93.4275 24.658 93.3614 24.4713C93.4574 24.4205 93.5537 24.37 93.65 24.3193C93.5539 24.2482 93.4579 24.1774 93.3621 24.1063C93.4486 24.0018 93.5474 23.9079 93.6563 23.8272C94.9442 23.0936 95.9362 20.9811 94.7418 19.234C94.4024 18.7375 93.8973 18.3558 93.4681 17.9216C93.8658 17.7548 94.2923 17.6692 94.7231 17.6696C95.1538 17.6701 95.5801 17.7567 95.9773 17.9243C96.3745 18.0919 96.7347 18.3373 97.0369 18.6462C97.339 18.955 97.5772 19.3212 97.7376 19.7234C98.5084 21.5738 97.6174 23.4343 95.4666 24.3322C95.902 24.4694 96.2808 24.5723 96.6476 24.7074C99.0027 25.5756 100.491 27.2328 101.04 29.6993C101.263 30.7008 100.835 31.2091 99.8289 31.2125C99.1027 31.215 98.3776 31.167 97.6523 31.1413Z" fill="#B2D5E8"/>
<path d="M93.4681 17.9216C93.8973 18.3558 94.4024 18.7375 94.7418 19.234C95.9362 20.9811 94.9442 23.0936 93.6563 23.8272C93.5474 23.9079 93.4486 24.0018 93.3621 24.1063C92.0089 23.4832 91.275 22.402 91.3225 20.9257C91.3681 19.4997 92.0855 18.4393 93.4681 17.9216Z" fill="#CEE6F1"/>
<path d="M101.822 16.5941L87.3838 16.389L87.159 32.2157L101.597 32.4208L101.822 16.5941Z" fill="#017297"/>
<path d="M92.845 22.0706C93.0112 21.6318 93.2365 21.218 93.5146 20.8408C93.6621 20.6518 93.8224 20.4733 93.9944 20.3066C94.8244 19.4965 95.6576 18.6897 96.4838 17.8755C97.2058 17.1448 98.1579 16.6896 99.1767 16.588C99.2033 16.5852 99.2314 16.5865 99.2446 16.5566L99.3751 16.5584C99.5662 16.6146 99.7689 16.6175 99.9616 16.5667L100.092 16.5686C100.249 16.6194 100.411 16.6543 100.575 16.6725C101.407 16.8573 102.164 17.287 102.752 17.9068C102.603 18.0793 102.443 18.242 102.273 18.3938C101.858 18.8081 101.441 19.2192 101.024 19.6317C100.834 19.4368 100.606 19.2832 100.355 19.1802C100.103 19.0771 99.8336 19.0269 99.5622 19.0325C99.2907 19.0381 99.0233 19.0995 98.7762 19.2128C98.5292 19.3262 98.3077 19.4891 98.1255 19.6916C97.6499 20.1994 97.1323 20.6673 96.6351 21.1544C96.3129 21.47 95.9931 21.7884 95.6722 22.1056C95.4857 22.282 95.3357 22.4937 95.2308 22.7287C95.126 22.9636 95.0683 23.2171 95.0612 23.4746C95.0541 23.732 95.0977 23.9883 95.1895 24.2287C95.2813 24.4691 95.4195 24.6889 95.596 24.8753C95.5981 24.8855 95.601 24.8955 95.6046 24.9053C95.0682 25.4337 94.5319 25.9623 93.9958 26.4911C93.9502 26.5357 93.889 26.5697 93.8848 26.6447C93.8721 26.6353 93.8599 26.6252 93.8484 26.6143C93.3842 26.1216 93.0313 25.5339 92.8137 24.8912C92.7141 24.5361 92.6491 24.172 92.6198 23.8041C92.5926 23.2175 92.6688 22.6306 92.845 22.0706Z" fill="#FED301"/>
<path d="M92.845 22.0706C92.6691 22.6308 92.5932 23.2178 92.6207 23.8046C92.65 24.1724 92.7149 24.5365 92.8146 24.8917C91.985 25.6996 91.1554 26.5076 90.3257 27.3155C89.4622 28.1564 89.4203 29.3111 90.2213 30.2021C90.1468 30.2037 90.1098 30.2634 90.0642 30.3078C89.5715 30.7883 89.079 31.2694 88.5867 31.7511C88.5411 31.7957 88.5045 31.8558 88.4279 31.8529C87.7518 31.1555 87.3304 30.2482 87.2322 29.2789C87.2296 29.2522 87.2309 29.2241 87.2007 29.2106L87.2142 28.2604C87.2639 28.1479 87.2927 28.0272 87.2991 27.9043C87.4718 27.0585 87.8917 26.2839 88.505 25.6799C89.425 24.7743 90.3459 23.8693 91.2778 22.9763C91.7207 22.5526 92.2581 22.242 92.845 22.0706Z" fill="#EDF5FA"/>
<path d="M99.962 16.5677C99.7694 16.6184 99.5666 16.6156 99.3755 16.5593L99.962 16.5677Z" fill="#FEDD39"/>
<path d="M88.4286 31.8534C88.5045 31.8562 88.5418 31.7957 88.5874 31.7515C89.0804 31.2708 89.5729 30.7897 90.0648 30.3082C90.1104 30.2636 90.1475 30.2042 90.2219 30.2025C90.4146 30.3891 90.6424 30.5349 90.8921 30.6313C91.1417 30.7278 91.408 30.7729 91.6752 30.7641C91.9425 30.7552 92.2053 30.6925 92.448 30.5798C92.6908 30.467 92.9087 30.3064 93.0888 30.1075C93.8835 29.2856 94.7205 28.5046 95.5389 27.7057C95.5618 27.6915 95.5833 27.6753 95.6033 27.6573C95.8221 27.4359 95.9848 27.1647 96.0775 26.8667C96.1703 26.5687 96.1904 26.2526 96.1362 25.9451C96.083 25.5478 95.8959 25.1809 95.6061 24.9058C95.6025 24.8959 95.5996 24.8858 95.5976 24.8756C95.6251 24.8585 95.6513 24.8395 95.676 24.8185C96.2061 24.3011 96.7356 23.7831 97.2647 23.2646C97.2894 23.2366 97.3118 23.2067 97.3316 23.175C97.3762 23.1945 97.4142 23.2265 97.4412 23.2671C97.8745 23.7376 98.1992 24.2985 98.3922 24.9098C98.4035 24.9573 98.4133 25.0052 98.426 25.052C98.5885 25.6413 98.6321 26.2574 98.5543 26.864C98.5181 27.1627 98.4221 27.4455 98.3671 27.7384C98.073 28.51 97.5977 29.1986 96.9817 29.7453C96.2296 30.4551 95.4925 31.1814 94.7578 31.9098C94.0671 32.6227 93.1563 33.0784 92.1746 33.2022C91.5008 33.2988 90.8139 33.2332 90.1703 33.0107C89.5267 32.7883 88.9448 32.4153 88.4723 31.9225C88.4551 31.9013 88.4404 31.8781 88.4286 31.8534Z" fill="#D0E7F2"/>
<path d="M98.3664 27.7382C98.4214 27.4448 98.5174 27.1624 98.5536 26.8638C98.6315 26.2572 98.5878 25.641 98.4253 25.0517C98.4122 25.0049 98.4028 24.957 98.3916 24.9096C99.2676 24.0549 100.152 23.2083 101.016 22.3422C101.217 22.1415 101.369 21.8967 101.46 21.6271C101.551 21.3575 101.579 21.0704 101.541 20.7883C101.494 20.3584 101.313 19.9543 101.025 19.6333C101.442 19.2208 101.859 18.8097 102.274 18.3954C102.444 18.2436 102.604 18.0809 102.753 17.9084C103.179 18.3083 103.502 18.8054 103.697 19.3576C104.33 21.1291 104.033 22.7373 102.737 24.1008C101.834 25.051 100.87 25.9441 99.9203 26.8481C99.4786 27.263 98.9464 27.5678 98.3664 27.7382Z" fill="#FE9F01"/>
<path d="M95.5383 27.7053C94.912 27.4882 94.3458 27.1251 93.8857 26.6456C93.8899 26.5706 93.9518 26.5364 93.9967 26.492C94.5322 25.9629 95.0685 25.4343 95.6055 24.9062C95.8952 25.1814 96.0823 25.5483 96.1356 25.9456C96.1898 26.253 96.1696 26.5691 96.0769 26.8671C95.9841 27.1651 95.8214 27.4363 95.6026 27.6577C95.5826 27.6754 95.561 27.6913 95.5383 27.7053Z" fill="#FD9F01"/>
<path d="M95.6731 22.1065C96.3063 22.3162 96.8766 22.6835 97.331 23.1743C97.3111 23.206 97.2888 23.2359 97.2641 23.2639C96.7353 23.7826 96.2057 24.3005 95.6753 24.8178C95.6506 24.8388 95.6244 24.8579 95.5969 24.8749C95.4206 24.6885 95.2826 24.4688 95.1909 24.2286C95.0992 23.9883 95.0556 23.7321 95.0627 23.4748C95.0698 23.2175 95.1274 22.9642 95.2321 22.7293C95.3369 22.4945 95.4868 22.2828 95.6731 22.1065Z" fill="#EDF5FA"/>
<path d="M60.5455 28.4581L46.4245 28.2575L46.3765 31.6365L60.4975 31.8372L60.5455 28.4581Z" fill="#EDF5FA"/>
<path d="M47.8736 29.1822C47.8697 29.4561 47.8037 29.7066 47.6755 29.9338C47.5474 30.1566 47.3529 30.3357 47.0921 30.4712C46.8314 30.6067 46.5091 30.6718 46.1254 30.6663L45.4159 30.6562L45.3918 32.3534L44.2473 32.3372L44.3145 27.6092L46.1684 27.6355C46.5432 27.6409 46.8591 27.7105 47.1161 27.8444C47.373 27.9782 47.5646 28.1606 47.6907 28.3914C47.8168 28.6223 47.8778 28.8858 47.8736 29.1822ZM46.0514 29.7491C46.27 29.7522 46.4336 29.7029 46.5422 29.6011C46.6507 29.4994 46.7063 29.3542 46.709 29.1656C46.7117 28.9771 46.6602 28.8304 46.5546 28.7256C46.449 28.6208 46.2868 28.5668 46.0682 28.5637L45.4458 28.5549L45.4289 29.7403L46.0514 29.7491Z" fill="#025F80"/>
<path d="M50.6453 32.4752C50.2036 32.469 49.799 32.3599 49.4316 32.1481C49.0686 31.9364 48.7804 31.6449 48.567 31.2736C48.3582 30.8979 48.257 30.4788 48.2636 30.0163C48.2701 29.5538 48.3831 29.14 48.6025 28.7749C48.8264 28.4098 49.1228 28.1266 49.4916 27.9253C49.8649 27.724 50.2724 27.6265 50.7141 27.6328C51.1558 27.639 51.5582 27.748 51.9211 27.9598C52.2885 28.1716 52.5745 28.4631 52.779 28.8342C52.9879 29.2054 53.0891 29.6223 53.0825 30.0848C53.076 30.5472 52.963 30.9633 52.7435 31.3329C52.5241 31.6981 52.23 31.9813 51.8611 32.1826C51.4923 32.384 51.087 32.4815 50.6453 32.4752ZM50.6602 31.4246C51.035 31.4299 51.3358 31.3084 51.5625 31.0602C51.7936 30.8119 51.9121 30.4813 51.918 30.0682C51.9239 29.6506 51.8148 29.3168 51.5908 29.0666C51.3712 28.812 51.0741 28.682 50.6993 28.6767C50.32 28.6713 50.0148 28.7905 49.7838 29.0342C49.5571 29.278 49.4408 29.6109 49.4349 30.0329C49.4289 30.4505 49.5357 30.7866 49.7552 31.0412C49.9793 31.2914 50.281 31.4192 50.6602 31.4246Z" fill="#025F80"/>
<path d="M56.0816 32.5053L55.1298 30.7066L54.8554 30.7028L54.83 32.4875L53.6855 32.4713L53.7527 27.7433L55.6736 27.7706C56.0439 27.7758 56.3576 27.8454 56.6145 27.9793C56.8759 28.1133 57.0697 28.2956 57.1958 28.5265C57.322 28.7528 57.3832 29.0052 57.3792 29.2835C57.3748 29.5978 57.2815 29.8772 57.0995 30.1216C56.922 30.3661 56.6607 30.5375 56.3157 30.6359L57.3734 32.5237L56.0816 32.5053ZM54.8669 29.8878L55.5764 29.8979C55.7861 29.9009 55.943 29.8515 56.0471 29.7496C56.1557 29.6479 56.2113 29.5027 56.214 29.3141C56.2165 29.1345 56.165 28.9924 56.0594 28.8876C55.9582 28.7828 55.8028 28.729 55.593 28.726L54.8836 28.7159L54.8669 29.8878Z" fill="#025F80"/>
<path d="M61.4988 27.8533L61.4857 28.776L60.2408 28.7583L60.1867 32.5636L59.0422 32.5474L59.0963 28.7421L57.8514 28.7244L57.8645 27.8017L61.4988 27.8533Z" fill="#025F80"/>
<path d="M65.1319 27.9049L65.1188 28.8276L63.2046 28.8004L63.1904 29.7972L64.6227 29.8176L64.61 30.7133L63.1777 30.693L63.1505 32.6057L62.006 32.5895L62.0732 27.8615L65.1319 27.9049Z" fill="#025F80"/>
<path d="M67.8877 32.7202C67.4459 32.7139 67.0414 32.6049 66.674 32.3931C66.311 32.1813 66.0228 31.8898 65.8094 31.5185C65.6005 31.1428 65.4994 30.7237 65.5059 30.2613C65.5125 29.7988 65.6255 29.385 65.8449 29.0198C66.0688 28.6548 66.3651 28.3716 66.7339 28.1702C67.1072 27.9689 67.5147 27.8714 67.9565 27.8777C68.3982 27.884 68.8006 27.993 69.1635 28.2047C69.5309 28.4165 69.8169 28.708 70.0214 29.0792C70.2303 29.4504 70.3315 29.8672 70.3249 30.3297C70.3184 30.7922 70.2053 31.2082 69.9859 31.5779C69.7665 31.943 69.4723 32.2262 69.1035 32.4276C68.7347 32.6289 68.3294 32.7265 67.8877 32.7202ZM67.9026 31.6695C68.2774 31.6748 68.5782 31.5534 68.8048 31.3051C69.036 31.0569 69.1545 30.7263 69.1603 30.3132C69.1663 29.8956 69.0572 29.5617 68.8332 29.3115C68.6136 29.0569 68.3165 28.927 67.9416 28.9216C67.5624 28.9162 67.2572 29.0354 67.0261 29.2791C66.7995 29.5229 66.6832 29.8558 66.6772 30.2779C66.6713 30.6955 66.7781 31.0316 66.9976 31.2862C67.2217 31.5363 67.5233 31.6641 67.9026 31.6695Z" fill="#025F80"/>
<path d="M72.085 31.8435L73.5843 31.8648L73.5716 32.7538L70.9279 32.7162L70.995 27.9882L72.1396 28.0045L72.085 31.8435Z" fill="#025F80"/>
<path d="M75.3292 28.0498L75.262 32.7778L74.1175 32.7615L74.1847 28.0336L75.3292 28.0498Z" fill="#025F80"/>
<path d="M78.3129 32.8683C77.8711 32.862 77.4665 32.753 77.0991 32.5412C76.7362 32.3294 76.448 32.0379 76.2346 31.6666C76.0257 31.2909 75.9245 30.8718 75.9311 30.4094C75.9377 29.9469 76.0507 29.5331 76.2701 29.1679C76.494 28.8029 76.7903 28.5197 77.1591 28.3183C77.5324 28.117 77.9399 28.0195 78.3816 28.0258C78.8234 28.0321 79.2257 28.1411 79.5887 28.3528C79.9561 28.5646 80.2421 28.8561 80.4465 29.2273C80.6555 29.5985 80.7567 30.0153 80.7501 30.4778C80.7435 30.9403 80.6305 31.3563 80.411 31.726C80.1916 32.0911 79.8975 32.3743 79.5287 32.5757C79.1599 32.777 78.7546 32.8746 78.3129 32.8683ZM78.3278 31.8176C78.7026 31.823 79.0033 31.7015 79.23 31.4532C79.4611 31.205 79.5796 30.8744 79.5855 30.4613C79.5914 30.0437 79.4824 29.7098 79.2583 29.4596C79.0388 29.205 78.7416 29.0751 78.3668 29.0697C77.9875 29.0644 77.6824 29.1835 77.4513 29.4272C77.2247 29.671 77.1084 30.0039 77.1024 30.426C77.0965 30.8436 77.2033 31.1797 77.4228 31.4343C77.6468 31.6845 77.9485 31.8122 78.3278 31.8176Z" fill="#025F80"/>
<path d="M71.5363 65.4191L85.99 65.6244L85.7354 83.547L71.2817 83.3417L71.5363 65.4191Z" fill="#EBF4F9"/>
<path d="M84.846 68.1569L84.288 70.0912L74.3742 69.9504L74.9397 68.0162L84.846 68.1569ZM79.7 79.5593L74.559 73.2444L74.5749 71.5989L77.1598 71.6357C77.7774 71.6444 78.2944 71.5505 78.7106 71.3537C79.132 71.1522 79.4523 70.8676 79.6718 70.5001C79.8962 70.1277 80.0121 69.6895 80.0192 69.1855C80.03 68.4295 79.8145 67.8186 79.3727 67.3527C78.931 66.8868 78.2171 66.6468 77.2309 66.6328L74.4219 66.5929L75.0371 64.311L77.2635 64.3426C78.5186 64.3605 79.5543 64.5679 80.3706 64.965C81.192 65.3572 81.8019 65.9046 82.2004 66.6071C82.6039 67.3096 82.799 68.1278 82.7858 69.0617C82.774 69.8868 82.6117 70.6209 82.2987 71.2639C81.9856 71.9068 81.5 72.4312 80.8416 72.837C80.1833 73.2428 79.3252 73.5073 78.2673 73.6307L78.1772 73.6591L82.8172 79.4701L82.8153 79.6035L79.7 79.5593ZM84.9136 64.4513L84.3402 66.4151L76.302 66.2712L76.875 64.3371L84.9136 64.4513Z" fill="#EF1B85"/>
</svg>
