<svg width="82" height="156" viewBox="0 0 82 156" fill="none" xmlns="http://www.w3.org/2000/svg">
<path d="M46.7423 22.2111C47.778 22.2111 48.6173 21.3718 48.6173 20.3361C48.6173 19.3004 47.778 18.4611 46.7423 18.4611H34.1352C33.0995 18.4611 32.2602 19.3004 32.2602 20.3361C32.2602 21.3718 33.0995 22.2111 34.1352 22.2111H37.7423C38.9376 22.201 40.0593 22.787 40.7334 23.7736H34.1352C33.0995 23.7736 32.2602 24.6129 32.2602 25.6486C32.2602 26.6843 33.0995 27.5236 34.1352 27.5236H40.7334C40.1955 28.6854 39.0225 29.4198 37.7435 29.3986H34.1352C33.3718 29.3819 32.6787 29.8395 32.3918 30.547C32.1061 31.2546 32.2869 32.066 32.8472 32.585L41.8641 41.0973C42.6196 41.8082 43.8072 41.7725 44.5192 41.018C45.2302 40.2636 45.1944 39.0749 44.44 38.364L38.7737 32.9343C40.1933 32.7178 41.5192 32.0905 42.5863 31.1285C43.6544 30.1664 44.4155 28.9131 44.7782 27.5236H46.7425C47.7782 27.5236 48.6175 26.6843 48.6175 25.6486C48.6175 24.6129 47.7782 23.7736 46.7425 23.7736H44.7805C44.6242 23.4611 44.3965 22.8361 44.1086 22.2111L46.7423 22.2111Z" fill="black" fill-opacity="0.54"/>
<path d="M34.9166 124.259L33.6856 123.915C27.5719 122.161 20.9881 123.405 15.9356 127.27L15.5963 125.361C15.5103 124.871 15.2336 124.434 14.8262 124.149C14.4188 123.863 13.9144 123.75 13.4233 123.837L1.55271 125.913C1.06276 125.999 0.626367 126.276 0.340653 126.682C0.0549385 127.089 -0.057779 127.593 0.0281353 128.083L4.58385 154.13V154.131C4.66867 154.621 4.94545 155.057 5.35282 155.343C5.76019 155.628 6.26465 155.741 6.75459 155.654L18.624 153.578C19.6441 153.4 20.326 152.428 20.1475 151.409L19.96 150.327L22.5403 148.233V148.232C23.5414 147.4 24.8271 146.988 26.1252 147.085L45.4812 148.5C45.5225 148.503 45.5649 148.505 45.6062 148.505H45.6073C50.009 148.521 54.3016 147.132 57.8573 144.536C57.9287 144.483 57.9968 144.426 58.0593 144.364L81.115 121.789C81.8248 121.095 81.8695 119.969 81.2199 119.22C79.8695 117.661 77.9699 116.681 75.9165 116.484C73.8631 116.288 71.8116 116.889 70.1899 118.165L59.9199 125.845C57.6253 123.25 54.1476 122.032 50.7348 122.629L42.0873 124.145V117.837H44.0047C48.795 117.853 53.3942 115.96 56.787 112.578C60.1799 109.197 62.0873 104.603 62.0873 99.8124V95.9376C62.0951 95.4465 61.9054 94.9733 61.5594 94.625C61.2134 94.2768 60.7413 94.0826 60.2514 94.0871H56.3765C50.5251 94.0871 45.2125 96.8494 42.0874 101.163V85.6497H44.0048C48.797 85.6575 53.3976 83.759 56.7905 80.3728C60.1822 76.9857 62.0885 72.3885 62.0873 67.5948V63.72C62.094 63.2322 61.9021 62.7635 61.5561 62.4197C61.2101 62.076 60.7391 61.8885 60.2514 61.8996H56.3765C50.5251 61.8996 45.2125 64.6318 42.0874 68.9454V60.0805C57.7125 59.2646 70.5471 46.1096 70.5471 30.0576C70.546 22.2094 67.4768 14.6725 61.9934 9.05878C56.5103 3.44392 49.0491 0.195919 41.2031 0.0084907C33.3583 -0.177892 25.75 2.71049 20.0057 8.05763C14.2622 13.4048 10.8371 20.7865 10.4622 28.6256C10.0884 36.4639 12.7948 44.1391 18.0037 50.0096C23.2122 55.8791 30.5094 59.4796 38.3374 60.0408V68.9225C37.7124 68.2707 37.2481 67.6457 36.6533 67.0564V67.0553C33.3118 63.7273 28.785 61.8622 24.0684 61.8722C24.0126 61.8722 23.9367 61.9001 23.8809 61.9001H20.006C18.9703 61.9001 18.0261 62.6847 18.0261 63.7193V67.5941C18.025 77.5876 26.2593 85.6499 36.2516 85.6499H38.3375V101.14C37.7125 100.488 37.2482 99.8619 36.6533 99.2727C33.3131 95.9401 28.7873 94.0707 24.0685 94.0741C24.0127 94.0741 23.9368 94.0875 23.881 94.0875H20.0061C18.9548 94.0674 18.0776 94.8866 18.0251 95.9368V99.8117C18.0251 109.806 26.2594 117.837 36.2517 117.837H38.3376V124.677C37.1825 124.717 36.0285 124.576 34.9168 124.259L34.9166 124.259ZM7.95231 151.637L4.04374 129.284L12.2189 127.854L16.1297 150.208L7.95231 151.637ZM51.338 126.319C52.6595 126.091 54.0199 126.288 55.222 126.885C56.424 127.482 57.4039 128.447 58.02 129.639L42.3549 132.379C41.3348 132.557 40.6518 133.528 40.8303 134.548C41.0089 135.568 41.981 136.251 43.0011 136.073L60.7934 132.96C61.8135 132.781 62.4954 131.81 62.3168 130.79C62.2141 130.205 62.0601 129.632 61.8559 129.075L72.4519 121.15C72.4653 121.14 72.4787 121.13 72.491 121.118C73.1148 120.624 73.8637 120.314 74.6539 120.222C75.4441 120.131 76.2443 120.26 76.9641 120.597L55.531 141.562L55.5321 141.563C52.6727 143.611 49.2441 144.711 45.7276 144.712H45.6896L26.3973 143.323C24.1373 143.155 21.9007 143.873 20.1596 145.323L19.2176 146.093L16.6775 131.569C18.7411 129.541 21.3069 128.098 24.1106 127.387C26.9153 126.676 29.8583 126.723 32.6386 127.521L33.8495 127.865C36.0169 128.479 38.2938 128.597 40.5124 128.213L51.338 126.319ZM56.376 97.8371H58.3381V99.8126C58.3392 103.609 56.8269 107.249 54.1372 109.927C51.4475 112.606 47.8012 114.104 44.0055 114.087H42.0881V112.184C42.0747 108.385 43.5736 104.737 46.2544 102.045C48.9341 99.3528 52.577 97.8394 56.3761 97.8371L56.376 97.8371ZM56.376 65.6485H58.3381V67.5939C58.3403 71.393 56.8292 75.037 54.1407 77.721C51.4509 80.4051 47.8047 81.9073 44.0055 81.8984H42.0881V79.9643C42.0758 76.1686 43.5758 72.5246 46.2567 69.8383C48.9386 67.1508 52.5804 65.644 56.3761 65.6486L56.376 65.6485ZM42.088 52.8294C46.8592 52.4879 51.4017 50.6508 55.0692 47.5794L57.5312 50.0415L57.5301 50.0403C53.203 53.7569 47.7813 55.9601 42.0881 56.3126L42.088 52.8294ZM40.4407 49.1451C35.3781 49.1451 30.5233 47.1339 26.943 43.5537C23.3627 39.9745 21.3516 35.1185 21.3516 30.056C21.3516 24.9934 23.3627 20.1385 26.943 16.5582C30.5221 12.978 35.3773 10.9668 40.4407 10.9668C45.5033 10.9668 50.3582 12.978 53.9384 16.5571C57.5187 20.1374 59.5299 24.9922 59.5299 30.0548C59.5243 35.1162 57.5109 39.9677 53.9327 43.5471C50.3536 47.1263 45.5019 49.1397 40.4404 49.1454L40.4407 49.1451ZM55.1773 12.6251C51.493 9.49796 46.9084 7.62624 42.0881 7.28139V3.7971C47.8304 4.15424 53.2947 6.39085 57.6384 10.1631L55.1773 12.6251ZM38.3379 7.31596C33.6124 7.75122 29.1413 9.65413 25.5521 12.758L23.0901 10.2959C27.3401 6.54933 32.6895 4.28133 38.3378 3.83162L38.3379 7.31596ZM22.917 15.4265C19.8333 19.1074 17.9941 23.67 17.6636 28.46H14.1793C14.523 22.748 16.7273 17.306 20.4561 12.9645L22.917 15.4265ZM17.7061 32.21C18.1436 36.8482 19.9963 41.2391 23.0107 44.7903L20.5487 47.2523H20.5498C16.8923 43.0392 14.6758 37.77 14.2218 32.21L17.7061 32.21ZM25.6604 47.4454C29.233 50.4945 33.6616 52.3628 38.3379 52.7925V56.2768C32.7384 55.8315 27.4316 53.5982 23.1984 49.9062L25.6604 47.4454ZM60.2004 47.4052L57.7384 44.9432C60.8309 41.3672 62.7318 36.9163 63.1758 32.21H66.6601C66.2003 37.8394 63.9346 43.1686 60.2004 47.4054L60.2004 47.4052ZM66.7027 28.4598H63.2184C62.8825 23.6004 60.9941 18.9775 57.8321 15.2724L60.2942 12.8103C64.1022 17.1752 66.3556 22.6786 66.7028 28.4597L66.7027 28.4598ZM21.777 67.5912V65.6459H23.902C27.7157 65.6292 31.3786 67.128 34.0863 69.8133C36.7939 72.4986 38.324 76.1493 38.3397 79.9619V81.8961H36.2538C28.3298 81.8961 21.7772 75.5166 21.7772 67.5915L21.777 67.5912ZM21.777 99.8112V97.8347H23.902C27.7177 97.8246 31.3831 99.3302 34.0894 102.02C36.797 104.71 38.3249 108.365 38.3394 112.182V114.084H36.2535C28.3295 114.084 21.7769 107.735 21.7769 99.8099L21.777 99.8112Z" fill="black" fill-opacity="0.54"/>
</svg>
