<svg width="151" height="83" viewBox="0 0 151 83" fill="none" xmlns="http://www.w3.org/2000/svg">
<path d="M149.385 63.3549L127.365 38.1775C127.428 37.9576 127.501 37.7411 127.501 37.5V2.5C127.501 1.11943 126.381 0 125.001 0H85.0008C83.6202 0 82.5008 1.11943 82.5008 2.5V18.4777L58.5488 15.2846C58.0465 15.048 57.5108 14.9654 56.9885 15.077L37.8299 12.5223C36.9605 12.4062 36.0721 12.7645 35.5264 13.4654L0.52637 58.4654C0.00739823 59.1317 -0.138801 60.0167 0.136856 60.8147C0.412525 61.6138 1.07323 62.2199 1.89354 62.4252L81.8935 82.4252C82.0978 82.4754 82.3009 82.5 82.5018 82.5C83.4013 82.5 84.2507 82.0145 84.6971 81.1964L92.2017 67.4398C92.3044 67.4521 92.3948 67.5001 92.5019 67.5001H147.502C148.482 67.5001 149.374 66.9265 149.779 66.0325C150.184 65.1407 150.03 64.0927 149.385 63.355L149.385 63.3549ZM122.502 5.0006V12.5006H87.5018V5.0006H122.502ZM87.5018 19.1377V17.5005H122.502V32.6222L114.395 23.3665C114.393 23.3653 114.392 23.3642 114.391 23.362L114.383 23.3531C114.379 23.3475 114.372 23.3453 114.368 23.3397C114.195 23.1444 113.986 22.9903 113.763 22.8586C113.707 22.8252 113.652 22.795 113.594 22.7671C113.356 22.6499 113.104 22.5573 112.834 22.5216L87.5018 19.1377ZM111.34 62.5006L102.295 48.9337L104.993 43.9895L119.801 62.5006H111.34ZM92.0063 57.352L74.1638 53.784L82.4238 41.6892L99.0386 44.4581L92.0063 57.352ZM43.8378 67.7583L53.4326 54.736L65.7729 57.2037L56.418 70.9022L43.8378 67.7583ZM26.726 63.4803L35.7718 51.2046L48.0183 53.6544L38.592 66.4478L26.726 63.4803ZM27.0843 32.466C27.0865 32.466 27.0876 32.4671 27.0888 32.4683L41.5865 34.8845L33.6322 45.6791L19.0719 42.7674L27.0843 32.466ZM47.1189 35.8063L59.6334 37.8923L51.2932 49.2114L39.0466 46.7616L47.1189 35.8063ZM71.3197 22.0317L62.9603 33.3766L50.4457 31.2907L58.5249 20.3252L71.3197 22.0317ZM88.2529 24.2895L80.0966 36.2327L68.4929 34.2985L76.976 22.7851L88.2529 24.2895ZM56.7072 50.2941L65.1657 38.8141L76.9883 40.784L68.8366 52.7191L56.7072 50.2941ZM101.573 39.813L85.5314 37.14L93.8014 25.0305L108.458 26.9848L108.563 26.9982L101.573 39.813ZM38.5929 17.669L52.8686 19.5719L44.9132 30.3687L30.5737 27.9792L38.5929 17.669ZM15.8886 46.8604C16.2056 47.1361 16.5683 47.3637 17.0102 47.4519L30.3585 50.1216L21.4814 62.1696L6.83081 58.5067L15.8886 46.8604ZM81.2314 77.1061L61.5897 72.1953L71.1009 58.269L89.4994 61.9487L81.2314 77.1061ZM99.5909 53.8907L105.331 62.5001H94.8957L99.5909 53.8907ZM126.203 62.5001L107.588 39.2313L112.982 29.343L121.569 39.1464L141.994 62.5001H126.203Z" fill="black" fill-opacity="0.54"/>
</svg>
