<svg width="103" height="102" viewBox="0 0 103 102" fill="none" xmlns="http://www.w3.org/2000/svg">
<rect x="0.785156" y="0.0771484" width="101.43" height="101.43" rx="12.6787" fill="#FFB300" fill-opacity="0.15"/>
<path d="M69.5683 39.6738H19.5344C18.7668 39.6738 18.1445 40.2961 18.1445 41.0637V77.1993C18.1445 77.9669 18.7668 78.5891 19.5344 78.5891H69.5683C70.3359 78.5891 70.9582 77.9669 70.9582 77.1993V41.0637C70.9582 40.2961 70.3359 39.6738 69.5683 39.6738Z" fill="#90A4AE"/>
<path d="M64.0083 45.2329H25.093C24.3254 45.2329 23.7031 45.8552 23.7031 46.6227V71.6397C23.7031 72.4073 24.3254 73.0296 25.093 73.0296H64.0083C64.7758 73.0296 65.3981 72.4073 65.3981 71.6397V46.6227C65.3981 45.8552 64.7758 45.2329 64.0083 45.2329Z" fill="#90CAF9"/>
<path d="M73.7374 75.8096H15.3644C14.5969 75.8096 13.9746 76.4318 13.9746 77.1994V88.3181C13.9746 89.0856 14.5969 89.7079 15.3644 89.7079H73.7374C74.505 89.7079 75.1272 89.0856 75.1272 88.3181V77.1994C75.1272 76.4318 74.505 75.8096 73.7374 75.8096Z" fill="#546E7A"/>
<path d="M75.1273 77.1994V84.1486H29.2628C27.0517 84.1467 24.9318 83.2676 23.3683 81.7041C21.8048 80.1406 20.9257 78.0206 20.9238 75.8096H73.7375C74.1057 75.8107 74.4586 75.9574 74.719 76.2179C74.9794 76.4783 75.1262 76.8311 75.1273 77.1994V77.1994Z" fill="#78909C"/>
<path d="M54.2799 75.8096H34.8223V82.7587C34.8223 83.1273 34.9687 83.4808 35.2293 83.7415C35.49 84.0021 35.8435 84.1486 36.2121 84.1486H52.8901C53.2587 84.1486 53.6122 84.0021 53.8728 83.7415C54.1335 83.4808 54.2799 83.1273 54.2799 82.7587V75.8096Z" fill="#CFD8DC"/>
<path d="M26.4828 75.8096V79.9791C26.4828 80.3477 26.3364 80.7012 26.0757 80.9618C25.8151 81.2225 25.4616 81.3689 25.093 81.3689C24.7244 81.3689 24.3708 81.2225 24.1102 80.9618C23.8496 80.7012 23.7031 80.3477 23.7031 79.9791V75.8096H26.4828Z" fill="#66BB6A"/>
<path d="M70.9586 41.0637V67.4705H54.2807C47.6459 67.4701 41.2829 64.8343 36.5914 60.1428C31.8999 55.4513 29.264 49.0883 29.2637 42.4535V39.6738H69.5688C69.9371 39.6749 70.29 39.8217 70.5504 40.0821C70.8108 40.3425 70.9575 40.6954 70.9586 41.0637V41.0637Z" fill="#B0BEC5"/>
<path d="M83.4666 34.1143H64.009C63.6404 34.1143 63.2869 33.9678 63.0262 33.7072C62.7656 33.4466 62.6191 33.093 62.6191 32.7244V18.8261C62.6213 16.9838 63.3542 15.2175 64.6569 13.9148C65.9597 12.612 67.7259 11.8792 69.5683 11.877H77.9073C79.7497 11.8792 81.5159 12.612 82.8187 13.9148C84.1214 15.2175 84.8543 16.9838 84.8565 18.8261V32.7244C84.8565 33.093 84.71 33.4466 84.4494 33.7072C84.1887 33.9678 83.8352 34.1143 83.4666 34.1143ZM65.3988 31.3346H82.0768V18.8261C82.0757 17.7206 81.636 16.6607 80.8544 15.8791C80.0727 15.0974 79.0128 14.6577 77.9073 14.6566H69.5683C68.4628 14.6577 67.4029 15.0974 66.6212 15.8791C65.8396 16.6607 65.3999 17.7206 65.3988 18.8261V31.3346Z" fill="#CFD8DC"/>
<path d="M70.9581 41.0637V59.1315H57.0598C56.6915 59.1304 56.3386 58.9836 56.0782 58.7232C55.8178 58.4628 55.671 58.1099 55.6699 57.7417V39.6738H69.5682C69.9365 39.6749 70.2894 39.8217 70.5498 40.0821C70.8102 40.3425 70.957 40.6954 70.9581 41.0637V41.0637Z" fill="#78909C"/>
<path d="M32.0433 75.8096V79.9791C32.0433 80.3477 31.8969 80.7012 31.6363 80.9618C31.3756 81.2225 31.0221 81.3689 30.6535 81.3689C30.2849 81.3689 29.9314 81.2225 29.6707 80.9618C29.4101 80.7012 29.2637 80.3477 29.2637 79.9791V75.8096H32.0433Z" fill="#66BB6A"/>
<path d="M65.3988 46.6227V67.4702H54.2801C48.127 67.4677 42.1904 65.1988 37.604 61.0969C33.0176 56.9951 30.1027 51.3476 29.416 45.2329H64.0089C64.3772 45.234 64.7301 45.3808 64.9905 45.6412C65.2509 45.9016 65.3977 46.2545 65.3988 46.6227V46.6227Z" fill="#BBDEFB"/>
<path d="M65.3987 46.6227V59.1312H57.0598C56.6915 59.1301 56.3386 58.9834 56.0782 58.7229C55.8178 58.4625 55.671 58.1097 55.6699 57.7414V45.2329H64.0089C64.3772 45.234 64.7301 45.3808 64.9905 45.6412C65.2509 45.9016 65.3976 46.2545 65.3987 46.6227V46.6227Z" fill="#64B5F6"/>
<path d="M87.6357 31.3345H59.8391C59.0715 31.3345 58.4492 31.9567 58.4492 32.7243V54.9616C58.4492 55.7292 59.0715 56.3515 59.8391 56.3515H87.6357C88.4033 56.3515 89.0255 55.7292 89.0255 54.9616V32.7243C89.0255 31.9567 88.4033 31.3345 87.6357 31.3345Z" fill="#FFB300"/>
<path d="M89.0256 32.7243V50.6392C88.1024 50.7398 87.1746 50.7908 86.2459 50.7921C74.7381 50.7921 65.3985 43.3287 65.3985 34.1141C65.3971 33.1799 65.4949 32.2481 65.6903 31.3345H87.6358C88.004 31.3356 88.3569 31.4824 88.6173 31.7428C88.8777 32.0032 89.0245 32.356 89.0256 32.7243V32.7243Z" fill="#FFCA28"/>
<path d="M77.9073 41.0637C77.9105 40.2986 77.7031 39.5473 77.3077 38.8922C76.9124 38.2371 76.3445 37.7034 75.6661 37.3496C74.9877 36.9958 74.225 36.8354 73.4615 36.8861C72.6981 36.9368 71.9633 37.1966 71.3377 37.6371C70.712 38.0775 70.2196 38.6817 69.9144 39.3833C69.6092 40.0849 69.503 40.857 69.6073 41.615C69.7116 42.373 70.0225 43.0876 70.5059 43.6807C70.9893 44.2738 71.6266 44.7224 72.348 44.9775V49.4027C72.348 49.7713 72.4944 50.1248 72.7551 50.3855C73.0157 50.6461 73.3692 50.7925 73.7378 50.7925C74.1064 50.7925 74.4599 50.6461 74.7206 50.3855C74.9812 50.1248 75.1277 49.7713 75.1277 49.4027V44.9775C75.9384 44.6919 76.6408 44.1624 77.1385 43.4617C77.6362 42.7609 77.9048 41.9232 77.9073 41.0637V41.0637Z" fill="#37474F"/>
<path d="M48.72 61.9111C48.7189 60.8057 48.2792 59.7458 47.4975 58.9641C46.7158 58.1824 45.656 57.7427 44.5505 57.7416C44.3065 57.7415 44.0668 57.6772 43.8555 57.5551C43.6443 57.433 43.4689 57.2574 43.347 57.046C43.2251 56.8346 43.161 56.5949 43.1612 56.3509C43.1614 56.1069 43.2258 55.8672 43.3479 55.656C43.4701 55.4447 43.6457 55.2694 43.8572 55.1476C44.0686 55.0258 44.3084 54.9617 44.5524 54.962C44.7964 54.9622 45.036 55.0267 45.2472 55.1489C45.4584 55.2711 45.6337 55.4468 45.7555 55.6583C45.9455 55.9663 46.2482 56.188 46.5991 56.2763C46.9501 56.3647 47.3217 56.3126 47.6349 56.1312C47.948 55.9498 48.1781 55.6534 48.2761 55.305C48.3742 54.9567 48.3325 54.5838 48.1599 54.2657C47.6583 53.4175 46.8716 52.7752 45.9403 52.4533V52.1823C45.9403 51.8137 45.7939 51.4602 45.5332 51.1996C45.2726 50.9389 44.9191 50.7925 44.5505 50.7925C44.1819 50.7925 43.8284 50.9389 43.5677 51.1996C43.3071 51.4602 43.1606 51.8137 43.1606 52.1823V52.438C42.2341 52.7644 41.4529 53.4082 40.9555 54.2553C40.4581 55.1024 40.2765 56.0983 40.443 57.0664C40.6094 58.0346 41.1132 58.9126 41.865 59.545C42.6168 60.1773 43.5681 60.5232 44.5505 60.5213C44.7945 60.5214 45.0342 60.5857 45.2454 60.7079C45.4567 60.83 45.6321 61.0055 45.754 61.2169C45.8758 61.4283 45.9399 61.6681 45.9398 61.9121C45.9396 62.1561 45.8752 62.3958 45.753 62.607C45.6308 62.8182 45.4552 62.9936 45.2438 63.1154C45.0324 63.2372 44.7926 63.3012 44.5486 63.301C44.3046 63.3007 44.0649 63.2363 43.8537 63.114C43.6425 62.9918 43.4672 62.8161 43.3455 62.6047C43.1555 62.2967 42.8528 62.0749 42.5018 61.9866C42.1508 61.8983 41.7793 61.9504 41.4661 62.1318C41.1529 62.3132 40.9228 62.6095 40.8248 62.9579C40.7268 63.3063 40.7685 63.6792 40.9411 63.9973C41.4427 64.8454 42.2293 65.4878 43.1606 65.8096V66.0806C43.1606 66.4492 43.3071 66.8028 43.5677 67.0634C43.8284 67.324 44.1819 67.4705 44.5505 67.4705C44.9191 67.4705 45.2726 67.324 45.5332 67.0634C45.7939 66.8028 45.9403 66.4492 45.9403 66.0806V65.8249C46.751 65.5394 47.4534 65.0098 47.9511 64.3091C48.4488 63.6083 48.7174 62.7707 48.72 61.9111V61.9111Z" fill="#42A5F5"/>
<path d="M83.4672 39.6736C85.0023 39.6736 86.2468 38.4291 86.2468 36.8939C86.2468 35.3588 85.0023 34.1143 83.4672 34.1143C81.932 34.1143 80.6875 35.3588 80.6875 36.8939C80.6875 38.4291 81.932 39.6736 83.4672 39.6736Z" fill="#FFEE58"/>
<path d="M84.8566 43.8431C85.6242 43.8431 86.2465 43.2209 86.2465 42.4533C86.2465 41.6857 85.6242 41.0635 84.8566 41.0635C84.089 41.0635 83.4668 41.6857 83.4668 42.4533C83.4668 43.2209 84.089 43.8431 84.8566 43.8431Z" fill="#FFEE58"/>
<path d="M70.9582 81.3685C71.7258 81.3685 72.348 80.7463 72.348 79.9787C72.348 79.2111 71.7258 78.5889 70.9582 78.5889C70.1906 78.5889 69.5684 79.2111 69.5684 79.9787C69.5684 80.7463 70.1906 81.3685 70.9582 81.3685Z" fill="#90A4AE"/>
</svg>
