<svg width="335" height="374" viewBox="0 0 335 374" fill="none" xmlns="http://www.w3.org/2000/svg">
<g clip-path="url(#clip0_3366_4417)">
<path d="M140.459 212.594C140.673 212.687 140.867 212.82 141.03 212.988C141.193 213.155 141.321 213.353 141.407 213.57C141.494 213.787 141.537 214.018 141.533 214.252C141.53 214.485 141.481 214.716 141.389 214.93L138.974 220.538L139.248 220.678L137.602 224.485L137.338 224.339L128.689 244.429C128.392 245.117 127.856 245.673 127.18 245.995C126.504 246.316 125.734 246.381 125.014 246.176L111.565 242.355C111.238 242.262 110.934 242.098 110.677 241.876C110.419 241.653 110.213 241.377 110.074 241.067C109.934 240.756 109.865 240.419 109.869 240.079C109.874 239.738 109.953 239.403 110.101 239.096L123.656 210.986C123.941 210.395 124.418 209.919 125.009 209.636C125.6 209.353 126.27 209.279 126.909 209.427L140.142 212.492C140.251 212.516 140.357 212.55 140.459 212.594V212.594Z" fill="#3F3D56"/>
<path d="M129.264 211.591L136.221 213.202C136.346 213.231 136.478 213.218 136.595 213.165C136.712 213.112 136.808 213.021 136.869 212.908C136.937 212.779 137.046 212.677 137.179 212.617C137.311 212.557 137.46 212.542 137.602 212.575L139.067 212.914C139.267 212.961 139.455 213.05 139.616 213.177C139.778 213.303 139.909 213.464 140.002 213.647C140.095 213.83 140.146 214.031 140.153 214.237C140.159 214.442 140.121 214.646 140.04 214.834L127.521 243.971C127.366 244.333 127.083 244.625 126.726 244.791C126.369 244.957 125.964 244.986 125.587 244.872L112.233 240.843C112.062 240.792 111.905 240.704 111.772 240.586C111.638 240.469 111.532 240.324 111.46 240.161C111.387 239.998 111.351 239.822 111.353 239.644C111.356 239.466 111.396 239.291 111.472 239.13L124.704 211.199C124.898 210.788 125.228 210.455 125.638 210.257C126.048 210.059 126.514 210.007 126.957 210.11L128.502 210.467C128.464 210.716 128.522 210.97 128.663 211.178C128.804 211.387 129.019 211.534 129.264 211.591Z" fill="#FFD05B"/>
<path d="M183.489 61.1463C177.483 61.1463 171.611 59.3652 166.617 56.0283C161.623 52.6915 157.731 47.9486 155.432 42.3996C153.134 36.8505 152.533 30.7445 153.704 24.8537C154.876 18.9629 157.768 13.5518 162.015 9.30476C166.262 5.05771 171.674 2.16544 177.564 0.993683C183.455 -0.178075 189.561 0.423316 195.11 2.7218C200.659 5.02029 205.402 8.91263 208.739 13.9066C212.076 18.9006 213.857 24.772 213.857 30.7782C213.848 38.8295 210.645 46.5485 204.952 52.2416C199.259 57.9347 191.54 61.1372 183.489 61.1463V61.1463ZM183.489 1.85626C177.769 1.85626 172.177 3.5525 167.421 6.73049C162.665 9.90848 158.958 14.4255 156.769 19.7103C154.579 24.9951 154.007 30.8103 155.123 36.4206C156.239 42.0309 158.993 47.1843 163.038 51.2291C167.083 55.274 172.236 58.0285 177.847 59.1444C183.457 60.2604 189.272 59.6877 194.557 57.4986C199.842 55.3096 204.359 51.6026 207.537 46.8464C210.715 42.0902 212.411 36.4984 212.411 30.7782C212.402 23.1103 209.352 15.7589 203.93 10.3369C198.508 4.91484 191.157 1.86493 183.489 1.85626V1.85626Z" fill="#CCCCCC"/>
<path d="M300.623 89.3436C294.617 89.3436 288.745 87.5625 283.751 84.2256C278.757 80.8887 274.865 76.1459 272.567 70.5968C270.268 65.0478 269.667 58.9418 270.838 53.051C272.01 47.1601 274.902 41.7491 279.149 37.502C283.397 33.255 288.808 30.3627 294.698 29.1909C300.589 28.0192 306.695 28.6206 312.244 30.9191C317.793 33.2176 322.536 37.1099 325.873 42.1039C329.21 47.0979 330.991 52.9693 330.991 58.9755C330.982 67.0268 327.779 74.7457 322.086 80.4389C316.393 86.132 308.674 89.3344 300.623 89.3436V89.3436ZM300.623 30.0535C294.903 30.0535 289.311 31.7498 284.555 34.9278C279.799 38.1057 276.092 42.6227 273.903 47.9075C271.714 53.1923 271.141 59.0076 272.257 64.6179C273.373 70.2282 276.127 75.3816 280.172 79.4264C284.217 83.4712 289.37 86.2257 294.981 87.3417C300.591 88.4577 306.406 87.8849 311.691 85.6959C316.976 83.5069 321.493 79.7999 324.671 75.0437C327.849 70.2875 329.545 64.6957 329.545 58.9755C329.536 51.3076 326.486 43.9562 321.064 38.5342C315.642 33.1121 308.291 30.0622 300.623 30.0535V30.0535Z" fill="#CCCCCC"/>
<path d="M246.394 185.509C240.388 185.509 234.516 183.728 229.522 180.391C224.528 177.054 220.636 172.311 218.338 166.762C216.039 161.213 215.438 155.107 216.609 149.216C217.781 143.326 220.673 137.915 224.92 133.668C229.168 129.421 234.579 126.528 240.469 125.356C246.36 124.185 252.466 124.786 258.015 127.085C263.564 129.383 268.307 133.275 271.644 138.269C274.981 143.263 276.762 149.135 276.762 155.141C276.753 163.192 273.55 170.911 267.857 176.604C262.164 182.298 254.445 185.5 246.394 185.509V185.509ZM246.394 126.219C240.674 126.219 235.082 127.915 230.326 131.093C225.57 134.271 221.863 138.788 219.674 144.073C217.485 149.358 216.912 155.173 218.028 160.783C219.144 166.394 221.898 171.547 225.943 175.592C229.988 179.637 235.141 182.391 240.752 183.507C246.362 184.623 252.177 184.05 257.462 181.861C262.747 179.672 267.264 175.965 270.442 171.209C273.62 166.453 275.316 160.861 275.316 155.141C275.307 147.473 272.257 140.122 266.835 134.7C261.413 129.278 254.062 126.228 246.394 126.219V126.219Z" fill="#CCCCCC"/>
<path d="M317.976 50.658L321.591 49.935C321.591 49.935 318.554 53.3333 317.976 53.5502C317.922 54.2722 317.922 54.9973 317.976 55.7194C311.034 85.509 285.438 72.3495 285.438 72.3495C294.766 72.5664 295.561 68.7342 295.561 68.7342C290.138 67.9389 289.054 64.3959 289.054 64.3959C289.54 64.6526 290.104 64.7208 290.638 64.5873C291.172 64.4539 291.637 64.1283 291.946 63.6729C286.089 62.1545 286.885 56.4424 286.885 56.4424C287.928 57.1961 289.148 57.6691 290.428 57.8162C289.777 57.0209 284.282 50.4411 287.608 47.0428C287.608 47.0428 291.657 54.2733 302.286 54.924L303.009 54.7794C302.886 54.2586 302.837 53.7231 302.864 53.1887C302.864 51.1752 303.664 49.2441 305.088 47.8203C306.511 46.3965 308.442 45.5967 310.456 45.5967C315.517 45.5967 316.602 48.4889 316.602 48.4889L320.217 46.3197C320.145 46.3197 319.783 49.935 317.976 50.658Z" fill="#3F3D56"/>
<path d="M259.892 138.512L233.094 138.514C232.749 138.497 232.405 138.549 232.08 138.666C231.756 138.782 231.457 138.962 231.202 139.195C230.948 139.427 230.741 139.707 230.595 140.02C230.449 140.332 230.366 140.67 230.35 141.015L230.353 167.873C230.371 168.595 230.666 169.283 231.177 169.795C231.687 170.307 232.374 170.604 233.097 170.624L259.887 170.622C260.592 170.594 261.258 170.29 261.74 169.775C262.222 169.26 262.482 168.575 262.463 167.87L262.461 141.012C262.466 140.676 262.403 140.343 262.275 140.033C262.147 139.722 261.957 139.441 261.716 139.207C261.476 138.973 261.19 138.79 260.876 138.671C260.562 138.551 260.228 138.497 259.892 138.512ZM240.306 165.279L235.706 165.279L235.705 150.977L240.305 150.976L240.306 165.279ZM238.164 148.802H238.131C237.469 148.797 236.835 148.531 236.37 148.06C235.904 147.59 235.644 146.954 235.646 146.292C235.648 145.63 235.912 144.996 236.381 144.529C236.85 144.062 237.485 143.799 238.147 143.799C238.809 143.799 239.444 144.062 239.913 144.529C240.382 144.996 240.646 145.63 240.648 146.292C240.65 146.954 240.39 147.59 239.924 148.06C239.459 148.531 238.825 148.797 238.164 148.802ZM257.118 165.277L252.518 165.278L252.517 157.457C252.517 155.584 251.847 154.304 250.183 154.304C249.663 154.308 249.156 154.474 248.734 154.778C248.311 155.082 247.994 155.51 247.825 156.002C247.702 156.365 247.648 156.748 247.666 157.132L247.666 165.278L243.066 165.279L243.065 150.976L247.665 150.976L247.665 152.966C248.084 152.241 248.69 151.643 249.42 151.234C250.15 150.825 250.977 150.62 251.813 150.64C254.833 150.64 257.118 152.63 257.118 156.922V165.277Z" fill="#3F3D56"/>
<path fill-rule="evenodd" clip-rule="evenodd" d="M203.339 30.8969C203.339 27.1032 202.251 23.3891 200.205 20.1944C198.159 16.9997 195.241 14.458 191.795 12.8704C188.35 11.2827 184.521 10.7156 180.764 11.2361C177.006 11.7565 173.476 13.3429 170.591 15.8072C167.707 18.2715 165.589 21.5107 164.489 25.1413C163.388 28.7718 163.351 32.6417 164.381 36.2928C165.412 39.9438 167.467 43.2232 170.303 45.7426C173.139 48.2621 176.638 49.9161 180.385 50.5089V36.6372H175.343V30.8969H180.385V26.5223C180.385 21.5477 183.35 18.7977 187.884 18.7977C189.373 18.8184 190.858 18.9482 192.328 19.1859V24.0718H189.824C187.359 24.0718 186.588 25.6015 186.588 27.1737V30.8977H192.094L191.214 36.638H186.588V50.5106C191.258 49.771 195.511 47.3892 198.582 43.7938C201.653 40.1983 203.34 35.6251 203.339 30.8969V30.8969Z" fill="#3F3D56"/>
<path d="M96.144 364.438L104.41 364.437L108.341 332.553L96.1411 332.554L96.144 364.438Z" fill="#FFB8B8"/>
<path d="M120.354 372.108L94.3753 372.11L94.3744 362.073L110.316 362.071C111.634 362.071 112.939 362.331 114.157 362.835C115.375 363.339 116.482 364.079 117.414 365.011C118.346 365.943 119.085 367.049 119.59 368.267C120.094 369.485 120.354 370.79 120.354 372.108V372.108L120.354 372.108Z" fill="#2F2E41"/>
<path d="M51.5898 364.438L59.8564 364.437L63.7869 332.553L51.5869 332.554L51.5898 364.438Z" fill="#FFB8B8"/>
<path d="M75.7964 372.108L49.8174 372.11L49.8165 362.073L65.7582 362.071C68.4202 362.071 70.9733 363.128 72.8559 365.011C74.7384 366.893 75.7961 369.446 75.7964 372.108V372.108L75.7964 372.108Z" fill="#2F2E41"/>
<path d="M75.7989 137.778C85.6068 137.778 93.5577 129.827 93.5577 120.02C93.5577 110.212 85.6068 102.261 75.7989 102.261C65.9909 102.261 58.04 110.212 58.04 120.02C58.04 129.827 65.9909 137.778 75.7989 137.778Z" fill="#FFB8B8"/>
<path d="M136.522 235.836C136.398 234.853 136.06 233.908 135.532 233.07C135.003 232.231 134.297 231.519 133.464 230.983C132.63 230.446 131.689 230.099 130.707 229.966C129.725 229.833 128.725 229.917 127.779 230.211L117.854 218.314L109.153 222.582L123.405 239.186C124.006 240.743 125.156 242.026 126.64 242.791C128.123 243.556 129.835 243.751 131.452 243.338C133.069 242.925 134.478 241.933 135.412 240.55C136.347 239.168 136.742 237.49 136.522 235.836V235.836Z" fill="#FFB8B8"/>
<path d="M51.1059 247.867C51.5288 246.97 51.7501 245.992 51.754 245.001C51.758 244.01 51.5446 243.03 51.1288 242.13C50.713 241.23 50.1051 240.433 49.3477 239.793C48.5903 239.154 47.7019 238.688 46.7451 238.429L44.7526 223.065L35.1201 221.998L38.2388 243.657C37.9103 245.293 38.1935 246.993 39.0346 248.434C39.8757 249.875 41.2162 250.958 42.8023 251.477C44.3883 251.996 46.1097 251.915 47.6401 251.25C49.1705 250.584 50.4037 249.381 51.1059 247.867L51.1059 247.867Z" fill="#FFB8B8"/>
<path d="M37.6239 238.472C36.8438 238.472 36.0898 238.192 35.4992 237.682C34.9085 237.173 34.5205 236.468 34.4059 235.696L29.6646 203.767C29.0688 199.748 29.5507 195.643 31.061 191.871L45.6169 155.545C46.2122 154.059 47.1889 152.757 48.4484 151.769C49.7078 150.782 51.2056 150.144 52.7904 149.92C54.3752 149.696 55.991 149.894 57.4748 150.495C58.9585 151.095 60.2577 152.076 61.2411 153.339H61.2412C62.2574 154.64 62.8995 156.195 63.0982 157.834C63.2969 159.473 63.0448 161.136 62.369 162.643L55.507 177.992C47.8113 195.211 44.9076 214.189 47.1025 232.921C47.1913 233.677 47.0121 234.441 46.5961 235.078C46.1802 235.716 45.5538 236.187 44.826 236.41L38.5796 238.329C38.2699 238.424 37.9478 238.472 37.6239 238.472Z" fill="#CCCCCC"/>
<path d="M71.4764 137.779C68.8036 137.837 66.1489 137.329 63.6866 136.287C61.2244 135.246 59.0104 133.695 57.1901 131.737C55.3698 129.779 53.9845 127.458 53.1252 124.927C52.2659 122.395 51.9519 119.711 52.2041 117.049C52.4563 114.388 53.2688 111.81 54.5883 109.485C55.9077 107.16 57.7043 105.14 59.8599 103.559C62.0155 101.977 64.4813 100.87 67.0953 100.31C69.7093 99.7494 72.4123 99.7485 75.0267 100.307C78.932 97.9359 83.4725 96.3403 88.0233 96.7462C92.5741 97.152 97.0747 99.8537 98.7764 104.094C100.478 108.334 98.65 113.923 94.4186 115.646C91.7058 116.751 88.6424 116.215 85.7474 115.77C82.8524 115.324 79.6942 115.034 77.1746 116.527C74.6551 118.021 73.5225 122.026 75.779 123.894C76.9751 124.923 77.8293 126.292 78.2277 127.819C78.6261 129.346 78.5498 130.958 78.009 132.441C76.8749 135.373 73.7796 137.73 71.4764 137.779Z" fill="#2F2E41"/>
<path d="M49.1823 358.012C48.7477 358.012 48.3174 357.926 47.9169 357.757C47.5164 357.588 47.1538 357.34 46.8504 357.029C46.5471 356.718 46.3092 356.349 46.1508 355.944C45.9924 355.54 45.9167 355.107 45.9281 354.673L49.0873 234.78L49.4318 234.772L101.655 233.633L110.672 350.215C110.721 350.924 110.537 351.631 110.148 352.226C109.759 352.822 109.186 353.274 108.516 353.514L108.417 353.534L98.1678 354.16C97.7355 354.306 97.2774 354.359 96.8232 354.317C96.3689 354.274 95.9287 354.136 95.5312 353.912C95.1336 353.689 94.7876 353.384 94.5156 353.017C94.2435 352.651 94.0515 352.232 93.9521 351.786L77.2442 277.026C77.1892 276.78 77.0499 276.56 76.8506 276.406C76.6512 276.251 76.4042 276.171 76.152 276.178C75.8998 276.186 75.6582 276.282 75.4689 276.449C75.2795 276.615 75.1543 276.843 75.1146 277.092L62.7713 354.74C62.6515 355.475 62.2841 356.148 61.7298 356.646C61.1756 357.144 60.4678 357.438 59.7238 357.478L49.3465 358.008C49.2917 358.011 49.2369 358.012 49.1823 358.012Z" fill="#2F2E41"/>
<path d="M64.5521 244.704C58.0534 244.704 52.3782 243.722 49.2444 240.92C47.2305 239.12 46.3595 236.672 46.6558 233.644C47.7695 222.261 45.8397 197.312 44.0247 178.387C43.609 173.948 44.0802 169.471 45.4109 165.217C46.7416 160.962 48.9051 157.015 51.7757 153.604C54.5378 150.3 57.9382 147.587 61.7732 145.627C65.6083 143.668 69.7993 142.502 74.0953 142.2C80.0739 141.775 94.0739 140.782 98.4256 151.928C104.963 168.671 101.766 176.349 98.6736 183.774C96.0466 190.083 93.3302 196.606 96.6599 208.856C98.4992 215.63 100.727 222.292 103.331 228.81C105.134 233.434 106.04 235.754 105.204 237.27C104.545 238.466 102.901 238.987 100.097 239.529C99.1813 239.707 97.9713 239.964 96.5302 240.27C89.2042 241.828 75.6729 244.704 64.5521 244.704Z" fill="#CCCCCC"/>
<path d="M117.908 234.208C117.882 234.208 117.858 234.208 117.832 234.207C117.364 234.197 116.903 234.085 116.482 233.88C116.061 233.675 115.689 233.381 115.392 233.019L96.9835 210.587C93.0529 205.794 90.4649 200.044 89.4837 193.924L83.8157 158.501C83.6245 157.307 83.6736 156.086 83.96 154.91C84.2463 153.735 84.7643 152.628 85.4835 151.655C86.2027 150.682 87.1087 149.863 88.1485 149.244C89.1883 148.626 90.341 148.221 91.5392 148.053C92.7374 147.885 93.957 147.958 95.1267 148.268C96.2963 148.577 97.3925 149.117 98.3511 149.855C99.3097 150.593 100.112 151.515 100.71 152.567C101.308 153.618 101.69 154.779 101.834 155.98L104.087 174.769C106.171 192.124 112.902 208.594 123.569 222.442L124.857 224.113C125.322 224.716 125.56 225.462 125.531 226.223C125.502 226.984 125.207 227.71 124.698 228.276L120.325 233.132C120.02 233.471 119.647 233.742 119.231 233.927C118.814 234.113 118.363 234.208 117.908 234.208Z" fill="#CCCCCC"/>
<path d="M206.174 68.2525C212.861 68.2525 218.282 62.7721 218.282 56.0118C218.282 49.2514 212.861 43.771 206.174 43.771C199.487 43.771 194.066 49.2514 194.066 56.0118C194.066 62.7721 199.487 68.2525 206.174 68.2525Z" fill="#3F3D56"/>
<path d="M208.599 62.5412H206.134V53.1481C205.224 54.0046 204.136 54.6495 202.948 55.0368V52.7751C203.711 52.4944 204.42 52.0849 205.045 51.5645C205.752 51.035 206.291 50.3127 206.598 49.4844H208.599V62.5412Z" fill="#3F3D56"/>
<path d="M206.174 68.2525C212.861 68.2525 218.282 62.7721 218.282 56.0118C218.282 49.2514 212.861 43.771 206.174 43.771C199.487 43.771 194.066 49.2514 194.066 56.0118C194.066 62.7721 199.487 68.2525 206.174 68.2525Z" fill="#2448FC"/>
<path d="M208.599 62.5412H206.134V53.1481C205.224 54.0046 204.136 54.6495 202.948 55.0368V52.7751C203.711 52.4944 204.42 52.0849 205.045 51.5645C205.752 51.035 206.291 50.3127 206.598 49.4844H208.599V62.5412Z" fill="white"/>
<path d="M322.758 98.8716C329.518 98.8716 334.999 93.3913 334.999 86.6309C334.999 79.8705 329.518 74.3901 322.758 74.3901C315.998 74.3901 310.517 79.8705 310.517 86.6309C310.517 93.3913 315.998 98.8716 322.758 98.8716Z" fill="#3F3D56"/>
<path d="M321.302 88.6301C321.26 89.287 321.445 89.9384 321.827 90.4748C321.963 90.6691 322.142 90.8291 322.35 90.942C322.558 91.0549 322.79 91.1177 323.027 91.1252C323.237 91.1271 323.444 91.08 323.632 90.9875C323.82 90.895 323.984 90.7598 324.111 90.5927C324.445 90.0754 324.597 89.4618 324.544 88.8484C324.596 88.2042 324.432 87.5611 324.077 87.0208C323.943 86.8431 323.769 86.6984 323.57 86.598C323.371 86.4976 323.152 86.4441 322.929 86.4415C322.706 86.439 322.486 86.4875 322.285 86.5833C322.083 86.6791 321.907 86.8197 321.768 86.9943C321.425 87.4677 321.26 88.0469 321.302 88.6301V88.6301ZM326.611 83.2837L324.344 83.5461C324.326 83.1469 324.173 82.7657 323.91 82.4648C323.79 82.348 323.648 82.2568 323.492 82.1968C323.336 82.1368 323.169 82.1093 323.002 82.116C322.751 82.1195 322.506 82.185 322.287 82.3067C322.068 82.4284 321.882 82.6025 321.747 82.8133C321.295 83.7136 321.073 84.7118 321.101 85.7188C321.353 85.3804 321.682 85.106 322.06 84.9179C322.438 84.7297 322.854 84.6332 323.277 84.636C323.756 84.6342 324.229 84.7381 324.664 84.9403C325.098 85.1425 325.482 85.438 325.789 85.8057C326.508 86.6426 326.882 87.7211 326.835 88.8231C326.891 89.9757 326.497 91.1048 325.735 91.9718C325.348 92.3725 324.879 92.6853 324.361 92.8889C323.842 93.0925 323.285 93.1822 322.729 93.152C322.172 93.1217 321.629 92.9722 321.135 92.7135C320.642 92.4548 320.21 92.0931 319.868 91.6527C319.073 90.6502 318.676 89.0063 318.676 86.721C318.676 84.3773 319.09 82.6881 319.918 81.6533C320.295 81.1581 320.783 80.7592 321.344 80.4894C321.905 80.2195 322.522 80.0863 323.144 80.1008C323.987 80.0706 324.811 80.362 325.448 80.916C326.1 81.5455 326.512 82.383 326.611 83.2837V83.2837Z" fill="#3F3D56"/>
<path d="M322.758 98.8716C329.518 98.8716 334.999 93.3913 334.999 86.6309C334.999 79.8705 329.518 74.3901 322.758 74.3901C315.998 74.3901 310.517 79.8705 310.517 86.6309C310.517 93.3913 315.998 98.8716 322.758 98.8716Z" fill="#2448FC"/>
<path d="M321.302 88.6301C321.26 89.287 321.445 89.9384 321.827 90.4748C321.963 90.6691 322.142 90.8291 322.35 90.942C322.558 91.0549 322.79 91.1177 323.027 91.1252C323.237 91.1271 323.444 91.08 323.632 90.9875C323.82 90.895 323.984 90.7598 324.111 90.5927C324.445 90.0754 324.597 89.4618 324.544 88.8484C324.596 88.2042 324.432 87.5611 324.077 87.0208C323.943 86.8431 323.769 86.6984 323.57 86.598C323.371 86.4976 323.152 86.4441 322.929 86.4415C322.706 86.439 322.486 86.4875 322.285 86.5833C322.083 86.6791 321.907 86.8197 321.768 86.9943C321.425 87.4677 321.26 88.0469 321.302 88.6301V88.6301ZM326.611 83.2837L324.344 83.5461C324.326 83.1469 324.173 82.7657 323.91 82.4648C323.79 82.348 323.648 82.2568 323.492 82.1968C323.336 82.1368 323.169 82.1093 323.002 82.116C322.751 82.1195 322.506 82.185 322.287 82.3067C322.068 82.4284 321.882 82.6025 321.747 82.8133C321.295 83.7136 321.073 84.7118 321.101 85.7188C321.353 85.3804 321.682 85.106 322.06 84.9179C322.438 84.7297 322.854 84.6332 323.277 84.636C323.756 84.6342 324.229 84.7381 324.664 84.9403C325.098 85.1425 325.482 85.438 325.789 85.8057C326.508 86.6426 326.882 87.7211 326.835 88.8231C326.891 89.9757 326.497 91.1048 325.735 91.9718C325.348 92.3725 324.879 92.6853 324.361 92.8889C323.842 93.0925 323.285 93.1822 322.729 93.152C322.172 93.1217 321.629 92.9722 321.135 92.7135C320.642 92.4548 320.21 92.0931 319.868 91.6527C319.073 90.6502 318.676 89.0063 318.676 86.721C318.676 84.3773 319.09 82.6881 319.918 81.6533C320.295 81.1581 320.783 80.7592 321.344 80.4894C321.905 80.2195 322.522 80.0863 323.144 80.1008C323.987 80.0706 324.811 80.362 325.448 80.916C326.1 81.5455 326.512 82.383 326.611 83.2837V83.2837Z" fill="white"/>
<path d="M271.245 193.443C278.005 193.443 283.486 187.963 283.486 181.203C283.486 174.442 278.005 168.962 271.245 168.962C264.485 168.962 259.004 174.442 259.004 181.203C259.004 187.963 264.485 193.443 271.245 193.443Z" fill="#3F3D56"/>
<path d="M269.729 178.145C269.716 178.352 269.745 178.56 269.814 178.756C269.884 178.952 269.991 179.132 270.131 179.286C270.272 179.424 270.439 179.532 270.623 179.603C270.808 179.673 271.004 179.705 271.201 179.696C271.401 179.705 271.6 179.673 271.786 179.602C271.973 179.531 272.142 179.422 272.285 179.282C272.425 179.128 272.534 178.947 272.604 178.75C272.673 178.553 272.703 178.344 272.691 178.136C272.701 177.934 272.67 177.733 272.601 177.544C272.532 177.355 272.426 177.181 272.29 177.033C272.151 176.894 271.985 176.785 271.802 176.714C271.619 176.643 271.423 176.611 271.227 176.619C271.026 176.609 270.825 176.642 270.637 176.714C270.449 176.786 270.278 176.896 270.135 177.037C269.997 177.186 269.89 177.36 269.82 177.55C269.751 177.74 269.719 177.942 269.729 178.145V178.145ZM269.509 183.619C269.474 184.189 269.654 184.751 270.013 185.196C270.167 185.377 270.36 185.522 270.578 185.62C270.795 185.718 271.031 185.767 271.269 185.763C271.5 185.768 271.729 185.722 271.94 185.627C272.151 185.533 272.338 185.393 272.488 185.218C272.838 184.771 273.009 184.21 272.971 183.645C272.996 183.119 272.821 182.604 272.48 182.203C272.325 182.026 272.134 181.886 271.919 181.791C271.704 181.697 271.47 181.651 271.236 181.657C270.984 181.64 270.732 181.689 270.505 181.797C270.277 181.905 270.081 182.071 269.936 182.276C269.658 182.669 269.508 183.138 269.509 183.619V183.619ZM269.238 180.611C268.685 180.396 268.215 180.009 267.896 179.508C267.618 179.044 267.473 178.512 267.478 177.971C267.465 177.531 267.544 177.094 267.711 176.687C267.878 176.279 268.128 175.912 268.446 175.608C269.236 175.003 270.203 174.676 271.198 174.676C272.192 174.676 273.159 175.003 273.949 175.608C274.269 175.911 274.522 176.278 274.691 176.685C274.859 177.092 274.94 177.53 274.927 177.971C274.938 178.532 274.782 179.083 274.477 179.554C274.172 180.025 273.733 180.393 273.216 180.611C273.852 180.848 274.397 181.278 274.775 181.841C275.154 182.404 275.346 183.071 275.324 183.749C275.354 184.282 275.27 184.816 275.078 185.314C274.887 185.813 274.592 186.265 274.213 186.641C273.834 187.018 273.379 187.31 272.879 187.498C272.379 187.686 271.845 187.766 271.312 187.733C270.294 187.769 269.296 187.445 268.493 186.818C268.055 186.462 267.707 186.008 267.477 185.493C267.246 184.978 267.139 184.417 267.164 183.853C267.158 183.186 267.33 182.528 267.663 181.95C268.028 181.344 268.581 180.874 269.238 180.611V180.611Z" fill="#3F3D56"/>
<path d="M271.245 193.443C278.005 193.443 283.486 187.963 283.486 181.203C283.486 174.442 278.005 168.962 271.245 168.962C264.485 168.962 259.004 174.442 259.004 181.203C259.004 187.963 264.485 193.443 271.245 193.443Z" fill="#2448FC"/>
<path d="M269.729 178.145C269.716 178.352 269.745 178.56 269.814 178.756C269.884 178.952 269.991 179.132 270.131 179.286C270.272 179.424 270.439 179.532 270.623 179.603C270.808 179.673 271.004 179.705 271.201 179.696C271.401 179.705 271.6 179.673 271.786 179.602C271.973 179.531 272.142 179.422 272.285 179.282C272.425 179.128 272.534 178.947 272.604 178.75C272.673 178.553 272.703 178.344 272.691 178.136C272.701 177.934 272.67 177.733 272.601 177.544C272.532 177.355 272.426 177.181 272.29 177.033C272.151 176.894 271.985 176.785 271.802 176.714C271.619 176.643 271.423 176.611 271.227 176.619C271.026 176.609 270.825 176.642 270.637 176.714C270.449 176.786 270.278 176.896 270.135 177.037C269.997 177.186 269.89 177.36 269.82 177.55C269.751 177.74 269.719 177.942 269.729 178.145V178.145ZM269.509 183.619C269.474 184.189 269.654 184.751 270.013 185.196C270.167 185.377 270.36 185.522 270.578 185.62C270.795 185.718 271.031 185.767 271.269 185.763C271.5 185.768 271.729 185.722 271.94 185.627C272.151 185.533 272.338 185.393 272.488 185.218C272.838 184.771 273.009 184.21 272.971 183.645C272.996 183.119 272.821 182.604 272.48 182.203C272.325 182.026 272.134 181.886 271.919 181.791C271.704 181.697 271.47 181.651 271.236 181.657C270.984 181.64 270.732 181.689 270.505 181.797C270.277 181.905 270.081 182.071 269.936 182.276C269.658 182.669 269.508 183.138 269.509 183.619V183.619ZM269.238 180.611C268.685 180.396 268.215 180.009 267.896 179.508C267.618 179.044 267.473 178.512 267.478 177.971C267.465 177.531 267.544 177.094 267.711 176.687C267.878 176.279 268.128 175.912 268.446 175.608C269.236 175.003 270.203 174.676 271.198 174.676C272.192 174.676 273.159 175.003 273.949 175.608C274.269 175.911 274.522 176.278 274.691 176.685C274.859 177.092 274.94 177.53 274.927 177.971C274.938 178.532 274.782 179.083 274.477 179.554C274.172 180.025 273.733 180.393 273.216 180.611C273.852 180.848 274.397 181.278 274.775 181.841C275.154 182.404 275.346 183.071 275.324 183.749C275.354 184.282 275.27 184.816 275.078 185.314C274.887 185.813 274.592 186.265 274.213 186.641C273.834 187.018 273.379 187.31 272.879 187.498C272.379 187.686 271.845 187.766 271.312 187.733C270.294 187.769 269.296 187.445 268.493 186.818C268.055 186.462 267.707 186.008 267.477 185.493C267.246 184.978 267.139 184.417 267.164 183.853C267.158 183.186 267.33 182.528 267.663 181.95C268.028 181.344 268.581 180.874 269.238 180.611V180.611Z" fill="white"/>
<path d="M168.206 373.484H1.18155C0.989781 373.484 0.805859 373.408 0.670261 373.272C0.534663 373.137 0.458496 372.953 0.458496 372.761C0.458496 372.569 0.534663 372.385 0.670261 372.25C0.805859 372.114 0.989781 372.038 1.18155 372.038H168.206C168.398 372.038 168.582 372.114 168.717 372.25C168.853 372.385 168.929 372.569 168.929 372.761C168.929 372.953 168.853 373.137 168.717 373.272C168.582 373.408 168.398 373.484 168.206 373.484Z" fill="#CCCCCC"/>
</g>
<defs>
<clipPath id="clip0_3366_4417">
<rect width="334.539" height="373.073" fill="white" transform="translate(0.458496 0.410156)"/>
</clipPath>
</defs>
</svg>
