<svg width="102" height="102" viewBox="0 0 102 102" fill="none" xmlns="http://www.w3.org/2000/svg">
<rect x="0.376953" y="0.0566406" width="101.43" height="101.43" rx="12.6787" fill="#AFD873" fill-opacity="0.24"/>
<g clip-path="url(#clip0_3231_5392)">
<path d="M76.764 72.9875C70.5473 72.9897 64.3307 72.9918 58.114 72.9939C49.0888 72.995 40.0636 72.9956 31.0385 72.9958C27.8837 72.9974 24.729 73.0175 21.5742 73.0284V72.8915C21.9558 72.5838 22.4135 72.677 22.8461 72.6719C24.132 72.657 24.1335 72.6636 24.1336 71.3744C24.1343 65.0566 24.1343 58.7387 24.1336 52.4207C24.1336 50.7742 24.1523 50.7568 25.8533 50.7568C39.7088 50.7568 53.5642 50.7568 67.4195 50.7568C69.1783 50.7568 69.1791 50.7578 69.1793 52.5213C69.1797 58.7023 69.1797 64.8832 69.1793 71.064C69.1793 71.2693 69.1774 71.4746 69.1801 71.6798C69.1927 72.6197 69.2346 72.6574 70.2253 72.6683C70.7125 72.6739 71.2003 72.645 71.6865 72.6881C73.0997 72.6625 74.5133 72.6794 75.9268 72.6795C76.159 72.6635 76.3919 72.6988 76.6085 72.7827C76.6488 72.8025 76.6839 72.8314 76.7109 72.867C76.7379 72.9026 76.7561 72.9438 76.764 72.9875V72.9875Z" fill="#AFD873"/>
<path d="M71.7169 72.8809C70.9975 72.8843 70.2765 72.8599 69.5593 72.9004C69.0472 72.9294 68.9416 72.7191 68.9451 72.2636C68.9634 69.9143 68.9535 67.5649 68.9535 65.2156C68.9535 60.7222 68.9419 56.2287 68.9674 51.7349C68.9707 51.1375 68.8179 50.9679 68.1961 50.9687C53.8529 50.9865 39.5098 50.9869 25.1666 50.9699C24.5426 50.9691 24.3435 51.1111 24.3459 51.7569C24.3706 58.531 24.3513 65.3054 24.3767 72.0795C24.3791 72.7471 24.1898 72.9594 23.5226 72.9016C22.8779 72.8457 22.224 72.8902 21.5742 72.8908V48.2407C22.4522 47.8324 23.3845 48.104 24.289 48.0291C24.6824 48.0641 25.077 48.0373 25.4711 48.0374C39.4879 48.0395 53.5045 48.0467 67.5211 48.0591C68.4976 48.0611 69.0622 47.7339 69.6094 46.9505C73.0369 42.044 76.5068 37.1658 79.9711 32.2842C80.2075 31.9513 80.4117 31.5789 80.8167 31.397C81.5412 31.9262 81.9221 32.7034 82.3507 33.4469C82.3244 33.7113 82.1542 33.9031 82.0081 34.1081C78.8121 38.6125 75.6189 43.1187 72.4284 47.6267C72.0915 48.0895 71.9166 48.6474 71.93 49.2163C71.9417 56.7367 71.9427 64.257 71.933 71.7773C71.9336 72.1523 72.0393 72.5611 71.7169 72.8809Z" fill="#8BBE3F"/>
<path d="M24.3603 48.2362L21.5742 48.2405V48.1036C22.0414 47.6908 22.3166 47.1368 22.6575 46.6359C26.1148 41.558 29.5657 36.4757 33.0102 31.3892C33.8586 31.2589 34.7124 31.3641 35.562 31.3288C35.7755 31.3151 35.8674 31.4003 35.7915 31.6133C35.6918 31.8443 35.5626 32.0619 35.4071 32.2608C31.9583 37.3411 28.5117 42.4227 25.0672 47.5057C24.8741 47.7901 24.6987 48.0887 24.3603 48.2362Z" fill="#1E425E"/>
<path d="M71.7143 72.8815C71.7216 69.9871 71.7286 67.0926 71.7352 64.1982C71.7387 59.4572 71.7844 54.715 71.704 49.9755C71.6826 48.7075 72.0577 47.7218 72.7842 46.7306C74.6092 44.2423 76.3675 41.7068 78.1544 39.1919C79.4514 37.366 80.7493 35.5407 82.0483 33.7162C82.113 33.5949 82.2191 33.4999 82.348 33.4478C83.4288 34.7296 84.3189 36.1452 85.2889 37.5041C87.7402 40.9383 90.1611 44.3933 92.6113 47.8283C92.8256 48.1221 92.9352 48.4772 92.923 48.8385C92.9164 56.6419 92.9194 64.4455 92.932 72.2491C92.9336 72.8466 92.7883 73.0158 92.1658 73.0119C87.9655 72.986 83.7639 73.0023 79.5629 73.005C79.5555 72.9647 79.5616 72.9231 79.5801 72.8864C79.5987 72.8496 79.6288 72.8198 79.666 72.8012C79.9718 72.6548 80.3017 72.6901 80.6243 72.6895C82.6904 72.6853 84.7566 72.6917 86.8227 72.6854C87.6394 72.6829 87.6905 72.6334 87.6916 71.8291C87.6962 68.4752 87.7036 65.1214 87.6902 61.7677C87.6792 59.0382 85.9149 56.9549 83.1646 56.3855C81.5544 56.2592 80.0736 56.5456 78.8239 57.6421C77.6146 58.7033 76.9582 60.0021 76.9587 61.6085C76.9593 65.0062 76.9586 68.4038 76.9565 71.8014C76.9565 72.1401 77.0043 72.4883 76.8314 72.8081C76.8014 72.8359 76.7711 72.8636 76.7405 72.8911L71.7143 72.8815Z" fill="#AFD873"/>
<path d="M24.3555 48.2364C28.073 42.7574 31.7906 37.2785 35.5084 31.7996C35.598 31.6674 35.6904 31.5372 35.7815 31.406C37.0919 31.2349 38.4085 31.3772 39.7198 31.3291C40.1983 31.3575 39.9946 31.6484 39.8911 31.838C39.6171 32.3037 39.3188 32.7552 38.9976 33.1908C38.9412 33.2756 38.882 33.3588 38.8252 33.4434C37.4629 35.446 36.104 37.4511 34.7482 39.4585C34.0127 40.542 34.1092 40.8606 35.3219 41.3883C35.4555 41.4304 35.5669 41.5223 35.6323 41.6443C35.7926 42.4064 36.3332 42.6654 37.0544 42.6909C37.3096 42.6997 37.5648 42.6998 37.8201 42.6998C47.6829 42.6998 57.5458 42.6861 67.4085 42.7189C68.558 42.7227 69.2889 42.3346 69.9326 41.4005C72.1433 38.1907 74.4286 35.0299 76.6726 31.8412C76.7677 31.6841 76.8893 31.544 77.0321 31.4268C77.1018 31.3835 77.178 31.3514 77.258 31.3317L80.8117 31.3963C78.5849 34.5565 76.3576 37.7164 74.13 40.8761C72.5071 43.1742 70.8692 45.4617 69.2593 47.7688C69.0226 48.108 68.7857 48.2565 68.3615 48.2561C53.7392 48.2459 39.1168 48.2426 24.4943 48.2463C24.4481 48.2465 24.4018 48.2398 24.3555 48.2364Z" fill="#256670"/>
<path d="M77.2612 31.3323C77.2365 31.3634 77.2026 31.3862 77.1642 31.3975C76.4632 31.7608 75.7232 31.5867 74.9931 31.5518C74.5864 31.429 74.1668 31.4649 73.7518 31.4649C69.234 31.462 64.7163 31.4597 60.1986 31.4579C59.7961 31.4572 59.2701 31.6085 59.0451 31.1972C58.82 30.7859 59.2376 30.4394 59.4588 30.1072C60.372 28.7353 61.2966 27.3709 62.2326 26.0139C62.3931 25.7801 62.503 25.4635 62.883 25.4729C63.3402 25.5505 63.8046 25.5802 64.2683 25.5615C68.744 25.5619 73.2198 25.5633 77.6956 25.5656C78.0811 25.5656 78.492 25.4876 78.8269 25.775C77.5796 27.5639 76.3322 29.3529 75.0254 31.2268L77.2612 31.3323Z" fill="#3D8AF1"/>
<path d="M40.2637 31.1239C41.7253 28.7523 43.3697 26.4985 44.9172 24.1826C45.2023 23.7558 45.3961 23.2297 45.9545 23.033C46.1054 22.9492 46.2711 22.9771 46.4314 22.9772C51.5322 22.9798 56.633 22.9683 61.7324 22.9818C61.9629 23.079 61.9604 23.2765 61.8673 23.4366C61.3756 24.2828 60.8836 25.1312 60.184 25.8373C60.1102 25.8934 60.0224 25.9291 59.9298 25.9407C58.378 26.034 56.8249 25.9706 55.2725 25.9806C53.3713 25.9929 51.4702 26.0012 49.5701 25.9742C48.8958 25.9647 48.4283 26.2007 48.0595 26.7474C47.2142 28.0006 46.3501 29.242 45.5203 30.505C45.1426 31.0799 44.6777 31.351 43.9694 31.3214C42.9975 31.2809 42.0226 31.316 41.049 31.3085C40.7758 31.3058 40.4845 31.3516 40.2637 31.1239Z" fill="#056CF1"/>
<path d="M40.2636 31.1244C41.5869 31.1211 42.9104 31.1034 44.2334 31.1224C44.6755 31.1287 44.951 30.9946 45.1977 30.6163C46.0848 29.2558 47.0215 27.9268 47.923 26.5753C48.2933 26.0201 48.7324 25.749 49.4603 25.758C52.9888 25.8015 56.5179 25.7853 60.047 25.7906C60.2036 26.0948 59.9987 26.317 59.8521 26.5374C58.9023 27.9663 57.9288 29.38 56.9699 30.8029C56.658 31.2655 56.2464 31.4643 55.6877 31.4643C50.7554 31.4639 45.8231 31.4627 40.8907 31.4606C40.6596 31.4606 40.4265 31.4599 40.2132 31.3472C40.1824 31.319 40.1517 31.2905 40.1211 31.2617L40.2636 31.1244Z" fill="#3D8AF1"/>
<path d="M78.8251 25.7753C73.7432 25.7753 68.6613 25.7726 63.5794 25.7673C63.3207 25.7673 62.9478 25.9594 62.8222 25.5161C62.7188 25.2861 62.8649 25.1106 62.988 24.9612C63.5195 24.3183 63.7546 23.448 64.5416 22.9997C69.408 22.9663 74.273 22.9556 79.138 23.0044C79.9602 23.4389 80.1256 23.9618 79.6407 24.6983C79.394 25.0732 79.0986 25.4172 78.8251 25.7753Z" fill="#056CF1"/>
<path d="M79.1436 23.004C74.504 23.0092 69.8644 23.0147 65.2249 23.0206C64.9285 23.0206 64.6169 22.9619 64.3654 23.1895C63.5402 23.2714 62.7087 23.2705 61.8837 23.1868C61.7494 22.9596 61.5205 23.0221 61.322 23.0222C56.2006 23.0237 51.079 23.0274 45.957 23.0331C46.167 22.8267 46.4353 22.8925 46.6829 22.8924C57.2825 22.8894 67.8819 22.8897 78.4814 22.8932C78.7042 22.8935 78.949 22.8184 79.1436 23.004Z" fill="#8EBBF3"/>
<path d="M39.9632 31.3985L35.7872 31.4072L33.0117 31.3907C33.2029 31.1327 33.4824 31.2524 33.7186 31.2519C35.8533 31.2468 37.9882 31.2564 40.1229 31.2618L40.115 31.2535C40.1445 31.3828 40.0955 31.4327 39.9632 31.3985Z" fill="#89B3DB"/>
<path d="M79.5724 72.9253C79.565 72.9517 79.5629 72.9793 79.5662 73.0065L76.7653 72.989C76.7697 72.9724 76.7702 72.955 76.7665 72.9383C76.7628 72.9215 76.7552 72.9058 76.7441 72.8925L76.7942 72.898C77.6386 72.5064 78.5143 72.7088 79.3829 72.7649C79.4625 72.7962 79.5291 72.8526 79.5724 72.9253Z" fill="#256670"/>
<path d="M27.1641 60.6183V58.594C27.4515 58.3975 27.7831 58.4285 28.1036 58.4348C30.4138 58.4809 32.7239 58.4433 35.0341 58.452C35.3259 58.453 35.6445 58.5265 35.8712 58.2537C36.0909 57.7737 35.9721 57.268 35.9849 56.7757C36.0102 55.8021 35.9721 54.8276 36.0027 53.8537C36.0228 53.3796 35.8574 52.8771 36.2253 52.457H38.2801C38.6504 52.8807 38.4799 53.3867 38.5033 53.8631C38.5406 55.116 38.5033 56.3695 38.5225 57.6226C38.5336 58.3453 38.5993 58.4237 39.3132 58.4253C43.5105 58.4348 47.7078 58.4348 51.9051 58.4253C52.6236 58.4238 52.6924 58.344 52.7043 57.6293C52.7253 56.3762 52.6847 55.1226 52.7237 53.8693C52.745 53.3902 52.5754 52.8822 52.947 52.4571H55.0006C55.3679 52.8765 55.2004 53.378 55.2231 53.8501C55.2534 55.0354 55.2256 56.2213 55.2385 57.407C55.2417 57.7003 55.1943 58.0034 55.3754 58.2686C55.6185 58.5241 55.9364 58.4517 56.2303 58.4524C58.5515 58.4575 60.8728 58.4494 63.194 58.4601C63.5728 58.4618 64.0561 58.3574 64.2012 58.8512C64.3619 59.3999 64.4197 59.9903 64.1229 60.5145C63.94 60.8375 63.5462 60.7543 63.2292 60.7555C60.8848 60.7635 58.5405 60.757 56.1961 60.7617C55.9018 60.7624 55.5827 60.6933 55.3571 60.9687C55.2034 61.2438 55.2428 61.5437 55.242 61.8353C55.2376 63.3748 55.2439 64.9144 55.2374 66.454C55.236 66.7907 55.2727 67.1383 55.0558 67.4389C54.7158 67.5807 54.3505 67.6551 53.9811 67.6576C53.6117 67.6601 53.2455 67.5908 52.9035 67.4537C52.6714 67.1577 52.7097 66.8059 52.7082 66.4675C52.7008 64.8706 52.7107 63.2732 52.7026 61.6761C52.6984 60.8385 52.6487 60.7884 51.7881 60.7876C47.6787 60.7832 43.5694 60.7832 39.4602 60.7876C38.5695 60.7885 38.5253 60.8358 38.5217 61.7232C38.5153 63.2746 38.5229 64.8261 38.5176 66.3776C38.5165 66.7173 38.5527 67.0655 38.3722 67.3819C37.7027 67.7873 36.9942 67.634 36.2881 67.5216C36.2071 67.4824 36.1409 67.419 36.099 67.3405C35.9647 67.0378 35.9904 66.7153 35.9895 66.3978C35.9851 64.8714 35.9901 63.3454 35.9857 61.8185C35.9848 61.5252 36.0264 61.2231 35.8599 60.9538C35.6697 60.7291 35.4067 60.7588 35.1552 60.7601C32.8268 60.772 30.4983 60.7335 28.17 60.7782C27.8287 60.7839 27.4739 60.8263 27.1641 60.6183Z" fill="#256670"/>
<path d="M36.2327 67.4281L38.282 67.44C38.5915 67.3116 38.9183 67.3314 39.2427 67.3314H51.9838C52.3083 67.3314 52.6352 67.3117 52.9447 67.44H55.0039C55.3145 67.3148 55.6416 67.3365 55.9655 67.3365C57.9158 67.3365 59.8661 67.3365 61.8163 67.3365C62.1182 67.3447 62.4202 67.3301 62.7198 67.293C63.5721 67.1637 63.8416 66.8802 63.852 66.028C63.8696 64.5907 63.8646 63.153 63.8539 61.7155C63.8487 61.0055 63.7732 60.9276 63.0502 60.9238C60.729 60.9114 58.4067 60.9255 56.0849 60.9137C55.7292 60.9118 55.3292 61.0052 55.0645 60.6434C57.0068 60.6271 58.949 60.6111 60.8913 60.5954C61.7711 60.5894 62.6516 60.5763 63.5307 60.6019C63.9583 60.6143 64.079 60.4649 64.0864 60.0527C64.1122 58.6227 64.128 58.6285 62.6976 58.6217C60.1532 58.6098 57.6089 58.5939 55.0646 58.5742C55.3292 58.2132 55.7289 58.3038 56.085 58.3019C58.3371 58.2911 60.5892 58.3 62.8412 58.2951C63.8189 58.2929 63.8504 58.2578 63.8554 57.2899C63.8596 56.4685 63.8523 55.647 63.8586 54.8257C63.8609 54.5307 63.8381 54.2295 63.995 53.9566C64.0268 53.9264 64.0592 53.8965 64.0916 53.8666C65.1783 53.8324 65.4694 54.1018 65.4696 55.1533C65.4707 59.257 65.4707 63.3608 65.4696 67.4646C65.4696 68.4633 65.0779 68.8653 64.0646 68.9127C63.972 68.917 63.879 68.9136 63.7862 68.9136C52.6045 68.9136 41.4229 68.9136 30.2412 68.9136C30.0558 68.9227 29.87 68.917 29.6855 68.8965C28.8665 68.7637 28.5604 68.3955 28.5449 67.5495C28.7003 67.3811 28.9097 67.367 29.118 67.3661C31.3763 67.3568 33.6346 67.3514 35.8928 67.3684C36.0078 67.3772 36.1217 67.3972 36.2327 67.4281V67.4281Z" fill="#8CBE3F"/>
<path d="M38.3156 53.8576C38.3028 53.3911 38.2901 52.9247 38.2773 52.4581C38.4604 52.3188 38.6753 52.3634 38.8798 52.3633C43.3674 52.3611 47.8548 52.3611 52.3417 52.3633C52.5456 52.3633 52.7611 52.3184 52.944 52.4582C52.9313 52.9245 52.9185 53.3909 52.9058 53.8576C52.642 54.1068 52.305 54.0748 51.9842 54.0748C47.7352 54.0807 43.4861 54.0807 39.2371 54.0748C38.916 54.0748 38.5793 54.1068 38.3156 53.8576Z" fill="#B6CAF1"/>
<path d="M36.2219 52.4579L36.1834 53.8575C35.8951 54.1174 35.534 54.0652 35.1926 54.0667C33.4793 54.0749 31.7654 54.0614 30.0519 54.0738C28.9649 54.0816 28.7673 54.2868 28.7593 55.3643C28.754 56.0697 28.75 56.7753 28.7609 57.4806C28.7719 58.2193 28.8389 58.2896 29.612 58.2942C31.4644 58.305 33.317 58.2926 35.1695 58.3019C35.5091 58.3035 35.8722 58.2417 36.1582 58.5091C35.9872 58.6889 35.7651 58.604 35.5683 58.6041C32.766 58.6062 29.9636 58.6033 27.1612 58.5956C27.1563 56.9075 27.1447 55.2198 27.1496 53.532C27.1516 52.8337 27.477 52.3955 28.1673 52.3873C30.8116 52.3561 33.4567 52.3844 36.1014 52.3936C36.1418 52.3937 36.1818 52.4356 36.2219 52.4579Z" fill="#B5C9F1"/>
<path d="M55.0402 53.858C55.0275 53.3916 55.0147 52.9251 55.002 52.4585C57.7286 52.263 60.4589 52.3348 63.1852 52.4238C64.0181 52.451 64.1148 53.1842 64.0916 53.8661L64.0598 53.8489C63.8004 54.0975 63.4672 54.0741 63.1474 54.0749C60.7499 54.0812 58.3522 54.0812 55.9545 54.0749C55.6366 54.0738 55.3019 54.1054 55.0402 53.858Z" fill="#B6CAF1"/>
<path d="M36.2252 67.4264C35.9676 67.5806 35.6827 67.5098 35.4105 67.5117C33.1196 67.528 30.8287 67.5397 28.5377 67.5468C27.4103 67.4624 27.1408 67.1793 27.1426 66.0646C27.1455 64.2493 27.1503 62.4341 27.1571 60.6189C29.9596 60.6148 32.7619 60.6119 35.5642 60.6103C35.7609 60.6103 35.983 60.5255 36.1541 60.7054C35.8681 60.973 35.5047 60.9142 35.1644 60.9158C33.3326 60.9248 31.5008 60.9147 29.6691 60.9222C28.8142 60.9257 28.7627 60.9782 28.7588 61.8138C28.7526 63.2949 28.7523 64.7761 28.7582 66.2573C28.7608 67.1515 28.7981 67.1906 29.6903 67.1935C31.5221 67.1993 33.3539 67.1909 35.1856 67.1988C35.5274 67.2002 35.8895 67.1493 36.1749 67.4154L36.2252 67.4264Z" fill="#B5C9F1"/>
<path d="M83.1696 56.208C85.7603 56.5665 87.86 58.8407 87.8884 61.431C87.9283 65.0794 87.8925 68.7285 87.9132 72.3772C87.9159 72.8603 87.718 72.9327 87.2973 72.9305C84.7218 72.9167 82.1458 72.9239 79.5701 72.9242L79.5258 72.8764C79.2915 72.6057 79.3414 72.2757 79.3409 71.9623C79.3367 68.5494 79.3106 65.1362 79.3479 61.7237C79.3747 59.2627 80.5591 57.4872 82.8349 56.4335C82.9608 56.375 83.0963 56.3378 83.1696 56.208Z" fill="#256670"/>
<path d="M83.1743 56.2075C83.4937 56.454 83.2274 56.5027 83.044 56.5741C81.386 57.2192 80.3202 58.399 79.7975 60.061C79.6304 60.5804 79.5444 61.1216 79.5425 61.6662C79.5452 65.403 79.5412 69.1398 79.5307 72.8766C78.6192 72.8833 77.7079 72.8902 76.7966 72.8971C76.7844 69.8859 76.7635 66.8746 76.7644 63.8633C76.7644 62.8152 76.6579 61.7592 76.8223 60.7194C77.0607 59.2957 77.8623 58.0224 79.0522 57.1771C80.2422 56.3319 81.7239 55.9833 83.1743 56.2075V56.2075Z" fill="#1E425E"/>
<path d="M39.9607 31.3977L40.1125 31.2527C45.3076 31.2442 50.5034 31.228 55.6988 31.2391C56.2243 31.2402 56.548 31.0959 56.8283 30.6517C57.8653 29.0089 59.0598 27.4658 60.0465 25.7899C60.6582 24.9222 61.2695 24.0544 61.8804 23.1865C62.6907 22.9525 63.5524 22.9535 64.3621 23.1893C63.8495 23.9646 63.337 24.74 62.8244 25.5154C61.6536 27.2334 60.4839 28.952 59.3151 30.6712C59.2199 30.8118 59.0132 30.9564 59.1383 31.1421C59.2521 31.3106 59.4809 31.2239 59.6578 31.2241C64.4981 31.228 69.3383 31.2304 74.1785 31.2313C74.4464 31.2313 74.7386 31.1421 74.9764 31.3548C74.6032 32.2021 74.185 33.0154 73.2994 33.473C72.5353 33.5478 71.7696 33.5076 71.005 33.5085C66.877 33.5133 62.749 33.5234 58.6211 33.4984C57.9159 33.4942 57.4649 33.7194 57.0777 34.3042C55.6618 36.4442 54.2107 38.5613 52.765 40.6821C52.5728 40.9645 52.4133 41.2755 52.1129 41.4725C51.4074 41.6758 50.687 41.5777 49.9735 41.5539C49.5534 41.5399 49.4871 41.2762 49.6464 40.9322C49.761 40.7081 49.8938 40.4935 50.0435 40.2904C51.4215 38.2621 52.7974 36.2326 54.171 34.2018C54.2957 34.018 54.4781 33.8572 54.4835 33.6043C54.2767 33.445 54.036 33.5161 53.8133 33.5151C52.3985 33.5084 50.9836 33.4807 49.5695 33.5179C46.2313 33.6055 42.8997 33.338 39.563 33.3615C39.3126 33.3632 39.0454 33.3902 38.8535 33.1684C39.2227 32.5779 39.5918 31.9877 39.9607 31.3977Z" fill="#CDDDF1"/>
<path d="M38.8591 33.1675C43.4683 33.2573 48.0786 33.3098 52.6892 33.282C53.4235 33.2775 54.1579 33.2813 55.0294 33.2813L49.5477 41.3805H52.0789C52.4125 41.1905 52.7781 41.1689 53.1527 41.169C57.5249 41.1706 61.8971 41.1719 66.2692 41.1731C66.6118 41.1731 66.9695 41.1296 67.2682 41.3651C67.2903 41.7106 67.0029 41.6856 66.7959 41.7236C66.4965 41.7608 66.1942 41.7709 65.8929 41.7538C57.006 41.7543 48.1195 41.7541 39.2333 41.7531C38.8629 41.7531 38.4902 41.778 38.1261 41.6929C37.6603 41.5346 37.8452 41.2338 38.0023 40.9903C38.4106 40.3571 38.805 39.7151 39.2278 39.091C40.3679 37.4078 41.5076 35.7241 42.6467 34.0399C42.7411 33.8998 42.9485 33.7598 42.8236 33.5689C42.7292 33.4242 42.5237 33.4953 42.3676 33.4946C41.4198 33.4899 40.4719 33.4968 39.524 33.4893C39.2523 33.4872 38.9621 33.5351 38.7384 33.3134L38.8591 33.1675Z" fill="#3D8AF1"/>
<path d="M37.8943 41.4625C38.1485 41.4744 38.4027 41.4965 38.657 41.4966C47.9323 41.4984 57.2077 41.4977 66.483 41.4947C66.7546 41.4947 67.0417 41.5693 67.2956 41.4007C68.1923 40.8442 68.6287 39.9079 69.2121 39.1037C70.46 37.3836 71.6799 35.6432 72.8994 33.9031C73.0569 33.6783 73.199 33.4417 73.4631 33.3171C73.9666 32.6632 74.4703 32.0091 74.9742 31.355C75.7038 31.3689 76.4333 31.383 77.1628 31.3975C76.2002 33.0615 74.9751 34.5519 73.8978 36.1403C72.5767 38.0881 71.1519 39.9678 69.8183 41.9077C69.3406 42.6029 68.7669 42.9071 67.919 42.906C57.6792 42.8925 47.4395 42.8894 37.1998 42.8966C35.9027 42.8966 35.5218 42.5859 35.5117 41.5388C36.2939 41.1625 37.0921 41.2543 37.8943 41.4625Z" fill="#1E425E"/>
<path d="M37.9008 41.4642L35.5177 41.5402C34.2864 41.5444 33.6878 40.6054 34.521 39.4591C35.9816 37.4495 37.3376 35.3669 38.7376 33.3149H43.3303L37.9008 41.4642Z" fill="#056CF1"/>
<path d="M52.9399 67.4393C52.7603 67.4741 52.5786 67.4972 52.3959 67.5085C47.8713 67.5124 43.3464 67.5124 38.8212 67.5085C38.6385 67.4971 38.4569 67.4739 38.2773 67.439C38.2824 65.3668 38.3022 63.2943 38.2818 61.2221C38.2771 60.7469 38.4108 60.608 38.8994 60.6099C43.3724 60.6274 47.8453 60.6274 52.3183 60.6099C52.8072 60.608 52.9405 60.7471 52.9358 61.2222C52.915 63.2944 52.9347 65.3666 52.9399 67.4393Z" fill="#CDDDF1"/>
<path d="M38.3171 53.8569H52.9076C52.9144 55.2691 52.8965 56.6819 52.9407 58.0927C52.9581 58.6419 52.6515 58.5972 52.2886 58.5968C49.1823 58.5927 46.0761 58.592 42.9698 58.5945C41.602 58.5945 40.2343 58.5856 38.8667 58.6001C38.4863 58.6042 38.2733 58.5604 38.2857 58.0929C38.3227 56.6816 38.3102 55.269 38.3171 53.8569Z" fill="#CDDDF1"/>
<path d="M55.063 60.6426C57.819 60.6491 60.5753 60.6766 63.3309 60.6463C63.9603 60.6393 64.1046 60.8229 64.0893 61.412C64.0479 63.0272 64.0803 64.6441 64.0725 66.2604C64.0686 67.035 63.7961 67.4258 63.0458 67.452C60.3655 67.5454 57.683 67.5775 55.002 67.4392C55.007 65.4216 55.0128 63.4039 55.0193 61.3859C55.0204 61.138 55.0478 60.8904 55.063 60.6426Z" fill="#CDDDF1"/>
<path d="M36.1831 67.4172C33.8675 67.4163 31.5517 67.3992 29.2364 67.4261C28.6866 67.4325 28.5218 67.2759 28.5316 66.7342C28.564 64.9596 28.5685 63.1837 28.5298 61.4095C28.517 60.8181 28.7288 60.6936 29.285 60.6999C31.5772 60.726 33.8699 60.7086 36.1623 60.7072C36.2509 62.9436 36.2112 65.1805 36.1831 67.4172Z" fill="#CDDDF1"/>
<path d="M55.0387 53.8568L64.0588 53.8477C64.0644 55.1901 64.0465 56.5332 64.0873 57.8746C64.1033 58.405 63.9547 58.5698 63.3978 58.5653C60.6196 58.5436 57.8411 58.5653 55.0635 58.5717C54.9733 57.0014 55.0196 55.4287 55.0387 53.8568Z" fill="#CDDDF1"/>
<path d="M36.1605 58.5085C33.8421 58.507 31.5235 58.4919 29.2052 58.5147C28.6934 58.5197 28.5099 58.3858 28.5309 57.8643C28.5701 56.886 28.5344 55.9051 28.5447 54.9254C28.5529 54.151 28.8507 53.8586 29.6474 53.8563C31.8268 53.85 34.0062 53.8563 36.1856 53.8569C36.2043 55.4075 36.251 56.9581 36.1605 58.5085Z" fill="#CDDDF1"/>
<path d="M73.4717 33.3178C72.0444 35.3627 70.6167 37.4071 69.1884 39.4509C68.8342 39.9572 68.469 40.456 68.107 40.957C67.911 41.2285 67.6768 41.4368 67.304 41.4014L52.0801 41.3811C53.8186 38.8023 55.557 36.2235 57.2953 33.6445C57.443 33.4254 57.6091 33.2772 57.9091 33.2783C63.0967 33.2961 68.2842 33.3093 73.4717 33.3178Z" fill="#3D8AF1"/>
<path d="M9.26629 68.1302C9.2629 62.4202 9.26072 56.7103 9.25977 51.0004C9.26043 50.0317 10.2049 49.1123 11.195 49.1117C20.0082 49.1067 28.8215 49.1067 37.6347 49.1117C38.6239 49.1117 39.5691 50.0328 39.5699 51.0006C39.5736 56.7105 39.5714 62.4204 39.5633 68.1302C39.0848 69.2435 38.248 69.6772 37.0066 69.6728C28.612 69.642 20.2174 69.642 11.8228 69.6728C10.582 69.6772 9.74479 69.2439 9.26629 68.1302ZM15.003 55.2729C15.8506 55.2729 16.6985 55.2854 17.5453 55.269C18.2428 55.2555 18.6384 54.8739 18.6592 54.1974C18.6789 53.5571 18.6763 52.9156 18.6608 52.2747C18.6436 51.5577 18.253 51.1721 17.5175 51.1667C15.8442 51.1549 14.1708 51.1549 12.4972 51.1667C11.7588 51.1717 11.3678 51.5553 11.3499 52.27C11.3344 52.8892 11.3367 53.5083 11.349 54.1275C11.3639 54.8837 11.7483 55.2588 12.5249 55.2695C13.3513 55.2821 14.1773 55.2732 15.0032 55.2729H15.003ZM15.0054 61.4372C15.853 61.4372 16.7009 61.4499 17.5477 61.4333C18.2441 61.4196 18.6387 61.0372 18.6592 60.3593C18.6787 59.7191 18.6764 59.0775 18.6608 58.4372C18.6432 57.7219 18.2518 57.3368 17.5151 57.3317C15.8417 57.32 14.1683 57.32 12.4948 57.3317C11.7575 57.3368 11.3673 57.7216 11.3499 58.4374C11.3346 59.0566 11.3365 59.6758 11.349 60.2955C11.3642 61.0507 11.7493 61.4245 12.5274 61.4351C13.3538 61.4463 14.1797 61.4376 15.0057 61.4372H15.0054ZM24.436 61.4372C25.2619 61.4372 26.0879 61.4469 26.9136 61.4342C27.6551 61.4227 28.0501 61.0489 28.0693 60.3371C28.0867 59.6968 28.0867 59.0562 28.0693 58.415C28.0503 57.7315 27.6621 57.3384 26.9678 57.3324C25.2729 57.3179 23.5777 57.3177 21.8822 57.3317C21.1551 57.3375 20.7741 57.7325 20.7584 58.458C20.7455 59.0554 20.7485 59.6542 20.7574 60.252C20.7695 61.0526 21.1452 61.4252 21.9585 61.4348C22.7844 61.4452 23.6103 61.4376 24.4362 61.4376L24.436 61.4372ZM33.8243 61.4372C34.6719 61.4372 35.5198 61.45 36.3666 61.4333C37.063 61.4195 37.4566 61.0368 37.477 60.3579C37.4962 59.7177 37.4941 59.076 37.4783 58.4358C37.4608 57.721 37.0687 57.3365 36.3315 57.3315C34.6581 57.32 32.9847 57.32 31.3112 57.3315C30.5744 57.3367 30.185 57.7219 30.1674 58.4384C30.1524 59.0576 30.1541 59.6768 30.1666 60.2965C30.182 61.0509 30.5679 61.4245 31.3462 61.4349C32.1727 61.4463 32.9986 61.4376 33.8245 61.4372H33.8243ZM14.9462 67.6016C15.8155 67.6016 16.6852 67.6147 17.5541 67.5974C18.2498 67.5835 18.64 67.1995 18.6595 66.5178C18.6783 65.8775 18.6769 65.236 18.6606 64.5957C18.6423 63.8824 18.2492 63.5008 17.5091 63.4959C15.8357 63.4848 14.1623 63.4848 12.4888 63.4959C11.7537 63.5012 11.367 63.8882 11.3495 64.6072C11.335 65.2047 11.3399 65.8033 11.3479 66.4012C11.3589 67.2328 11.7347 67.593 12.5986 67.6003C13.3816 67.6073 14.1641 67.6021 14.9464 67.6016H14.9462ZM24.4163 67.6016C25.2639 67.6016 26.1118 67.6145 26.9586 67.5975C27.655 67.5836 28.0479 67.2008 28.0682 66.5216C28.0874 65.8814 28.0854 65.2398 28.0696 64.5995C28.0518 63.885 27.6595 63.5011 26.9219 63.496C25.2485 63.4845 23.575 63.4845 21.9015 63.496C21.1651 63.5012 20.776 63.887 20.7586 64.604C20.7436 65.2232 20.7453 65.843 20.7579 66.4621C20.7732 67.2159 21.1595 67.5893 21.9382 67.5997C22.7647 67.6106 23.5906 67.602 24.4165 67.6016H24.4163ZM33.8891 63.4926C33.0197 63.4926 32.1502 63.4803 31.2811 63.4965C30.5833 63.5096 30.1887 63.892 30.1691 64.5689C30.1504 65.2091 30.1527 65.8507 30.1681 66.4916C30.1852 67.2078 30.5754 67.5934 31.312 67.5986C32.9855 67.6106 34.6589 67.6106 36.3324 67.5986C37.0691 67.5934 37.4599 67.2086 37.4787 66.4929C37.4948 65.8737 37.4925 65.254 37.4799 64.6348C37.4645 63.8799 37.0785 63.5059 36.3015 63.4952C35.4978 63.4837 34.6934 63.4923 33.8893 63.4926H33.8891ZM33.8685 51.1634C33.0209 51.1634 32.1731 51.1539 31.3262 51.1662C30.5836 51.1771 30.1877 51.5507 30.1688 52.2602C30.1521 52.9005 30.1521 53.5412 30.1688 54.1823C30.1872 54.8655 30.5752 55.2614 31.2675 55.2676C32.9624 55.2828 34.6576 55.2831 36.3531 55.2684C37.0795 55.2628 37.4632 54.8673 37.4794 54.1434C37.4935 53.5244 37.4935 52.905 37.4794 52.2853C37.4628 51.5633 37.078 51.1801 36.3462 51.167C35.5208 51.1523 34.6946 51.1637 33.8687 51.1636L33.8685 51.1634ZM24.4299 55.2725C25.2776 55.2725 26.1255 55.2859 26.9722 55.2682C27.6372 55.2543 28.0422 54.878 28.0657 54.2433C28.0911 53.5607 28.0905 52.8759 28.0665 52.1932C28.045 51.5815 27.6553 51.1787 27.0385 51.1721C25.3 51.1523 23.5614 51.1517 21.8226 51.1704C21.1695 51.1768 20.7808 51.5784 20.7601 52.2246C20.7401 52.8438 20.7482 53.4629 20.7569 54.0827C20.7679 54.8855 21.1427 55.2613 21.9518 55.2713C22.7783 55.2813 23.6043 55.2733 24.4301 55.2727L24.4299 55.2725Z" fill="#CDDDF1"/>
<path d="M9.2696 68.1313C9.7481 69.2447 10.585 69.6783 11.8265 69.6739C20.221 69.6432 28.6156 69.6432 37.0102 69.6739C38.2515 69.6784 39.0883 69.2447 39.567 68.1313C39.5702 69.3053 39.5825 70.479 39.5743 71.6526C39.5653 72.9194 38.6929 73.7627 37.3857 73.7653C33.9329 73.7725 30.4802 73.775 27.0275 73.7726H21.8089C18.3996 73.7708 14.9903 73.7689 11.581 73.7668C10.0717 73.7653 9.26054 72.9589 9.25977 71.4602C9.2601 70.3507 9.26629 69.241 9.2696 68.1313Z" fill="#A4C2DB"/>
<path d="M27.0316 76.8403C27.9883 76.8434 28.9451 76.8348 29.9014 76.8524C30.4616 76.8527 31.0035 77.049 31.4298 77.4062C31.8562 77.7634 32.1391 78.2581 32.228 78.8017C32.3496 79.5204 32.0297 79.9268 31.292 79.9278C26.7044 79.9344 22.1166 79.9344 17.5288 79.9278C16.7904 79.9268 16.4724 79.5221 16.5934 78.8005C16.6826 78.257 16.9658 77.7624 17.3923 77.4055C17.8187 77.0485 18.3606 76.8524 18.9208 76.8524C19.8772 76.8349 20.834 76.8434 21.7905 76.8403H27.0316Z" fill="#91C73C"/>
<path d="M27.0362 76.8402H21.7949C21.7988 75.8173 21.8025 74.7946 21.806 73.772H27.0246L27.0362 76.8402Z" fill="#4B9541"/>
<path d="M14.9956 55.2726C14.1697 55.2726 13.3437 55.2816 12.518 55.2702C11.7414 55.2593 11.3574 54.8843 11.342 54.1282C11.3297 53.509 11.3274 52.8891 11.3429 52.2707C11.3608 51.556 11.7519 51.1723 12.4902 51.1673C14.1636 51.1558 15.8371 51.1558 17.5106 51.1673C18.2461 51.1725 18.6366 51.5584 18.6538 52.2753C18.6693 52.9162 18.672 53.5571 18.6523 54.198C18.6314 54.8746 18.2358 55.2562 17.5383 55.2696C16.6911 55.2847 15.8432 55.2724 14.9956 55.2726Z" fill="#056CF1"/>
<path d="M14.998 61.4372C14.1721 61.4372 13.3462 61.4461 12.5204 61.4349C11.7423 61.424 11.3573 61.0505 11.342 60.2953C11.3295 59.6761 11.3276 59.0563 11.3429 58.4372C11.3605 57.7214 11.7505 57.3366 12.4878 57.3315C14.1612 57.3198 15.8347 57.3198 17.5081 57.3315C18.2446 57.3366 18.6363 57.7217 18.6538 58.437C18.6694 59.0774 18.6717 59.7188 18.6523 60.3591C18.6317 61.037 18.2376 61.4194 17.5407 61.433C16.6935 61.4497 15.8456 61.437 14.998 61.4372Z" fill="#056CF1"/>
<path d="M24.4285 61.4377C23.6027 61.4377 22.7767 61.4453 21.951 61.4356C21.1377 61.4259 20.7619 61.0535 20.7499 60.2529C20.741 59.6554 20.738 59.0566 20.7509 58.4588C20.7666 57.7334 21.1476 57.3383 21.8747 57.3325C23.5696 57.3193 25.2648 57.3195 26.9603 57.3332C27.6546 57.3393 28.0428 57.7323 28.0619 58.4159C28.0796 59.0561 28.0796 59.6968 28.0619 60.3379C28.0426 61.0494 27.6476 61.4232 26.9061 61.4351C26.0804 61.4474 25.2544 61.4377 24.4285 61.4377Z" fill="#056CF1"/>
<path d="M33.8234 61.4372C32.9975 61.4372 32.1716 61.4461 31.3458 61.4349C30.5674 61.424 30.1816 61.0509 30.1662 60.2965C30.1537 59.6773 30.1519 59.0575 30.167 58.4384C30.1845 57.7215 30.5739 57.3367 31.3108 57.3315C32.9841 57.3198 34.6576 57.3198 36.3311 57.3315C37.0683 57.3365 37.4603 57.721 37.4779 58.4358C37.4937 59.0762 37.4958 59.7176 37.4766 60.3579C37.4561 61.0366 37.0627 61.4193 36.3662 61.4333C35.5189 61.4498 34.671 61.437 33.8234 61.4372Z" fill="#056CF1"/>
<path d="M14.9473 67.6019C14.1649 67.6019 13.3825 67.6074 12.6001 67.6008C11.7363 67.5935 11.3607 67.2333 11.3494 66.4018C11.3415 65.8043 11.3366 65.2055 11.3511 64.6078C11.3685 63.8888 11.7553 63.5018 12.4904 63.4964C14.1638 63.4843 15.8372 63.4843 17.5107 63.4964C18.2507 63.5013 18.6439 63.8829 18.6621 64.5963C18.6785 65.2366 18.6798 65.8781 18.661 66.5183C18.6411 67.2001 18.2509 67.5841 17.5557 67.598C16.6863 67.6146 15.8167 67.6017 14.9473 67.6019Z" fill="#056CF1"/>
<path d="M24.4102 67.6021C23.5843 67.6021 22.7584 67.6109 21.9326 67.5998C21.1538 67.589 20.7675 67.216 20.7522 66.4622C20.7396 65.843 20.7379 65.2232 20.7529 64.6041C20.7703 63.8872 21.1594 63.5016 21.8959 63.4961C23.5693 63.4844 25.2427 63.4844 26.9162 63.4961C27.6538 63.5012 28.0461 63.8851 28.0639 64.5996C28.0797 65.24 28.0817 65.8815 28.0626 66.5217C28.0422 67.201 27.6494 67.5838 26.9529 67.5977C26.1057 67.6148 25.2578 67.6019 24.4102 67.6021Z" fill="#056CF1"/>
<path d="M33.8895 63.4937C34.6937 63.4937 35.498 63.4849 36.3019 63.496C37.079 63.5069 37.465 63.8806 37.4804 64.6356C37.493 65.2548 37.4953 65.8747 37.4791 66.4937C37.4605 67.2094 37.0702 67.5942 36.3329 67.5994C34.6596 67.6111 32.9861 67.6111 31.3124 67.5994C30.5758 67.5942 30.1857 67.2083 30.1685 66.4924C30.1532 65.8515 30.1508 65.2106 30.1695 64.5697C30.1892 63.8928 30.5838 63.5103 31.2816 63.4973C32.1506 63.4815 33.0202 63.4938 33.8895 63.4937Z" fill="#056CF1"/>
<path d="M33.869 51.1648C34.6949 51.1648 35.521 51.1534 36.3466 51.1683C37.0783 51.1814 37.463 51.5646 37.4798 52.2866C37.4942 52.9056 37.4942 53.525 37.4798 54.1447C37.4635 54.8686 37.0799 55.2635 36.3535 55.2697C34.6586 55.2831 32.9634 55.2828 31.2679 55.2689C30.5755 55.2627 30.1875 54.867 30.1692 54.1836C30.1519 53.5433 30.1519 52.9026 30.1692 52.2615C30.1878 51.552 30.5839 51.1784 31.3266 51.1675C32.1736 51.1552 33.0214 51.1647 33.869 51.1648Z" fill="#056CF1"/>
<path d="M24.4239 55.2738C23.5981 55.2738 22.7721 55.2821 21.9464 55.2719C21.1373 55.2619 20.7625 54.8861 20.7514 54.0833C20.7428 53.4641 20.7346 52.8441 20.7546 52.2252C20.7754 51.579 21.1636 51.1774 21.8172 51.171C23.5556 51.154 25.2943 51.1546 27.033 51.1727C27.6498 51.1798 28.0396 51.5826 28.061 52.1938C28.085 52.8765 28.0857 53.5613 28.0602 54.2439C28.0367 54.8787 27.6317 55.2549 26.9667 55.2688C26.1195 55.287 25.2716 55.2735 24.4239 55.2738Z" fill="#056CF1"/>
</g>
<defs>
<clipPath id="clip0_3231_5392">
<rect width="83.6797" height="57.0544" fill="white" transform="translate(9.25977 22.8784)"/>
</clipPath>
</defs>
</svg>
