<svg width="153" height="92" viewBox="0 0 153 92" fill="none" xmlns="http://www.w3.org/2000/svg">
<path d="M0.0327563 1.42529L0.0651223 2.86503L7.93684 14.3216C12.2728 20.625 15.8086 25.8262 15.8086 25.8896C15.8086 25.9376 12.8811 36.769 9.31312 49.9219C5.72941 63.0905 2.83312 73.8739 2.84884 73.9062C2.86446 73.9385 14.4806 75.7946 28.6568 78.0345C44.2094 80.482 54.4806 82.1627 54.5608 82.2265C54.6412 82.3068 56.0173 84.2901 57.6334 86.6739C59.2495 89.0255 60.5931 90.9773 60.6088 91.0099C60.6245 91.0255 81.1043 82.0345 106.129 71.0422L151.635 51.0579L151.731 50.578C151.779 50.3057 151.859 49.9217 151.907 49.6818L152.003 49.2822L106.243 0.00223214L53.12 0H0L0.0327563 1.42529ZM92.5928 4.08043L95.5682 7.42415L94.0157 7.48776C93.1519 7.53575 91.9521 7.58375 91.3438 7.59937L90.2233 7.63174L87.2636 4.27116L84.3039 0.927449L85.9679 0.879458C86.8798 0.847092 88.0795 0.799101 88.6398 0.783476L89.6476 0.767851L92.5928 4.08043ZM98.3362 3.92083C100.016 5.77686 101.152 7.12055 101.088 7.16855C101.025 7.21654 99.9043 7.26453 98.5929 7.31252L96.2246 7.37614L93.4723 4.27243C91.9679 2.576 90.6565 1.08814 90.5606 0.959854C90.4166 0.752266 90.4646 0.752267 92.9446 0.752267H95.4725L98.3362 3.92083ZM104.336 3.80923L107.152 6.86494L106.64 6.92856C106.367 6.96092 105.2 7.02454 104.032 7.07254L101.936 7.15289L99.9992 5.02455C98.9434 3.85604 97.6308 2.41629 97.1029 1.82484L96.1274 0.736664H101.519L104.336 3.80923ZM109.088 3.69651C110.897 5.66414 111.76 6.65622 111.664 6.72108C111.584 6.75344 110.689 6.81706 109.649 6.84943L107.777 6.89742L105.457 4.3695C104.192 2.97776 102.929 1.58602 102.673 1.29693L102.193 0.753418H106.37L109.088 3.69651ZM65.137 4.70542L68.3368 8.52914L67.281 8.59275C66.7051 8.64074 65.1046 8.70436 63.6973 8.75235L61.1693 8.84833L54.7699 1.04033L56.386 0.99234C57.2654 0.959974 58.8815 0.911984 59.9865 0.896358L61.9709 0.880733L65.137 4.70542ZM72.7688 4.52908L75.8725 8.19308L75.0243 8.27344C74.5443 8.3058 73.0566 8.36942 71.6805 8.41741L69.2006 8.48103L66.1123 4.78446C64.4159 2.75209 63.0086 1.04017 62.9918 0.976458C62.9761 0.928466 64.2563 0.880476 66.3043 0.880476L69.648 0.896099L72.7688 4.52908ZM79.8256 4.35274C81.4897 6.2724 82.8179 7.87274 82.7699 7.90531C82.6259 8.04929 76.8336 8.24125 76.6896 8.09728C76.4653 7.88969 70.7376 1.15299 70.6573 0.993563C70.5937 0.89758 71.2332 0.865215 73.6976 0.865215H76.8182L79.8256 4.35274ZM86.465 4.24113L89.4573 7.63285L88.3692 7.69646C87.7776 7.74446 86.4975 7.80807 85.5209 7.84044L83.7453 7.92079L80.993 4.75222C79.473 3.00779 78.0968 1.42422 77.9205 1.23222L77.6169 0.863909H83.4718L86.465 4.24113ZM38.3222 5.31256C40.1782 7.68088 41.6828 9.64856 41.6659 9.64856C41.6503 9.66418 39.6023 9.76017 37.1056 9.85615C32.6256 10.0481 32.5622 10.0481 32.3533 9.84052C32.081 9.5682 25.7293 1.21652 25.7293 1.1531C25.7293 1.08948 27.601 1.04149 31.5696 1.00912L34.9302 0.993495L38.3222 5.31256ZM48.0188 5.10497C49.8112 7.34491 51.2665 9.20097 51.2353 9.23326C51.1873 9.28125 45.1393 9.5692 43.7956 9.5692H42.8514L39.5388 5.3292C37.7152 2.99326 36.2108 1.05691 36.2108 1.02577C36.2108 0.993406 38.1305 0.97778 40.4831 0.993406L44.7554 1.02577L48.0188 5.10497ZM56.9151 4.89738C58.6907 7.05698 60.1148 8.83367 60.0993 8.84938C60.0837 8.86501 58.8192 8.94537 57.3159 9.00898C55.7958 9.0726 54.0838 9.15295 53.5078 9.20095L52.4677 9.24894L49.1397 5.12065L45.796 0.976652H53.7L56.9151 4.89738ZM16.2265 5.82484L19.683 10.5123L19.0435 10.5926C18.7076 10.6406 16.3873 10.7522 13.9072 10.8482C10.1795 10.9922 9.37924 11.0078 9.25096 10.8806C9.12261 10.7522 2.51553 1.52 2.32353 1.232C2.25991 1.1204 3.29899 1.10365 7.50782 1.12039L12.7724 1.15276L16.2265 5.82484ZM27.7945 5.56926C29.6661 8.04918 31.2185 10.0815 31.203 10.0815C31.1874 10.0815 29.2667 10.1775 26.8996 10.2735C24.548 10.3695 22.2756 10.4655 21.875 10.4978L21.1552 10.5458L17.9075 6.16183C16.1318 3.76229 14.5638 1.61841 14.4198 1.42641L14.1474 1.07484H24.3886L27.7945 5.56926ZM115.3 10.4007C116.772 11.9688 117.94 13.2801 117.924 13.297C117.892 13.345 114.66 13.6485 114.26 13.6485C114.084 13.6485 113.285 12.8651 111.3 10.6888C109.813 9.07277 108.661 7.72912 108.74 7.71341C108.916 7.68104 112.356 7.48907 112.532 7.52144C112.596 7.53706 113.844 8.81721 115.3 10.4009L115.3 10.4007ZM110.644 10.6886C112.148 12.3203 113.364 13.6809 113.348 13.6963C113.333 13.712 112.34 13.8247 111.156 13.9207C109.972 14.0167 108.853 14.1283 108.661 14.145C108.34 14.193 108.196 14.049 105.605 11.2007C104.117 9.55229 102.869 8.14501 102.853 8.08015C102.837 8.01654 103.732 7.92056 105.237 7.85582C106.565 7.79221 107.717 7.72747 107.765 7.72747C107.859 7.71296 109.14 9.0411 110.644 10.6883L110.644 10.6886ZM104.852 11.1205C106.356 12.7846 107.587 14.1763 107.556 14.1931C107.508 14.2567 102.948 14.6407 102.82 14.5927C102.628 14.529 97.1239 8.35266 97.1887 8.28923C97.2691 8.20888 100.292 8.04928 101.317 8.0649L102.117 8.08053L104.852 11.1205ZM99.1396 11.4085C100.675 13.1362 101.955 14.5928 101.988 14.6405C102.003 14.6885 100.963 14.8168 99.6675 14.9128C98.3718 15.0244 97.2033 15.1048 97.0917 15.1204C96.8997 15.136 96.1798 14.3682 93.9231 11.8404L90.9957 8.52783L93.3796 8.39948C94.6921 8.33586 95.8751 8.27113 96.0358 8.27113C96.2758 8.25662 96.7881 8.7689 99.1396 11.4083L99.1396 11.4085ZM93.1565 11.8571C94.7246 13.6652 96.0047 15.1529 95.9723 15.1851C95.9567 15.2008 94.7078 15.3447 93.2045 15.4731L90.5002 15.6974L87.5248 12.2734C84.9166 9.28113 84.5974 8.84942 84.8206 8.81685C85.2201 8.76886 88.5172 8.60926 89.4446 8.59252L90.2761 8.57689L93.1565 11.8571ZM86.7233 12.2891C89.587 15.6016 89.6508 15.6808 89.3628 15.7611C89.1865 15.8091 87.8584 15.9374 86.3706 16.0646L83.6987 16.289L83.3951 15.9374C83.2355 15.7454 81.8594 14.145 80.3548 12.3848C77.9385 9.56897 77.6506 9.18511 77.8905 9.15282C78.4184 9.0892 81.4911 8.94523 82.626 8.92849L83.7945 8.91286L86.7233 12.2891ZM79.8282 12.8013L82.8359 16.3539L80.164 16.5939C78.6919 16.7222 77.2197 16.8495 76.8995 16.8662L76.3236 16.8986L70.1158 9.5057L70.4842 9.47334C71.4284 9.39298 74.4999 9.26574 75.6047 9.249L76.8212 9.23338L79.8282 12.8013ZM72.2756 13.2333C73.9553 15.2333 75.3002 16.9298 75.251 16.961C75.2031 17.009 73.8269 17.1529 72.1953 17.2813C70.5636 17.4096 69.0436 17.5536 68.8193 17.5849L68.4198 17.6329L65.2681 13.8091C63.5404 11.6975 62.1475 9.95314 62.1798 9.92085C62.2434 9.85723 66.5158 9.61728 68.2278 9.60054L69.22 9.58491L72.2756 13.2333ZM64.2276 13.7924C67.2199 17.4564 67.3793 17.6641 67.0913 17.7121C66.915 17.7277 65.2197 17.8717 63.3156 18.0481C60.147 18.3204 59.8279 18.336 59.6516 18.1764C59.5556 18.0804 58.0835 16.2568 56.3716 14.1441L53.2833 10.2893L53.8112 10.2569C54.9318 10.1933 60.0992 9.93659 60.5635 9.92096L61.0591 9.90533L64.2276 13.7924ZM55.3793 14.2723C57.107 16.4319 58.531 18.2566 58.5479 18.3203C58.5635 18.4163 57.5077 18.5447 54.8513 18.7679C52.8033 18.9442 50.9473 19.0882 50.7231 19.1038C50.3235 19.1194 50.3235 19.1194 47.0433 14.9441C45.2509 12.6561 43.7956 10.7521 43.8113 10.7364C43.8593 10.6884 50.2756 10.3848 51.395 10.3681L52.2265 10.3524L55.3793 14.2723ZM45.9239 15.0245C47.7319 17.3281 49.1716 19.2165 49.1236 19.2323C48.8513 19.3282 40.1159 20.0157 40.051 19.9521C39.5711 19.4398 33.4596 11.2958 33.5076 11.2478C33.588 11.1675 40.8202 10.8003 41.8759 10.8315L42.6438 10.8472L45.9239 15.0245ZM35.4753 15.6808C37.3157 18.1127 38.819 20.0971 38.8033 20.1128C38.7877 20.1284 30.1793 20.8807 29.2988 20.9443L28.8512 20.9767L22.0029 11.7289L26.8344 11.5046C29.4739 11.3763 31.7618 11.2803 31.8901 11.2803C32.0675 11.2814 32.899 12.2892 35.4749 15.6808L35.4753 15.6808ZM24.0679 16.4643C25.9396 19.0078 27.4116 21.1037 27.3479 21.1206C27.1559 21.1686 17.2039 22.0168 17.1716 21.9844C17.156 21.9688 15.6035 19.7768 13.6839 17.1207L10.2273 12.2724L10.8992 12.24C11.2675 12.2244 13.4115 12.1117 15.6515 12.0157C17.9071 11.8874 19.9395 11.8237 20.1949 11.8237L20.6425 11.8394L24.0679 16.4643ZM121.522 17.0893L124.306 20.097L122.945 20.289C122.177 20.385 121.297 20.4966 120.961 20.5289L120.353 20.5769L117.665 17.6326C116.177 16.0009 114.961 14.6249 114.93 14.5769C114.914 14.5133 115.586 14.4006 116.69 14.289C117.682 14.193 118.546 14.1126 118.609 14.097C118.674 14.097 119.987 15.4407 121.522 17.0893H121.522ZM116.994 17.6005C118.514 19.2489 119.746 20.625 119.714 20.6562C119.682 20.6718 118.578 20.8481 117.25 21.0245C115.282 21.2968 114.818 21.3281 114.722 21.2165C114.641 21.1361 113.346 19.712 111.826 18.0479C109.553 15.5523 109.121 15.0076 109.313 14.9922C110.049 14.8962 113.778 14.5446 113.985 14.5759C114.146 14.5926 115.09 15.5368 116.994 17.6005L116.994 17.6005ZM111.314 18.2723C112.867 19.9844 114.115 21.4086 114.098 21.4409C114.05 21.4889 110.754 21.9532 109.778 22.0648C109.457 22.0972 109.25 21.8885 106.53 18.8651C104.946 17.0727 103.666 15.6005 103.698 15.5694C103.794 15.4734 107.539 15.1218 108.082 15.1375C108.466 15.1375 108.626 15.2971 111.314 18.2726V18.2723ZM105.906 18.9766C107.458 20.7366 108.722 22.1763 108.689 22.1763C108.657 22.2087 104.386 22.7845 103.889 22.8325C103.697 22.8482 103.041 22.1763 100.689 19.4888C99.0577 17.6328 97.7451 16.1128 97.762 16.0648C97.7943 16.0492 98.9461 15.9052 100.322 15.7925C102.098 15.6329 102.85 15.6005 102.946 15.6642C103.011 15.7445 104.355 17.2334 105.906 18.9767L105.906 18.9766ZM98.6905 18.1283C99.6983 19.2801 101.042 20.8002 101.715 21.5523C102.371 22.2878 102.899 22.9128 102.867 22.9441C102.786 23.0077 97.7151 23.6796 97.5388 23.6316C97.3145 23.5836 91.3145 16.6719 91.4428 16.607C91.4908 16.5914 92.723 16.4474 94.147 16.3191C95.5711 16.1907 96.7709 16.0635 96.8033 16.0467C96.8502 16.0802 97.6984 16.9932 98.6906 18.1282L98.6905 18.1283ZM93.6022 20.2411C95.2506 22.1295 96.5945 23.7288 96.5945 23.7611C96.5945 23.8091 95.2987 24.0334 93.715 24.241L90.8188 24.6249L87.715 20.9932C86.003 18.9932 84.6268 17.3292 84.6593 17.2966C84.7553 17.2006 89.4116 16.7687 90.0679 16.7843L90.6114 16.8L93.6022 20.2411ZM86.8342 21.0413C88.5619 23.0737 89.9705 24.7379 89.9548 24.7379C89.9391 24.7535 88.515 24.9454 86.7705 25.1854L83.6019 25.6017L83.3776 25.3294C83.2492 25.1698 81.8251 23.4733 80.1933 21.5214C78.5616 19.585 77.249 17.9688 77.2659 17.9377C77.3139 17.8897 83.4421 17.2814 83.6019 17.3138C83.6499 17.3294 85.1063 19.0091 86.8339 21.0415L86.8342 21.0413ZM79.5216 21.8884C81.2973 24 82.6733 25.7287 82.5773 25.7444C81.3128 25.9687 75.8093 26.6406 75.7616 26.5759C75.7136 26.5279 74.2259 24.7198 72.4659 22.5759C69.9056 19.4721 69.2973 18.6561 69.4736 18.6239C70.0651 18.5279 75.1376 18.0803 75.6813 18.0636L76.3052 18.048L79.5216 21.8884ZM71.4579 22.625C73.218 24.7689 74.6745 26.5927 74.6899 26.6573C74.7055 26.7532 73.6341 26.9452 71.3139 27.2655C69.4422 27.5378 67.7613 27.7454 67.6173 27.7454C67.3774 27.7611 66.8651 27.1695 64.0013 23.6171C62.1777 21.3292 60.6888 19.4574 60.7056 19.4409C60.738 19.4252 67.3776 18.7846 68.0182 18.7366C68.1934 18.721 68.978 19.6005 71.4579 22.6249V22.625ZM62.9145 23.6964C64.7705 26.0167 66.2582 27.9364 66.2102 27.9364C66.1622 27.952 64.4345 28.192 62.3699 28.4643C60.3063 28.7366 58.5139 28.9922 58.3856 29.0078C58.178 29.0558 57.6658 28.4476 54.7059 24.6875C51.6176 20.7355 51.2973 20.3035 51.5373 20.2555C51.6813 20.2399 53.505 20.0636 55.6011 19.856C57.697 19.664 59.4413 19.4877 59.4728 19.4877C59.5219 19.5044 61.0743 21.3928 62.9148 23.6963L62.9145 23.6964ZM53.5385 24.7846C56.4179 28.4643 56.9145 29.1529 56.7382 29.2166C56.5786 29.2646 48.3699 30.4007 48.0819 30.4007C47.9859 30.4007 41.1545 21.4564 41.1545 21.3124C41.1545 21.2164 49.3465 20.3682 49.9225 20.4162C50.0665 20.433 51.2506 21.8571 53.5385 24.7845V24.7846ZM127.841 23.9051C129.361 25.5535 130.609 26.9297 130.625 26.9608C130.64 27.0088 129.825 27.1852 128.801 27.3927C127.041 27.7287 126.945 27.7287 126.769 27.5523C125.408 26.0959 121.264 21.5523 121.264 21.4886C121.264 21.4083 124.161 20.9607 124.784 20.9451C125.025 20.9284 125.601 21.473 127.841 23.9048L127.841 23.9051ZM43.2985 26.0011C45.2181 28.5134 46.7225 30.5925 46.6422 30.6094C46.5618 30.625 44.3386 30.9297 41.6979 31.2813C37.2816 31.8895 36.8976 31.9208 36.7862 31.7612C36.7058 31.6496 35.1065 29.4889 33.2336 26.9455C31.362 24.4175 29.8419 22.306 29.8576 22.2892C29.9212 22.2088 38.7693 21.4097 39.2973 21.4253L39.8096 21.441L43.2985 26.0011ZM123.521 24.7209C125.794 27.2009 126.305 27.8247 126.161 27.8895C126.065 27.9375 124.992 28.1451 123.793 28.3694L121.601 28.769L121.232 28.4007C120.288 27.4565 115.697 22.2889 115.728 22.2567C115.824 22.1607 119.791 21.6004 120.24 21.6171C120.673 21.6328 120.753 21.6964 123.521 24.7209L123.521 24.7209ZM32.0013 27.2332C33.969 29.9051 35.5539 32.0969 35.5213 32.0969C35.5057 32.1126 33.2334 32.4329 30.481 32.8012C26.5613 33.3291 25.4408 33.4574 25.3293 33.3447C25.1697 33.1851 18.1296 23.3447 18.1608 23.3447C18.1931 23.3291 27.953 22.4005 28.2088 22.3849C28.3851 22.3681 29.3137 23.569 32.001 27.2331L32.0013 27.2332ZM117.921 25.5524C119.489 27.3125 120.801 28.7844 120.801 28.8324C120.816 28.8804 119.825 29.136 118.561 29.3603L116.289 29.7923L116.016 29.4719C115.857 29.2956 114.544 27.8079 113.056 26.1762C111.584 24.5278 110.369 23.1359 110.352 23.0725C110.304 22.9765 113.936 22.385 114.721 22.385C115.025 22.3683 115.361 22.7053 117.921 25.5525L117.921 25.5524ZM112.657 26.5446L115.664 29.9052L113.601 30.3047C112.449 30.5291 111.329 30.721 111.089 30.7523L110.641 30.8159L107.585 27.3282C105.906 25.4085 104.578 23.8236 104.658 23.7925C104.978 23.6965 108.93 23.1362 109.282 23.153C109.633 23.1853 109.857 23.4085 112.657 26.5447L112.657 26.5446ZM106.865 27.4252C108.545 29.3292 109.921 30.9129 109.921 30.9452C109.921 31.0088 105.009 31.953 104.737 31.9374C104.56 31.9218 98.3048 24.7688 98.4008 24.6897C98.4488 24.6261 103.408 23.9062 103.633 23.9375C103.744 23.9363 105.201 25.5212 106.865 27.4252L106.865 27.4252ZM100.737 28.4643C102.465 30.4643 103.858 32.1128 103.841 32.1283C103.825 32.1439 102.545 32.4162 101.009 32.7198C98.8809 33.1193 98.1778 33.2153 98.0819 33.1193C97.7459 32.7834 91.7616 25.7107 91.7616 25.6627C91.7616 25.5991 97.1053 24.7989 97.4101 24.8313C97.505 24.8168 99.0095 26.4641 100.737 28.4641L100.737 28.4643ZM94.0808 29.5212C95.8084 31.5535 97.2493 33.2655 97.2493 33.3292C97.265 33.4252 91.8408 34.5133 91.2816 34.5289C91.0897 34.5446 84.5293 26.7847 84.6422 26.6887C84.7382 26.5771 90.0819 25.8092 90.5462 25.8248C90.8966 25.8248 91.1053 26.0492 94.0808 29.5214V29.5212ZM86.929 30.7366C88.7371 32.8805 90.209 34.6886 90.209 34.7209C90.209 34.7531 88.8329 35.0412 87.1533 35.3604C85.4736 35.6807 83.969 35.9686 83.8096 35.9999C83.554 36.0479 83.2181 35.6639 80.1936 31.9842C78.37 29.7598 76.8499 27.8725 76.8499 27.8245C76.8499 27.7129 82.9782 26.7843 83.4259 26.8167C83.5688 26.801 84.8009 28.1928 86.9293 30.7364L86.929 30.7366ZM79.169 32.0167C81.0574 34.3047 82.5776 36.193 82.5608 36.2087C82.5284 36.2567 75.553 37.5692 75.3765 37.5525C75.2325 37.5525 73.9847 36.0647 71.7125 33.2322L68.2559 28.9119L71.8085 28.3996C73.7761 28.1117 75.4725 27.8873 75.5685 27.8717C75.6812 27.8728 77.0093 29.3929 79.169 32.0168V32.0167ZM134.383 30.9765C135.967 32.6886 137.263 34.1128 137.263 34.1451C137.263 34.2087 134.015 35.0413 133.775 35.0246C133.647 35.0246 127.727 28.6406 127.791 28.5926C127.839 28.5602 131.134 27.9051 131.374 27.8727C131.456 27.8727 132.8 29.2645 134.383 30.9764V30.9765ZM130.16 31.9531C131.776 33.7132 133.088 35.1851 133.04 35.2008C132.944 35.3124 128.736 36.3526 128.544 36.3214C128.272 36.2734 122.336 29.6819 122.512 29.6494C123.312 29.4574 126.784 28.7699 126.959 28.7532C127.152 28.7532 127.968 29.569 130.16 31.9529V31.9531ZM70.6716 33.3772C72.56 35.7288 74.1113 37.7132 74.1113 37.7612C74.1113 37.8092 72.4629 38.1608 70.4473 38.5291C68.4317 38.913 66.6393 39.249 66.4953 39.297C66.223 39.3449 65.9831 39.0726 62.9753 35.2332C61.1997 32.9777 59.5993 30.9298 59.4228 30.7209C59.2308 30.4966 59.1192 30.2734 59.1348 30.2567C59.1828 30.2087 66.5588 29.1361 67.0065 29.1049C67.184 29.0725 68.0646 30.1127 70.6717 33.3772L70.6716 33.3772ZM124.8 33.1685C126.449 34.9922 127.76 36.5122 127.728 36.5771C127.68 36.6251 126.687 36.8807 125.551 37.1686C123.551 37.6642 123.471 37.6809 123.263 37.4889C122.96 37.2166 117.296 30.8495 117.248 30.7535C117.232 30.6575 120.927 29.8897 121.488 29.8573C121.777 29.8573 122.065 30.1285 124.8 33.1687V33.1685ZM61.503 34.9609C64.3345 38.5926 65.023 39.5044 64.8636 39.5849C64.7676 39.6329 62.8156 40.0168 60.5122 40.4488C56.4642 41.2166 56.3359 41.2166 56.1439 41.0246C56.0323 40.913 54.3682 38.7691 52.4473 36.2566C49.7431 32.7041 49.0076 31.6652 49.1673 31.6326C49.5669 31.5367 57.423 30.4329 57.6796 30.4329C57.9196 30.4161 58.4787 31.0724 61.5033 34.9609L61.503 34.9609ZM119.614 34.3203C121.327 36.24 122.703 37.8249 122.687 37.8403C122.671 37.8559 121.599 38.1439 120.303 38.4798L117.967 39.0881L114.799 35.4875C113.054 33.5199 111.63 31.8715 111.599 31.8235C111.583 31.7599 115.791 30.8793 116.319 30.8313C116.43 30.8492 117.871 32.3681 119.615 34.3202L119.614 34.3203ZM29.6945 45.9689C35.103 53.8249 39.5182 60.3049 39.5182 60.3529C39.5182 60.4645 10.5439 67.2492 10.461 67.1686C10.4131 67.1362 12.4934 59.0883 15.0693 49.2969C17.6296 39.5046 19.7736 31.5369 19.8048 31.5849C19.8371 31.6329 24.2848 38.0972 29.693 45.9689H29.6945ZM51.4065 36.6409C53.4221 39.2804 55.0551 41.4566 55.0382 41.4723C55.0226 41.4879 52.8618 41.9042 50.2225 42.4165C46.2548 43.1687 45.4222 43.296 45.295 43.1844C45.1991 43.104 43.5026 40.8328 41.5193 38.1441L37.8876 33.2324L42.575 32.5605C45.1666 32.1922 47.3753 31.873 47.5193 31.873C47.6946 31.8406 48.526 32.8652 51.4065 36.641V36.6409ZM114.046 35.5851C115.774 37.5527 117.198 39.1856 117.198 39.2168C117.198 39.2804 112.526 40.4646 112.223 40.4813C112.111 40.4969 110.718 38.9612 108.783 36.737L105.535 32.9927L108.031 32.4804C109.407 32.2081 110.607 31.9682 110.718 31.9849C110.831 31.9849 112.319 33.601 114.046 35.5855L114.046 35.5851ZM108.094 36.9612C109.887 39.0248 111.326 40.7212 111.294 40.7369C111.262 40.7525 110.014 41.0885 108.511 41.4568L105.758 42.1442L102.415 38.2245C100.591 36.0806 99.1022 34.3048 99.1348 34.2725C99.2307 34.1765 104.286 33.152 104.574 33.1687C104.783 33.2011 105.807 34.3205 108.094 36.961V36.9612ZM40.2716 38.4645C42.3352 41.2804 43.9682 43.5851 43.8876 43.6008C43.824 43.6164 41.5673 44.0484 38.9122 44.545C34.3999 45.4088 34.0485 45.4568 33.8719 45.2972C33.7759 45.1856 32.0482 42.8017 30.0316 39.9847C27.1042 35.8887 26.4156 34.8484 26.575 34.8161C26.6867 34.8005 28.9266 34.4645 31.5673 34.0962C34.2068 33.7123 36.3988 33.4088 36.431 33.392C36.479 33.3775 38.2078 35.6654 40.2713 38.4646L40.2716 38.4645ZM101.663 38.4165C103.487 40.5605 104.976 42.3363 104.943 42.3528C104.895 42.4008 99.1673 43.8405 99.039 43.8405C98.9108 43.8405 92.0145 35.6965 92.0948 35.6485C92.1907 35.5526 97.7913 34.4968 98.0468 34.5124C98.2867 34.5291 98.943 35.2333 101.663 38.4164L101.663 38.4165ZM140.894 37.969C142.382 39.585 143.71 41.0247 143.854 41.201L144.11 41.5213L142.382 42.0972C140.702 42.6574 140.654 42.6731 140.478 42.4655C140.366 42.3372 139.15 41.009 137.774 39.5058C136.382 37.9857 135.086 36.5784 134.894 36.3541L134.526 35.9545L136.206 35.507C137.133 35.2514 137.966 35.0594 138.062 35.0594C138.159 35.0572 139.407 36.3686 140.894 37.9692L140.894 37.969ZM94.6059 39.9054C96.4943 42.1609 98.0299 44.0336 98.0299 44.0651C98.0299 44.1611 91.6785 45.7615 91.5499 45.7135C91.4059 45.6655 84.4616 37.2012 84.5253 37.1532C84.5577 37.1376 90.733 35.8731 91.1013 35.8251C91.1337 35.8095 92.7018 37.6488 94.6059 39.9054V39.9054ZM137.069 39.4891L140.109 42.8017L137.837 43.5539C136.572 43.9534 135.533 44.2581 135.501 44.2101C135.468 44.1621 134.061 42.6097 132.397 40.7704C130.733 38.9468 129.357 37.4098 129.341 37.3618C129.309 37.2815 133.581 36.1453 133.837 36.1777C133.948 36.1766 135.405 37.681 137.069 39.4891L137.069 39.4891ZM87.1002 41.6967L90.6202 46.0001L87.0845 46.8963C85.1481 47.3919 83.5165 47.7925 83.4839 47.7758C83.3556 47.7434 76.2362 38.8315 76.2842 38.7835C76.3645 38.7031 83.1959 37.3437 83.4048 37.375C83.484 37.3929 85.1481 39.3292 87.1002 41.6964V41.6967ZM131.82 40.9132C133.5 42.7692 134.908 44.3529 134.924 44.4009C134.956 44.4645 130.972 45.825 130.732 45.825C130.652 45.825 124.236 38.6564 124.284 38.6253C124.348 38.5773 128.62 37.4735 128.684 37.4891C128.715 37.5048 130.124 39.0416 131.82 40.9131V40.9132ZM126.78 42.3529C128.54 44.3206 129.98 45.9689 129.98 46.0169C129.98 46.0649 128.955 46.4332 127.707 46.8328L125.452 47.5683L122.139 43.824C120.315 41.7604 118.843 40.064 118.859 40.0483C118.875 40.0327 119.947 39.7447 121.211 39.4088C122.491 39.0728 123.531 38.7849 123.547 38.7849C123.58 38.7849 125.02 40.3853 126.78 42.3529L126.78 42.3529ZM78.7799 43.4891C80.7475 45.9534 82.3805 48.0014 82.3805 48.0325C82.3805 48.0649 80.6361 48.5281 78.5088 49.0571C75.2611 49.8886 74.6205 50.0169 74.493 49.8886C74.1895 49.585 67.1805 40.5928 67.2131 40.5606C67.261 40.5126 74.7488 39.0248 75.0053 39.0081C75.1158 38.9936 76.5712 40.7213 78.7799 43.4892V43.4891ZM121.483 44.017L124.795 47.7613L122.411 48.5615C121.083 48.9935 119.964 49.3618 119.883 49.3618C119.755 49.3774 112.987 41.6652 113.052 41.586C113.116 41.5381 118.027 40.2423 118.108 40.2579C118.155 40.2568 119.675 41.9532 121.483 44.0168L121.483 44.017ZM69.737 45.5047C71.785 48.113 73.4336 50.2727 73.401 50.305C73.3207 50.3854 65.1768 52.4334 64.969 52.4334C64.8574 52.4177 63.3206 50.497 61.017 47.4736C57.641 43.0416 57.2728 42.5139 57.497 42.4659C57.737 42.4023 65.833 40.7863 65.9613 40.7695C65.9926 40.7695 67.7046 42.8978 69.737 45.5049V45.5047ZM115.688 45.6967L119.08 49.6164L116.456 50.4802C115.017 50.9602 113.784 51.3285 113.704 51.3117C113.544 51.2961 106.696 43.296 106.777 43.2157C106.825 43.1677 112.024 41.776 112.185 41.776C112.249 41.7771 113.833 43.5372 115.689 45.6968L115.688 45.6967ZM147.848 45.4891C149.384 47.1375 150.664 48.5294 150.664 48.5774C150.68 48.6098 149.944 48.9457 149.033 49.2973L147.384 49.9535L146.968 49.506C146.744 49.2816 145.4 47.8263 144.008 46.3063L141.465 43.5228L143.081 42.9793C143.977 42.6757 144.777 42.4357 144.873 42.4513C144.969 42.4647 146.313 43.8252 147.849 45.4893L147.848 45.4891ZM59.8656 47.7614C61.9292 50.4969 63.6413 52.7369 63.6413 52.7691C63.6413 52.8014 61.4974 53.3607 58.889 54.0337C54.313 55.1854 54.1536 55.2178 53.9928 55.0259C53.9124 54.9142 52.1691 52.5303 50.0888 49.7459C48.0251 46.9624 46.409 44.6576 46.4728 44.6421C47.129 44.4825 55.7853 42.7705 55.9125 42.7861C56.0096 42.785 57.7696 45.0417 59.8656 47.7615V47.7614ZM109.434 47.5371L112.906 51.6174L107.051 53.537L106.796 53.2335C100.796 46.0818 99.8995 44.9935 100.043 44.9612C100.46 44.8016 105.723 43.4255 105.836 43.4567C105.897 43.4567 107.513 45.2971 109.434 47.537L109.434 47.5371ZM143.914 46.9612L146.874 50.1609L144.698 51.0248C142.602 51.8562 142.521 51.8886 142.346 51.6966C141.258 50.5605 136.506 45.2323 136.538 45.2012C136.602 45.1376 140.714 43.7447 140.874 43.7291C140.922 43.7291 142.298 45.1856 143.914 46.9611L143.914 46.9612ZM48.9542 50.2569C51.2745 53.3932 52.7945 55.5526 52.6985 55.5849C51.9786 55.8405 42.9708 58.0492 42.9062 57.9689C42.6662 57.7133 35.0982 47.0414 35.0982 46.9612C35.0982 46.8652 44.3628 44.9768 44.8582 44.9612C45.0178 44.9612 46.0412 46.2893 48.9542 50.2569V50.2569ZM102.568 49.4254C104.536 51.7614 106.136 53.7134 106.152 53.7457C106.168 53.7937 104.808 54.258 103.128 54.8015C101.448 55.345 100.024 55.8093 99.959 55.8261C99.8631 55.8584 92.6465 47.2178 92.5673 46.9623C92.5517 46.9144 93.9915 46.5148 95.7671 46.0349C97.5271 45.5706 98.9991 45.2034 99.0148 45.1867C99.0326 45.1688 100.601 47.0896 102.568 49.4255V49.4254ZM138.906 48.7536C140.554 50.5616 141.898 52.0661 141.898 52.1141C141.898 52.2425 137.802 53.7938 137.706 53.6978C136.73 52.642 131.642 46.8821 131.642 46.8496C131.642 46.7692 135.722 45.4098 135.85 45.4411C135.881 45.4411 137.257 46.9288 138.906 48.7536V48.7536ZM134.025 50.4645C135.705 52.3529 137.098 53.9211 137.129 53.9691C137.144 54.0494 133 55.7447 132.793 55.7447C132.664 55.7447 126.297 48.593 126.376 48.545C126.44 48.4814 130.712 47.0729 130.841 47.0573C130.905 47.0417 132.345 48.593 134.025 50.4647V50.4645ZM95.2565 51.6654C97.2565 54.1129 98.8882 56.1297 98.8725 56.1454C98.8089 56.209 91.9451 58.4177 91.9128 58.3697C91.8971 58.3541 90.2331 56.2894 88.2162 53.7783C86.2006 51.266 84.5196 49.1543 84.5042 49.0909C84.4562 48.9793 91.1762 47.1389 91.4796 47.1868C91.56 47.2013 93.2564 49.217 95.2565 51.6657V51.6654ZM128.888 52.4009C130.616 54.3685 132.024 56.0169 132.008 56.0494C131.993 56.1454 127.448 57.9535 127.288 57.9378C127.193 57.9378 120.824 50.6578 120.76 50.4813C120.745 50.3853 125.304 48.8328 125.592 48.8328C125.656 48.8172 127.144 50.4333 128.888 52.4008L128.888 52.4009ZM87.1593 53.9366C89.223 56.4968 90.9036 58.6566 90.887 58.6889C90.8714 58.7692 83.607 61.1364 83.3993 61.1532C83.2877 61.1532 75.7833 51.6811 75.6873 51.4089C75.655 51.3285 77.1115 50.8966 79.4631 50.2727C81.5747 49.7292 83.319 49.2649 83.3513 49.2649C83.3993 49.2649 85.1114 51.3609 87.1593 53.9369V53.9366ZM123.256 54.4332C125.049 56.5136 126.504 58.2255 126.488 58.2569C126.44 58.3853 121.337 60.3686 121.272 60.2893C119.959 58.8328 114.664 52.5136 114.728 52.4656C114.809 52.3853 119.721 50.7055 119.913 50.6899C119.961 50.6888 121.481 52.3685 123.256 54.4334V54.4332ZM78.3936 56.5616C80.522 59.2814 82.2496 61.5213 82.2339 61.537C82.2183 61.5526 80.3455 62.1609 78.0742 62.8975C75.6099 63.6977 73.8822 64.1933 73.8019 64.1453C73.6423 64.0493 65.9459 53.9533 65.9459 53.8573C65.9459 53.7936 74.3142 51.5693 74.4413 51.6017C74.4893 51.6006 76.265 53.8405 78.3933 56.5614L78.3936 56.5616ZM117.096 56.5448C118.857 58.6252 120.376 60.4008 120.472 60.4968C120.616 60.6564 120.361 60.7848 117.833 61.7926C116.297 62.4009 115.017 62.9132 114.969 62.9132C114.873 62.9132 108.169 54.9289 108.138 54.7534C108.105 54.6251 113.258 52.8014 113.69 52.7858C113.8 52.7691 115.128 54.2412 117.097 56.5447L117.096 56.5448ZM68.7279 59.4411C70.8875 62.2894 72.6476 64.6254 72.6319 64.6408C72.6163 64.6565 70.5203 65.3451 67.9925 66.1766C64.2168 67.3931 63.3685 67.6486 63.257 67.5203C62.7928 67.008 55.2728 56.7046 55.3208 56.6409C55.4324 56.5125 64.2325 54.2246 64.5205 54.2413C64.7437 54.2569 65.5116 55.2168 68.7282 59.441L68.7279 59.4411ZM110.679 59.1052C112.568 61.3451 114.055 63.2169 114.023 63.2649C113.975 63.2973 112.615 63.8732 110.983 64.5294C108.983 65.3296 107.975 65.6812 107.879 65.6176C107.687 65.4892 100.887 57.2013 100.887 57.1053C100.887 56.9937 106.854 54.9937 107.063 55.025C107.175 55.025 108.791 56.8654 110.679 59.1052L110.679 59.1052ZM57.9765 62.5138C60.1841 65.5383 61.9608 68.0495 61.9285 68.0975C61.8001 68.2258 52.5199 71.2012 52.4085 71.1532C52.1841 71.0728 44.0402 59.5526 44.1685 59.5046C44.6004 59.345 53.6885 56.9767 53.8002 56.9923C53.8649 57.0091 55.7522 59.489 57.9765 62.5135V62.5138ZM103.528 61.7615C106.904 65.8898 107.048 66.065 106.808 66.1778C106.68 66.2414 105.176 66.8653 103.48 67.5383C101.528 68.3218 100.344 68.7381 100.263 68.6901C100.167 68.6097 94.8236 62.0181 93.0468 59.7458C92.9664 59.6498 93.8146 59.3295 96.2945 58.5136C98.1349 57.9221 99.7185 57.4255 99.8302 57.4255C99.9273 57.4411 101.528 59.3127 103.528 61.7615L103.528 61.7615ZM95.7991 64.737C97.7511 67.1532 99.3036 69.169 99.2556 69.217C99.1596 69.2973 91.9276 72.1924 91.9119 72.1444C91.8795 72.112 84.5839 62.7838 84.4553 62.6244C84.3917 62.5284 85.4152 62.1445 88.135 61.2326C91.6396 60.0641 91.9273 59.9849 92.1028 60.1445C92.1999 60.2416 93.8639 62.3052 95.7993 64.737L95.7991 64.737ZM87.0791 67.6812C89.1271 70.3051 90.8233 72.4815 90.839 72.5127C90.887 72.641 82.7108 75.8564 82.599 75.7447C82.3267 75.4567 74.983 65.777 74.983 65.6967C74.983 65.6007 82.8548 62.9444 83.1593 62.9288C83.2877 62.9132 84.6794 64.6096 87.0791 67.6811V67.6812ZM46.8076 70.8978C48.888 73.9224 50.5999 76.4178 50.5833 76.4178C50.5677 76.4334 43.3033 75.2493 34.4236 73.8096C25.5442 72.3698 18.1836 71.17 18.0553 71.1533C17.9437 71.1377 23.4639 69.7928 30.3433 68.1936C37.2228 66.5931 42.8868 65.2973 42.9348 65.3299C42.9839 65.3779 44.7283 67.8734 46.8076 70.8979V70.8978ZM77.6733 71.2014C79.7693 73.9692 81.4813 76.2417 81.4813 76.2897C81.4813 76.3857 72.5696 79.9214 72.4411 79.8734C72.3931 79.8578 70.5526 77.4415 68.3773 74.4974L64.4253 69.1537L69.0648 67.6012C71.625 66.7374 73.7522 66.0655 73.7848 66.1135C73.8171 66.1291 75.5772 68.4171 77.673 71.2018L77.6733 71.2014ZM67.113 74.9291C69.2894 77.8565 71.0651 80.3208 71.0973 80.3857C71.113 80.4337 69.0337 81.3299 66.4579 82.3533C61.8339 84.2093 61.7705 84.225 61.5616 84.0017C61.1933 83.6334 53.4979 72.7852 53.5459 72.7372C53.5939 72.6892 63.1296 69.5374 63.1619 69.5686C63.1608 69.5697 64.9532 71.9849 67.1128 74.9292L67.113 74.9291Z" fill="black" fill-opacity="0.54"/>
</svg>
