<svg width="946" height="641" viewBox="0 0 946 641" fill="none" xmlns="http://www.w3.org/2000/svg">
<path d="M472.976 640.976C733.928 640.976 945.472 629.522 945.472 615.392C945.472 601.262 733.928 589.808 472.976 589.808C212.024 589.808 0.47998 601.262 0.47998 615.392C0.47998 629.522 212.024 640.976 472.976 640.976Z" fill="#F5F5F5"/>
<path d="M209.788 575.674H202.794V609.791H209.788V575.674Z" fill="#8CB4F4"/>
<path d="M401.647 575.674H394.653V609.791H401.647V575.674Z" fill="#8CB4F4"/>
<path d="M483.65 341.608H451.092V609.939H483.65V341.608Z" fill="#8CB4F4"/>
<path opacity="0.6" d="M209.788 575.674H202.794V609.791H209.788V575.674Z" fill="white"/>
<path opacity="0.6" d="M401.647 575.674H394.653V609.791H401.647V575.674Z" fill="white"/>
<path opacity="0.6" d="M483.65 341.608H451.092V609.939H483.65V341.608Z" fill="white"/>
<path d="M528.001 615.738H163.461L173.794 603.87H517.645L528.001 615.738Z" fill="#8CB4F4"/>
<path opacity="0.2" d="M528.002 615.738H422.166L432.523 603.87H517.645L528.002 615.738Z" fill="white"/>
<path d="M308.118 322.21L194.557 583.425C194.183 584.298 194.031 585.25 194.114 586.196C194.197 587.142 194.514 588.053 195.035 588.847C195.557 589.641 196.267 590.294 197.102 590.747C197.937 591.2 198.871 591.438 199.821 591.442H394.483C395.905 591.442 397.297 591.027 398.488 590.248C399.678 589.469 400.615 588.36 401.184 587.056L514.745 325.841C515.126 324.969 515.283 324.015 515.203 323.066C515.122 322.117 514.806 321.204 514.284 320.408C513.761 319.612 513.048 318.958 512.21 318.507C511.371 318.056 510.434 317.821 509.481 317.824H314.82C313.397 317.824 312.005 318.238 310.815 319.018C309.624 319.797 308.687 320.906 308.118 322.21V322.21Z" fill="#8CB4F4"/>
<path opacity="0.7" d="M308.118 322.21L194.557 583.425C194.183 584.298 194.031 585.25 194.114 586.196C194.197 587.142 194.514 588.053 195.035 588.847C195.557 589.641 196.267 590.294 197.102 590.747C197.937 591.2 198.871 591.438 199.821 591.442H394.483C395.905 591.442 397.297 591.027 398.488 590.248C399.678 589.469 400.615 588.36 401.184 587.056L514.745 325.841C515.126 324.969 515.283 324.015 515.203 323.066C515.122 322.117 514.806 321.204 514.284 320.408C513.761 319.612 513.048 318.958 512.21 318.507C511.371 318.056 510.434 317.821 509.481 317.824H314.82C313.397 317.824 312.005 318.238 310.815 319.018C309.624 319.797 308.687 320.906 308.118 322.21V322.21Z" fill="white"/>
<path opacity="0.2" d="M374.865 486.021L409.226 406.967H333.9L299.515 486.021H374.865Z" fill="#2A4E96"/>
<path opacity="0.2" d="M206.693 579.086C206.114 579.086 205.549 579.257 205.068 579.579C204.587 579.9 204.212 580.357 203.991 580.891C203.77 581.426 203.712 582.014 203.825 582.581C203.937 583.148 204.216 583.669 204.625 584.078C205.034 584.487 205.555 584.766 206.122 584.878C206.689 584.991 207.277 584.933 207.812 584.712C208.346 584.491 208.803 584.116 209.124 583.635C209.445 583.154 209.617 582.589 209.617 582.01C209.617 581.235 209.309 580.491 208.76 579.942C208.212 579.394 207.468 579.086 206.693 579.086V579.086Z" fill="#2A4E96"/>
<path opacity="0.2" d="M388.171 579.086C387.594 579.091 387.031 579.266 386.553 579.591C386.075 579.915 385.704 580.373 385.487 580.908C385.269 581.443 385.215 582.03 385.33 582.596C385.446 583.161 385.726 583.68 386.136 584.087C386.546 584.493 387.067 584.769 387.634 584.88C388.2 584.991 388.787 584.932 389.32 584.71C389.853 584.488 390.308 584.113 390.628 583.632C390.949 583.152 391.12 582.588 391.12 582.01C391.12 581.624 391.043 581.242 390.895 580.886C390.746 580.529 390.529 580.206 390.255 579.934C389.98 579.662 389.655 579.447 389.298 579.302C388.94 579.156 388.557 579.083 388.171 579.086V579.086Z" fill="#2A4E96"/>
<path opacity="0.2" d="M317.793 325.157C317.214 325.157 316.649 325.329 316.168 325.65C315.687 325.971 315.312 326.428 315.091 326.962C314.869 327.497 314.812 328.085 314.924 328.652C315.037 329.219 315.316 329.74 315.725 330.149C316.134 330.558 316.655 330.837 317.222 330.95C317.789 331.062 318.377 331.005 318.912 330.783C319.446 330.562 319.903 330.187 320.224 329.706C320.545 329.225 320.717 328.66 320.717 328.081C320.71 327.308 320.4 326.568 319.853 326.021C319.306 325.474 318.566 325.164 317.793 325.157Z" fill="#2A4E96"/>
<path opacity="0.2" d="M499.27 325.157C498.692 325.157 498.127 325.329 497.646 325.65C497.165 325.971 496.79 326.428 496.569 326.962C496.347 327.497 496.289 328.085 496.402 328.652C496.515 329.219 496.793 329.74 497.202 330.149C497.611 330.558 498.132 330.837 498.7 330.95C499.267 331.062 499.855 331.005 500.389 330.783C500.924 330.562 501.38 330.187 501.702 329.706C502.023 329.225 502.195 328.66 502.195 328.081C502.195 327.306 501.886 326.562 501.338 326.014C500.79 325.465 500.046 325.157 499.27 325.157V325.157Z" fill="#2A4E96"/>
<path d="M529.878 575.674H522.884V609.791H529.878V575.674Z" fill="#8CB4F4"/>
<path d="M721.713 575.674H714.719V609.791H721.713V575.674Z" fill="#8CB4F4"/>
<path d="M803.741 341.608H771.183V609.939H803.741V341.608Z" fill="#8CB4F4"/>
<path opacity="0.6" d="M529.878 575.674H522.884V609.791H529.878V575.674Z" fill="white"/>
<path opacity="0.6" d="M721.713 575.674H714.719V609.791H721.713V575.674Z" fill="white"/>
<path opacity="0.6" d="M803.741 341.608H771.183V609.939H803.741V341.608Z" fill="white"/>
<path d="M877.457 223.003L716.279 593.733H477.825L639.004 223.003H877.457Z" fill="#2A4E96"/>
<path opacity="0.6" d="M877.457 223.003L716.279 593.733H477.825L639.004 223.003H877.457Z" fill="white"/>
<path d="M778.469 437.503H724.735L703.704 485.9H757.438L778.469 437.503Z" fill="#2A4E96"/>
<path d="M680.529 539.219H734.263L755.294 490.822H701.559L680.529 539.219Z" fill="#2A4E96"/>
<path d="M719.91 437.503H666.176L645.145 485.9H698.879L719.91 437.503Z" fill="#2A4E96"/>
<path d="M848.019 277.516H794.285L773.254 325.914H826.988L848.019 277.516Z" fill="#2A4E96"/>
<path d="M621.945 539.219H675.679L696.734 490.822H643L621.945 539.219Z" fill="#2A4E96"/>
<path d="M801.669 384.181H747.91L726.88 432.578H780.614L801.669 384.181Z" fill="#2A4E96"/>
<path d="M824.844 330.86H771.11L750.055 379.233H803.789L824.844 330.86Z" fill="#2A4E96"/>
<path d="M604.936 432.578L625.966 384.181H573.767L552.737 432.578H604.936Z" fill="#2A4E96"/>
<path d="M581.736 485.9L602.791 437.503H550.592L529.537 485.9H581.736Z" fill="#2A4E96"/>
<path d="M672.341 277.516H620.117L599.087 325.914H651.31L672.341 277.516Z" fill="#2A4E96"/>
<path d="M558.561 539.219L579.616 490.822H527.392L506.362 539.219H558.561Z" fill="#2A4E96"/>
<path d="M628.111 379.233L649.166 330.86H596.943L575.912 379.233H628.111Z" fill="#2A4E96"/>
<path d="M869.586 227.95H815.852L796.429 272.595H850.164L869.586 227.95Z" fill="#2A4E96"/>
<path d="M732.119 544.142H678.385L658.962 588.811H712.697L732.119 544.142Z" fill="#2A4E96"/>
<path d="M556.416 544.142H504.217L484.795 588.811H536.994L556.416 544.142Z" fill="#2A4E96"/>
<path d="M674.485 272.595L693.883 227.95H641.684L622.262 272.595H674.485Z" fill="#2A4E96"/>
<path d="M684.525 384.181H630.791L609.76 432.578H663.494L684.525 384.181Z" fill="#2A4E96"/>
<path d="M661.35 437.503H607.616L586.585 485.9H640.32L661.35 437.503Z" fill="#2A4E96"/>
<path d="M811.027 227.95H757.292L737.87 272.595H791.604L811.027 227.95Z" fill="#2A4E96"/>
<path d="M673.559 544.142H619.801L600.403 588.811H654.137L673.559 544.142Z" fill="#2A4E96"/>
<path d="M789.46 277.516H735.726L714.695 325.914H768.429L789.46 277.516Z" fill="#2A4E96"/>
<path d="M766.285 330.86H712.551L691.496 379.233H745.23L766.285 330.86Z" fill="#2A4E96"/>
<path d="M563.386 539.219H617.12L638.175 490.822H584.441L563.386 539.219Z" fill="#2A4E96"/>
<path d="M595.578 588.811L614.976 544.142H561.241L541.844 588.811H595.578Z" fill="#2A4E96"/>
<path d="M752.467 227.95H698.733L679.311 272.595H733.045L752.467 227.95Z" fill="#2A4E96"/>
<path d="M743.085 384.181H689.351L668.32 432.578H722.055L743.085 384.181Z" fill="#2A4E96"/>
<path d="M730.9 277.516H677.166L656.135 325.914H709.87L730.9 277.516Z" fill="#2A4E96"/>
<path d="M707.725 330.86H653.991L632.936 379.233H686.67L707.725 330.86Z" fill="#2A4E96"/>
<g opacity="0.1">
<path d="M792.847 223.003L579.348 360.275L639.004 223.003H792.847Z" fill="white"/>
<path d="M861.179 223.003L552.834 421.247L567.358 387.837L823.748 223.003H861.179Z" fill="white"/>
<path d="M863.615 254.853L856.329 271.57L525.394 484.314L532.68 467.572L863.615 254.853Z" fill="white"/>
</g>
<g opacity="0.1">
<path d="M728.61 565.391L716.279 593.733H684.502L728.61 565.391Z" fill="white"/>
<path d="M749.543 517.213L738.065 543.629L660.132 593.732H630.523L749.543 517.213Z" fill="white"/>
<path d="M771.158 467.5L765.432 480.66L589.534 593.733H574.766L771.158 467.5Z" fill="white"/>
</g>
<path d="M857.962 615.738H493.397L503.754 603.87H847.605L857.962 615.738Z" fill="#8CB4F4"/>
<path opacity="0.2" d="M857.962 615.738H752.126L762.483 603.87H847.605L857.962 615.738Z" fill="white"/>
<path d="M405.034 553.23H350.398V557.251H356.978L370.478 574.041H372.915L359.39 557.251H405.034V553.23Z" fill="#263238"/>
<path opacity="0.2" d="M405.034 553.23H350.398V557.251H356.978L370.478 574.041H372.915L359.39 557.251H405.034V553.23Z" fill="white"/>
<path d="M478.264 538.511C475.404 530.09 469.396 523.103 461.498 519.016H379.373L368.992 523.889L384.978 571.336H467.078L477.484 566.463C481.069 557.537 481.345 547.623 478.264 538.511Z" fill="#263238"/>
<path d="M467.371 571.312H335.216V624.9H467.371V571.312Z" fill="#263238"/>
<path opacity="0.2" d="M467.371 571.312H385.246V624.9H467.371V571.312Z" fill="white"/>
<path opacity="0.2" d="M477.484 566.39H395.384C398.951 557.485 399.227 547.601 396.164 538.511C393.298 530.086 387.281 523.098 379.373 519.016H461.498C469.396 523.103 475.404 530.09 478.264 538.511C481.327 547.601 481.051 557.485 477.484 566.39V566.39Z" fill="white"/>
<path opacity="0.1" d="M477.484 566.391L467.078 571.313H384.978L395.384 566.391H477.484Z" fill="white"/>
<path opacity="0.2" d="M419.485 539.218C427.511 543.034 436.183 545.307 445.048 545.92C458.232 546.407 462.107 539.218 462.107 539.218L460.279 533.589C460.279 533.589 457.111 538.755 447.631 539.779C438.152 540.802 417.925 533.394 417.925 533.394L419.485 539.218Z" fill="black"/>
<path d="M417.901 533.393C417.901 533.393 430.914 526.96 442.636 528.081C448.878 528.409 454.937 530.303 460.255 533.588L462.082 539.218C462.082 539.218 444.439 528.3 419.485 539.218L417.901 533.393Z" fill="#263238"/>
<path d="M160.799 6.88096L156.175 369.759L394.609 372.797L399.233 9.91899L160.799 6.88096Z" fill="#2A4E96"/>
<path opacity="0.6" d="M160.799 6.88096L156.175 369.759L394.609 372.797L399.233 9.91899L160.799 6.88096Z" fill="white"/>
<path d="M337.111 219.088L336.507 266.458L390.237 267.143L390.841 219.773L337.111 219.088Z" fill="#2A4E96"/>
<path d="M336.44 271.293L335.836 318.663L389.566 319.348L390.169 271.978L336.44 271.293Z" fill="#2A4E96"/>
<path d="M278.536 218.34L277.932 265.71L331.662 266.395L332.266 219.025L278.536 218.34Z" fill="#2A4E96"/>
<path d="M339.098 62.4937L338.494 109.864L392.224 110.548L392.828 63.1783L339.098 62.4937Z" fill="#2A4E96"/>
<path d="M277.89 270.523L277.286 317.893L331.016 318.577L331.62 271.207L277.89 270.523Z" fill="#2A4E96"/>
<path d="M337.757 166.905L337.153 214.275L390.883 214.96L391.487 167.59L337.757 166.905Z" fill="#2A4E96"/>
<path d="M338.427 114.7L337.824 162.07L391.554 162.754L392.157 115.384L338.427 114.7Z" fill="#2A4E96"/>
<path d="M163.627 164.655L163.023 212.025L215.218 212.69L215.822 165.32L163.627 164.655Z" fill="#2A4E96"/>
<path d="M162.957 216.86L162.353 264.23L214.548 264.895L215.151 217.525L162.957 216.86Z" fill="#2A4E96"/>
<path d="M164.968 60.2916L164.365 107.662L216.56 108.327L217.163 60.9566L164.968 60.2916Z" fill="#2A4E96"/>
<path d="M162.286 269.066L161.682 316.437L213.877 317.102L214.481 269.732L162.286 269.066Z" fill="#2A4E96"/>
<path d="M164.298 112.472L163.694 159.842L215.889 160.507L216.492 113.137L164.298 112.472Z" fill="#2A4E96"/>
<path d="M339.721 13.9662L339.164 57.6812L392.893 58.3658L393.45 14.6508L339.721 13.9662Z" fill="#2A4E96"/>
<path d="M335.77 323.475L335.213 367.19L388.943 367.875L389.5 324.16L335.77 323.475Z" fill="#2A4E96"/>
<path d="M161.617 321.247L161.06 364.962L213.254 365.627L213.811 321.912L161.617 321.247Z" fill="#2A4E96"/>
<path d="M165.591 11.7397L165.034 55.4546L217.229 56.1196L217.786 12.4047L165.591 11.7397Z" fill="#2A4E96"/>
<path d="M220.657 165.413L220.053 212.783L273.783 213.467L274.387 166.097L220.657 165.413Z" fill="#2A4E96"/>
<path d="M220.01 217.595L219.406 264.965L273.136 265.65L273.74 218.28L220.01 217.595Z" fill="#2A4E96"/>
<path d="M281.146 13.2186L280.589 56.9336L334.319 57.6182L334.876 13.9033L281.146 13.2186Z" fill="#2A4E96"/>
<path d="M277.221 322.731L276.664 366.446L330.393 367.13L330.95 323.415L277.221 322.731Z" fill="#2A4E96"/>
<path d="M280.548 61.7476L279.945 109.118L333.674 109.802L334.278 62.4322L280.548 61.7476Z" fill="#2A4E96"/>
<path d="M279.877 113.954L279.273 161.324L333.003 162.009L333.607 114.639L279.877 113.954Z" fill="#2A4E96"/>
<path d="M219.315 269.778L218.711 317.148L272.441 317.833L273.045 270.463L219.315 269.778Z" fill="#2A4E96"/>
<path d="M218.67 321.983L218.113 365.698L271.843 366.383L272.4 322.668L218.67 321.983Z" fill="#2A4E96"/>
<path d="M222.62 12.475L222.063 56.1899L275.793 56.8745L276.35 13.1596L222.62 12.475Z" fill="#2A4E96"/>
<path d="M279.231 166.161L278.627 213.531L332.357 214.215L332.961 166.845L279.231 166.161Z" fill="#2A4E96"/>
<path d="M221.973 61.0011L221.37 108.371L275.1 109.056L275.703 61.6857L221.973 61.0011Z" fill="#2A4E96"/>
<path d="M221.327 113.184L220.724 160.554L274.454 161.238L275.057 113.868L221.327 113.184Z" fill="#2A4E96"/>
<g opacity="0.1">
<path d="M314.649 8.81914L159.1 141.217L160.83 6.86963L314.649 8.81914Z" fill="white"/>
<path d="M382.98 9.69636L158.344 200.898L158.758 168.194L345.549 9.20898L382.98 9.69636Z" fill="white"/>
<path d="M398.844 41.0601L398.625 57.4606L157.54 262.626L157.759 246.249L398.844 41.0601Z" fill="white"/>
</g>
<g opacity="0.1">
<path d="M394.97 345.02L394.605 372.777L362.852 372.362L394.97 345.02Z" fill="white"/>
<path d="M395.579 297.89L395.238 323.722L338.482 372.07L308.873 371.68L395.579 297.89Z" fill="white"/>
<path d="M396.188 249.199L396.018 262.09L267.884 371.167L253.116 370.972L396.188 249.199Z" fill="white"/>
</g>
<path d="M146.037 120.554C146.037 120.554 116.624 133.592 107.047 121.919C97.4695 110.246 149.571 48.6404 149.571 48.6404C149.571 48.6404 150.424 30.534 153.007 27.3416C155.465 24.8406 158.302 22.7434 161.414 21.1274L163.34 56.731L157.93 57.2427C157.93 57.2427 130.051 94.7714 130.563 98.0125C131.075 101.254 146.013 94.4546 146.013 94.4546L146.037 120.554Z" fill="#FFB27D"/>
<path d="M214.247 214.083C214.247 214.083 238.616 162.103 236.813 149.821C235.01 137.539 194.021 190.835 194.021 190.835L190.731 209.087L214.247 214.083Z" fill="#ACC7FD"/>
<path opacity="0.4" d="M214.247 214.083C214.247 214.083 238.616 162.103 236.813 149.821C235.01 137.539 194.021 190.835 194.021 190.835L190.731 209.087L214.247 214.083Z" fill="white"/>
<path opacity="0.2" d="M212.59 212.719C212.59 212.719 236.96 160.739 235.132 148.433C233.304 136.126 192.339 189.446 192.339 189.446L189.05 207.699L212.59 212.719Z" fill="black"/>
<path d="M253.896 607.916L273.05 609.914L274.001 598.826L276.632 568.657L257.478 566.61L254.578 599.971L253.896 607.916Z" fill="#E4897B"/>
<path d="M87.6003 605.478H106.145L107.047 601.311L107.169 600.775L112.944 573.993L113.066 573.457L115.284 563.197H96.7144L87.6003 605.478Z" fill="#E4897B"/>
<path opacity="0.2" d="M257.479 566.61L254.579 599.971L274.001 598.826L276.633 568.657L257.479 566.61Z" fill="black"/>
<path opacity="0.2" d="M88.1362 603.138H88.1606L107.144 600.774H107.169L112.798 574.943H112.774L93.9117 576.429L88.3068 602.334L88.1362 603.138Z" fill="black"/>
<path d="M108.704 604.357H86.1623C85.7937 604.361 85.4376 604.491 85.1537 604.726C84.8698 604.962 84.6752 605.287 84.6026 605.649L80.9229 622.146C80.7778 622.86 80.9187 623.602 81.3152 624.213C81.7117 624.823 82.3322 625.254 83.043 625.412H83.6522C90.963 625.29 96.2512 624.851 105.414 624.851C111.043 624.851 128.053 625.436 135.851 625.436C143.649 625.436 144.649 617.736 141.456 617.029C127.151 613.91 116.405 609.596 111.823 605.502C110.967 604.737 109.852 604.328 108.704 604.357V604.357Z" fill="#2A4E96"/>
<path d="M275.073 603.772H252.531C252.163 603.773 251.806 603.9 251.519 604.13C251.231 604.36 251.03 604.68 250.947 605.039L247.292 621.561C247.217 621.913 247.213 622.277 247.279 622.631C247.345 622.985 247.481 623.322 247.678 623.623C247.875 623.924 248.129 624.184 248.427 624.386C248.725 624.588 249.06 624.73 249.412 624.802C249.614 624.828 249.819 624.828 250.021 624.802C257.332 624.681 262.62 624.242 271.759 624.242C277.413 624.242 294.422 624.827 302.196 624.827C309.97 624.827 311.018 617.126 307.825 616.419C293.521 613.3 282.774 608.987 278.192 604.893C277.333 604.137 276.217 603.736 275.073 603.772V603.772Z" fill="#2A4E96"/>
<path d="M278.387 591.321L250.996 592.198C260.963 409.184 265.618 399.851 176.767 313.413C174.696 339.561 172.356 366.685 170.066 389.299C168.628 403.287 168.214 415.496 165.874 424.464C150.059 485.07 112.018 592.368 112.018 592.368L85.2119 593.562C85.2119 593.562 118.647 446.518 122.083 398.608C126.591 335.735 87.5026 263.31 125.519 195.247L214.199 212.5L213.565 234.432C298.297 358.155 313.796 384.913 278.387 591.321Z" fill="#F99746"/>
<path opacity="0.4" d="M278.66 592.307L251.269 593.185C261.236 410.171 265.891 400.838 177.04 314.4C174.969 340.548 172.63 367.671 170.339 390.286C168.901 404.274 168.487 416.483 166.147 425.451C150.332 486.057 112.291 593.355 112.291 593.355L85.4851 594.549C85.4851 594.549 118.92 447.505 122.356 399.595C126.864 336.722 87.7758 264.297 125.792 196.233L214.472 213.487L213.838 235.419C298.57 359.142 314.069 385.9 278.66 592.307Z" fill="#FFE7AD"/>
<path d="M260.963 146.849C260.963 146.849 311.408 155.964 321.033 154.404C330.659 152.844 381.591 112.611 381.591 112.611C381.591 112.611 398.406 111.685 399.283 105.982C400.16 100.28 402.451 90.069 397.626 90.4102C392.801 90.7514 378.716 97.0142 378.716 97.0142L376.888 101.693C376.888 101.693 320.838 135.591 318.621 136.322C316.403 137.053 268.128 123.845 268.128 123.845L260.963 146.849Z" fill="#FFB27D"/>
<path d="M169.651 80.6855C153.08 80.6855 138.824 91.3836 123.666 98.9869L134.584 126.183L169.383 123.99L169.651 80.6855Z" fill="#ACC7FD"/>
<path d="M253.14 76.6887C252.612 77.3186 252.05 77.9205 251.459 78.4921C248.12 81.7535 243.872 83.9283 239.274 84.7306C238.106 84.9286 236.925 85.0427 235.741 85.0718C231.166 85.2387 226.664 83.8982 222.926 81.2564C219.188 78.6146 216.421 74.8179 215.051 70.4502C211.25 59.1916 215.734 50.5405 222.167 35.2853C223.605 31.6963 225.938 28.5358 228.945 26.1057C231.952 23.6755 235.532 22.0568 239.343 21.4041C243.154 20.7515 247.068 21.0867 250.712 22.3778C254.356 23.6689 257.609 25.8727 260.159 28.7787C271.71 41.865 262.888 64.9184 253.14 76.6887Z" fill="#FFB27D"/>
<path opacity="0.2" d="M239.202 84.7318C238.033 84.9298 236.852 85.0439 235.668 85.073C232.532 85.1696 229.413 84.5632 226.542 83.2982C223.67 82.0332 221.118 80.1416 219.073 77.7622C220.612 76.3061 222.332 75.0531 224.19 74.0337C230.12 76.0791 235.333 79.7941 239.202 84.7318V84.7318Z" fill="black"/>
<path d="M268.517 36.6751C267.64 36.6751 260.866 42.4506 260.427 44.5951C258.279 51.6564 253.462 57.6016 246.999 61.1662C241.248 63.7737 232.378 76.1533 232.378 76.1533C232.378 76.1533 222.825 68.1358 212.882 67.9652C209.421 60.6482 207.612 52.6595 207.583 44.5653C207.553 36.4711 209.304 28.4695 212.712 21.1274L268.517 36.6751Z" fill="#2A4E96"/>
<path opacity="0.2" d="M268.517 36.6751C267.64 36.6751 260.866 42.4506 260.427 44.5951C258.279 51.6564 253.462 57.6016 246.999 61.1662C241.248 63.7737 232.378 76.1533 232.378 76.1533C232.378 76.1533 222.825 68.1358 212.882 67.9652C209.421 60.6482 207.612 52.6595 207.583 44.5653C207.553 36.4711 209.304 28.4695 212.712 21.1274L268.517 36.6751Z" fill="white"/>
<path d="M242.735 56.1699C242.34 57.702 242.288 59.3023 242.583 60.8567C242.878 62.4112 243.512 63.8813 244.441 65.1622C246.878 67.9159 250.923 64.6504 252.654 59.9715C254.189 55.8288 254.871 49.249 251.265 48.4205C247.658 47.5919 243.637 51.6616 242.735 56.1699Z" fill="#FFB27D"/>
<path d="M256.406 41.8408C256.406 41.8408 258.185 81.2216 227.894 81.5628V83.1224C227.894 83.1224 255.09 85.5593 261.426 44.8382L256.406 41.8408Z" fill="#2A4E96"/>
<path d="M209.032 31.9468C209.789 33.4724 210.843 34.8316 212.132 35.9448C213.421 37.0579 214.919 37.9025 216.538 38.429C222.387 40.5979 250.241 33.3602 250.241 33.3602L255.237 37.0887C255.237 37.0887 227.212 46.3247 216.538 44.7894C205.864 43.2541 207.57 35.3341 207.57 35.3341L209.032 31.9468Z" fill="white"/>
<path d="M194.021 85.0722C198.066 95.3073 227.894 98.0123 227.894 98.0123C227.554 95.3996 227.554 92.7538 227.894 90.141C228.368 87.3501 229.395 84.6821 230.916 82.2941C231.717 80.9423 232.587 79.6327 233.523 78.3707L214.028 68.0381C209.544 76.1531 204.914 80.6858 194.021 85.0722Z" fill="#FD9852"/>
<path d="M274.513 48.2987C274.921 49.2022 275.044 50.2088 274.866 51.1842C274.687 52.1595 274.215 53.0572 273.513 53.7574C271.076 55.9507 265.618 53.7574 265.618 53.7574C265.618 53.7574 247 24.1975 209.812 25.1723C209.812 25.1723 207.083 21.3463 207.643 18.7632C208.204 16.18 213.565 14.4011 213.565 14.4011C221.493 6.79687 231.597 1.85588 242.467 0.26688C259.988 -1.97509 278.168 16.6674 279.021 21.2488C279.874 25.8303 275.56 31.5083 275.56 31.5083C276.369 37.1177 276.012 42.8334 274.513 48.2987V48.2987Z" fill="#ACC7FD"/>
<path opacity="0.2" d="M274.512 48.2973C256.747 18.0307 213.589 14.3997 213.589 14.3997C216.524 11.5692 219.798 9.11355 223.337 7.08887C223.678 10.8417 227.991 12.377 231.476 12.7182C236.35 13.2056 256.187 7.72247 265.739 14.4728C268.525 16.4281 270.851 18.9672 272.556 21.9133C274.26 24.8593 275.302 28.1415 275.609 31.5313C276.398 37.136 276.025 42.8431 274.512 48.2973V48.2973Z" fill="black"/>
<path opacity="0.2" d="M176.767 313.291C174.696 339.44 172.357 366.636 170.066 389.226C166.727 356.596 162.609 333.323 162.609 333.323C162.609 333.323 158.783 330.179 148.207 313.291C137.63 296.404 148.207 264.918 148.207 264.918C147.865 294.186 176.767 313.291 176.767 313.291Z" fill="black"/>
<path d="M281.433 588.371L280.117 596.047H247.95V588.956L281.433 588.371Z" fill="#ACC7FD"/>
<path d="M115.186 591.319L112.091 598.411H82.8235L83.3596 591.319H115.186Z" fill="#ACC7FD"/>
<path d="M257.746 109.369C273.391 118.751 285.771 127.719 285.771 127.719L274.488 151.771L229.429 143.9C232.71 136.138 236.648 128.67 241.2 121.578C249.046 109.271 257.746 109.369 257.746 109.369Z" fill="#ACC7FD"/>
<path opacity="0.4" d="M281.433 588.371L280.117 596.047H247.95V588.956L281.433 588.371Z" fill="white"/>
<path opacity="0.4" d="M115.186 591.319L112.091 598.411H82.8235L83.3596 591.319H115.186Z" fill="white"/>
<path d="M122.473 197.754L153.08 203.554L151.204 211.182L119.11 204.797L122.473 197.754Z" fill="#F99746"/>
<path d="M158.149 204.506L195.8 211.671L195.117 219.908L156.492 212.231L158.149 204.506Z" fill="#F99746"/>
<path d="M216.026 215.498L215.929 224.076L200.479 220.981L200.942 212.622L216.026 215.498Z" fill="#F99746"/>
<path d="M125.616 195.22C125.616 195.22 145.331 101.91 165.46 81.7083C165.46 81.7083 216.635 72.4236 257.746 109.343C257.746 109.343 222.898 169.121 214.296 212.474L125.616 195.22Z" fill="#ACC7FD"/>
<path d="M158.149 206.699H157.735L152.861 205.602C152.556 205.527 152.276 205.376 152.046 205.163C151.816 204.95 151.643 204.681 151.545 204.383C151.445 204.085 151.427 203.765 151.491 203.457C151.555 203.149 151.7 202.863 151.911 202.629L155.42 198.584C155.636 198.335 155.916 198.149 156.229 198.046C156.542 197.943 156.877 197.927 157.199 197.999C157.521 198.067 157.817 198.224 158.054 198.452C158.291 198.681 158.459 198.971 158.539 199.29L159.953 204.457C160.018 204.725 160.023 205.006 159.966 205.277C159.909 205.547 159.792 205.802 159.624 206.022C159.455 206.242 159.24 206.421 158.993 206.546C158.746 206.672 158.475 206.741 158.198 206.747L158.149 206.699ZM156.736 199.12C156.57 199.125 156.412 199.195 156.297 199.315L152.764 203.384C152.71 203.472 152.681 203.574 152.681 203.677C152.681 203.78 152.71 203.881 152.764 203.969C152.789 204.067 152.841 204.155 152.915 204.224C152.988 204.293 153.079 204.34 153.178 204.359V204.359L158.052 205.456C158.151 205.492 158.259 205.495 158.36 205.464C158.462 205.433 158.55 205.371 158.612 205.285C158.688 205.216 158.742 205.126 158.768 205.026C158.793 204.927 158.79 204.822 158.758 204.725L157.369 199.558C157.343 199.455 157.288 199.361 157.211 199.287C157.133 199.214 157.036 199.164 156.931 199.144L156.736 199.12Z" fill="white"/>
<path d="M189.147 117.994C188.896 117.995 188.647 117.945 188.416 117.848L183.786 115.801C183.502 115.672 183.256 115.472 183.072 115.22C182.888 114.968 182.773 114.673 182.738 114.363C182.689 114.051 182.727 113.731 182.848 113.439C182.968 113.147 183.166 112.894 183.42 112.706L187.685 109.416C187.942 109.209 188.252 109.079 188.579 109.04C188.907 109.001 189.239 109.056 189.537 109.197C189.839 109.326 190.099 109.54 190.284 109.812C190.47 110.084 190.574 110.403 190.585 110.732L190.95 116.069C190.974 116.382 190.914 116.696 190.777 116.978C190.64 117.261 190.431 117.502 190.17 117.677C189.872 117.89 189.513 118.001 189.147 117.994V117.994ZM188.781 110.245C188.649 110.241 188.519 110.284 188.416 110.366L184.176 113.656C184.094 113.724 184.03 113.811 183.987 113.908C183.945 114.005 183.926 114.111 183.932 114.217C183.949 114.319 183.991 114.415 184.055 114.496C184.119 114.577 184.202 114.64 184.297 114.68L188.903 116.727C188.993 116.774 189.094 116.798 189.196 116.798C189.297 116.798 189.398 116.774 189.488 116.727C189.572 116.667 189.639 116.586 189.682 116.492C189.725 116.398 189.742 116.294 189.732 116.191L189.391 110.854C189.379 110.744 189.34 110.639 189.276 110.549C189.212 110.46 189.125 110.388 189.025 110.342L188.781 110.245Z" fill="white"/>
<path d="M184.493 114.048C184.493 114.048 170.139 140.732 154.933 195.49L160.781 197.22C160.781 197.22 176.158 140.196 189.05 116.168L184.493 114.048Z" fill="#F99746"/>
<path d="M156.492 200.874C156.334 200.844 156.194 200.753 156.103 200.621C156.012 200.488 155.976 200.325 156.005 200.167L156.736 196.731C156.771 196.571 156.867 196.431 157.003 196.34C157.139 196.249 157.306 196.214 157.467 196.243C157.545 196.261 157.62 196.293 157.686 196.34C157.752 196.386 157.808 196.445 157.851 196.512C157.894 196.58 157.923 196.656 157.937 196.736C157.95 196.815 157.948 196.896 157.93 196.975L157.199 200.411C157.164 200.564 157.071 200.698 156.939 200.784C156.807 200.871 156.647 200.903 156.492 200.874Z" fill="white"/>
<path d="M161.049 197.828L154.884 196.098C154.728 196.052 154.595 195.948 154.513 195.808C154.432 195.667 154.407 195.501 154.445 195.342C154.467 195.266 154.505 195.194 154.555 195.132C154.605 195.069 154.667 195.017 154.737 194.979C154.807 194.94 154.884 194.916 154.964 194.907C155.043 194.899 155.124 194.906 155.201 194.928L161.39 196.658C161.531 196.699 161.652 196.79 161.732 196.913C161.811 197.036 161.844 197.184 161.823 197.329C161.802 197.475 161.73 197.607 161.619 197.704C161.508 197.8 161.366 197.853 161.22 197.853L161.049 197.828Z" fill="white"/>
<path d="M189.05 111.075C201.948 101.432 216.792 94.713 232.549 91.3843L239.202 94.8935C239.202 94.8935 221.558 97.5985 189.439 115.802L189.05 111.075Z" fill="#F99746"/>
<path d="M184.492 113.511L188.123 111.074C188.123 111.074 188.513 86.3152 190.95 80.6128L186.832 80.759C184.852 91.5574 184.067 102.541 184.492 113.511V113.511Z" fill="#F99746"/>
<path d="M373.452 102.008L380.422 116.044L382.347 114.314C382.347 114.314 399.6 113.559 400.697 111.536C401.793 109.513 405.985 89.2137 403.134 88.0927C400.282 86.9718 378.594 94.5019 377.765 94.6968C376.937 94.8918 375.913 100.521 375.913 100.521L373.452 102.008Z" fill="#ACC7FD"/>
<path d="M147.061 48.6412L157.15 60.5333L158.661 58.0964L163.535 56.6343L161.61 21.0308C161.61 21.0308 152.276 26.6113 151.862 27.2449C151.448 27.8785 149.035 48.2025 149.035 48.2025L147.061 48.6412Z" fill="#ACC7FD"/>
</svg>
