<svg width="131" height="127" viewBox="0 0 131 127" fill="none" xmlns="http://www.w3.org/2000/svg">
<path d="M98.4846 0.000979832C90.0618 0.000979832 82.4289 1.12264 76.7469 3.0167C73.9065 3.96312 71.5538 5.08812 69.7792 6.48669C68.0136 7.87732 66.7401 9.69641 66.7266 11.8216H66.6987V51.7901H70.4656V44.2376C72.1687 45.4507 74.1856 46.5199 76.7467 47.3738C82.4287 49.2678 90.0616 50.3896 98.4844 50.3896C106.907 50.3896 114.531 49.2679 120.213 47.3738C122.767 46.5223 124.785 45.4564 126.486 44.2478V52.0593C126.486 52.5492 126.267 53.1218 125.511 53.8774C124.756 54.6329 123.487 55.4722 121.809 56.2334C118.454 57.7568 113.491 59.0068 107.689 59.6474L108.097 63.3951C114.19 62.7221 119.459 61.4409 123.368 59.6651C124.636 59.0892 125.515 58.3459 126.485 57.6428V65.5848C126.485 66.0725 126.27 66.6417 125.52 67.3939C124.77 68.1462 123.512 68.981 121.846 69.741C118.512 71.2611 113.573 72.5089 107.799 73.155L108.217 76.9027C114.279 76.2242 119.516 74.9462 123.404 73.1727C124.654 72.6024 125.523 71.8636 126.484 71.1683V79.1014C126.484 79.5858 126.266 80.1561 125.529 80.9016C124.792 81.6472 123.561 82.4742 121.92 83.2309C118.636 84.7432 113.771 85.9853 108.068 86.6449L108.494 90.3926C114.486 89.6995 119.658 88.4216 123.497 86.6537C124.711 86.0946 125.547 85.3647 126.484 84.6872V92.6292C126.484 93.1203 126.262 93.6984 125.501 94.4573C124.74 95.2162 123.469 96.05 121.781 96.8134C118.405 98.3402 113.409 99.5913 107.577 100.227L107.985 103.975C114.107 103.308 119.401 102.023 123.331 100.245C124.618 99.6636 125.513 98.917 126.495 98.2038V106.146H126.486C126.486 106.627 126.274 107.188 125.549 107.927C124.823 108.666 123.606 109.485 121.986 110.237C118.748 111.742 113.942 112.991 108.301 113.66L108.747 117.408C114.674 116.704 119.788 115.422 123.581 113.66C125.479 112.778 127.05 111.783 128.239 110.571C129.291 109.498 129.857 108.111 130.02 106.656H130.261V11.9959H130.169C130.171 11.9378 130.252 11.9066 130.252 11.8474C130.252 9.70792 128.965 7.88314 127.191 6.48457C125.415 5.08614 123.054 3.96226 120.213 3.01457C114.531 1.1206 106.907 0 98.4842 0L98.4846 0.000979832ZM98.4846 3.76784C106.568 3.76784 113.881 4.8761 119.016 6.58815C121.584 7.44418 123.602 8.46984 124.852 9.45529C126.102 10.4408 126.485 11.2377 126.485 11.8493C126.485 12.4609 126.102 13.2578 124.852 14.2432C123.602 15.2287 121.584 16.2544 119.016 17.1104C113.879 18.8224 106.568 19.9307 98.4846 19.9307C90.4009 19.9307 83.0795 18.8224 77.9432 17.1104C75.3751 16.2532 73.3572 15.2276 72.1072 14.2421C70.8572 13.2566 70.4744 12.4597 70.4744 11.8481C70.4744 11.2365 70.8572 10.4396 72.1072 9.45415C73.3572 8.46867 75.3752 7.44298 77.9432 6.58701C83.0795 4.87495 90.4009 3.7667 98.4846 3.7667V3.76784ZM70.4658 17.5547C72.1689 18.7679 74.1858 19.8281 76.7469 20.6807C82.4289 22.5747 90.0618 23.6964 98.4846 23.6964C106.907 23.6964 114.531 22.5748 120.213 20.6807C122.772 19.828 124.793 18.7655 126.495 17.5547V25.0144H126.486C126.486 25.626 126.103 26.4229 124.853 27.4084C123.603 28.3939 121.585 29.4196 119.017 30.2755C113.881 31.9876 106.569 33.0958 98.4858 33.0958C90.4021 33.0958 83.0806 31.9876 77.9443 30.2755C75.3751 29.4184 73.3572 28.3927 72.1072 27.4072C70.8572 26.4218 70.4744 25.6249 70.4744 25.0133H70.4655L70.4658 17.5547ZM70.4658 30.7198C72.1689 31.933 74.1858 32.9933 76.7469 33.8458C82.4289 35.7398 90.0618 36.8616 98.4846 36.8616C106.907 36.8616 114.531 35.7399 120.213 33.8458C122.772 32.9932 124.793 31.9307 126.495 30.7198V38.5413H126.486C126.486 39.1529 126.103 39.9497 124.853 40.9352C123.603 41.9207 121.585 42.9363 119.017 43.7924C113.881 45.5044 106.569 46.6127 98.4858 46.6127C90.4021 46.6127 83.0806 45.5044 77.9443 43.7924C75.3751 42.9363 73.3572 41.9196 72.1072 40.9341C70.8572 39.9486 70.4744 39.1517 70.4744 38.5401H70.4655L70.4658 30.7198ZM31.7858 16.413C28.0558 16.413 24.4812 16.634 21.1629 17.0436C15.3281 17.7656 10.2981 19.0458 6.5692 20.8013C4.70426 21.6796 3.15406 22.6685 1.98549 23.8727C0.823658 25.0691 0.0290018 26.5792 0.0189732 28.2333H0V41.751H0.00892857V54.443H0V108.023H0.195313C0.339287 109.996 1.40403 111.737 3.07131 113.052C4.84585 114.451 7.2076 115.584 10.0479 116.531C15.7299 118.425 23.3536 119.547 31.7767 119.547C38.8182 119.547 45.3113 118.753 50.5647 117.394L49.6183 113.748C44.7546 115.005 38.5346 115.77 31.7769 115.77C23.6932 115.77 16.3806 114.662 11.2457 112.95C8.67766 112.093 6.65974 111.077 5.40974 110.092C4.15974 109.107 3.77694 108.31 3.77694 107.698H3.76801V99.877C5.47001 101.089 7.49116 102.15 10.0492 103.003C15.7312 104.897 23.3549 106.019 31.778 106.019C37.7792 106.019 43.3886 105.451 48.1632 104.442L47.3841 100.749C42.9121 101.694 37.5381 102.252 31.7793 102.252C23.6956 102.252 16.383 101.144 11.2481 99.4316C8.67781 98.5755 6.65984 97.5588 5.40984 96.5744C4.15984 95.5889 3.77704 94.782 3.77704 94.1715H3.76811L3.76699 86.3501C5.46899 87.5621 7.49014 88.6336 10.0481 89.4864C15.7301 91.3803 23.3539 92.5021 31.777 92.5021C37.6241 92.5021 43.0973 91.9507 47.7904 90.9898L47.0293 87.2966C42.6275 88.1984 37.3875 88.7252 31.777 88.7252C23.6933 88.7252 16.3807 87.617 11.2458 85.9049C8.67774 85.0489 6.65983 84.0321 5.40983 83.0466C4.15983 82.0622 3.77703 81.2654 3.77703 80.6538H3.7681V73.3335C5.47121 74.5478 7.49695 75.6158 10.0584 76.4698C15.7404 78.3637 23.3641 79.4855 31.7872 79.4855C38.1221 79.4855 44.0092 78.8482 48.9512 77.7321L48.1254 74.049C43.5116 75.0914 37.8665 75.7097 31.7871 75.7097C23.7034 75.7097 16.3819 74.6014 11.2456 72.8894C8.67755 72.0322 6.65964 71.0155 5.40964 70.03C4.15964 69.0456 3.78575 68.2487 3.78575 67.6371H3.77683V60.3257C5.47883 61.5377 7.49997 62.5991 10.058 63.4517C15.74 65.3456 23.3728 66.4674 31.7957 66.4674C38.366 66.4674 44.4543 65.7788 49.5065 64.5834L48.6349 60.9106C43.9295 62.0233 38.1015 62.7008 31.7955 62.7008C23.7117 62.7008 16.3903 61.5824 11.254 59.8715C8.68594 59.0155 6.66803 57.9988 5.41803 57.0132C4.16803 56.0289 3.78523 55.232 3.78523 54.6204H3.7763V47.1327C5.47718 48.3414 7.49515 49.4083 10.0486 50.2587C15.7306 52.1526 23.3634 53.2744 31.7863 53.2744C40.2092 53.2744 47.8332 52.1527 53.5152 50.2587C56.0609 49.4104 58.0697 48.3457 59.7686 47.1415L59.7318 53.4507L63.5075 53.4696L63.5722 41.6125H63.5633L63.5622 28.4105H63.4695C63.4718 28.3513 63.5532 28.3212 63.5532 28.2621C63.5532 26.1225 62.2664 24.2978 60.4918 22.8992C58.7161 21.5008 56.3555 20.3758 53.5141 19.4292C47.8321 17.5352 40.2095 16.4135 31.7852 16.4135L31.7858 16.413ZM31.7858 20.1798C39.8695 20.1798 47.1821 21.2881 52.3169 23.0002C54.885 23.8562 56.9029 24.8729 58.1529 25.8573C59.4029 26.8428 59.7857 27.6486 59.7857 28.2602C59.7857 28.8718 59.4029 29.6687 58.1529 30.6542C56.9029 31.6397 54.8849 32.6553 52.3169 33.5113C47.1806 35.2234 39.8695 36.3316 31.7858 36.3316C23.7021 36.3316 16.3806 35.2234 11.2443 33.5113C8.67737 32.6564 6.65949 31.6397 5.40949 30.6542C4.15949 29.6698 3.77669 28.8729 3.77669 28.2613C3.77669 27.7848 3.98763 27.2278 4.6952 26.499C5.4028 25.7691 6.58695 24.9633 8.17406 24.2156C11.3469 22.7222 16.0692 21.4689 21.6172 20.7836C24.7735 20.3929 28.2063 20.1798 31.7858 20.1798V20.1798ZM3.76692 33.9578C5.46892 35.1699 7.49006 36.2413 10.0481 37.0941C15.7301 38.9881 23.3629 40.1098 31.7858 40.1098C40.2086 40.1098 47.8326 38.9882 53.5146 37.0941C56.0682 36.2426 58.0861 35.1767 59.7869 33.9681V41.4278C59.7869 42.0394 59.4041 42.8363 58.1541 43.8218C56.9041 44.8073 54.8861 45.8229 52.3181 46.679C47.1818 48.391 39.8707 49.4993 31.787 49.4993C23.7033 49.4993 16.3818 48.391 11.2455 46.679C8.67746 45.8218 6.65955 44.8051 5.40955 43.8195C4.15955 42.8351 3.77675 42.0383 3.77675 41.4267H3.76782L3.76692 33.9578ZM78.2412 50.4256C69.8183 50.4256 62.1943 51.5472 56.5123 53.4413C53.6719 54.3877 51.3103 55.5127 49.5358 56.9113C47.7701 58.3019 46.5066 60.121 46.4923 62.2461H46.4644V75.7638H46.4734V88.4558H46.4644V114.99H46.6598C46.8037 116.964 47.8685 118.705 49.5358 120.02C51.3103 121.418 53.672 122.552 56.5123 123.498C62.1943 125.392 69.818 126.514 78.2412 126.514C86.664 126.514 94.288 125.392 99.97 123.498C102.81 122.552 105.172 121.418 106.947 120.02C108.555 118.752 109.517 117.052 109.73 115.167H110.027V89.1424H110.036V75.6156H110.027V62.4224H109.934C109.937 62.3633 110.018 62.3331 110.018 62.274C110.018 60.1345 108.722 58.3097 106.947 56.9111C105.172 55.5127 102.819 54.3877 99.9789 53.4411C94.2969 51.5471 86.6641 50.4254 78.2412 50.4254L78.2412 50.4256ZM78.2412 54.1924C86.3249 54.1924 93.6463 55.3007 98.7826 57.0127C101.351 57.8688 103.369 58.8855 104.619 59.8699C105.869 60.8554 106.251 61.6612 106.251 62.2728C106.251 62.8844 105.869 63.6813 104.619 64.6668C103.369 65.6522 101.351 66.6679 98.7826 67.5239C93.6463 69.236 86.3249 70.3442 78.2412 70.3442C70.1575 70.3442 62.8449 69.236 57.7101 67.5239C55.142 66.6679 53.1241 65.6511 51.8741 64.6668C50.6241 63.6813 50.2413 62.8844 50.2413 62.2728C50.2413 61.6612 50.6241 60.8554 51.8741 59.8699C53.1241 58.8844 55.1421 57.8688 57.7101 57.0127C62.8463 55.3007 70.1575 54.1924 78.2412 54.1924V54.1924ZM50.2312 67.9704C51.9332 69.1825 53.9543 70.2539 56.5123 71.1067C62.1943 73.0007 69.8181 74.1224 78.2412 74.1224C86.6641 74.1224 94.2969 73.0008 99.9789 71.1067C102.537 70.254 104.548 69.1826 106.251 67.9704V75.4393C106.251 76.0509 105.868 76.8478 104.618 77.8332C103.368 78.8187 101.35 79.8344 98.7824 80.6904C93.6461 82.4024 86.3247 83.5107 78.241 83.5107C70.1573 83.5107 62.8447 82.4024 57.7098 80.6904C55.1417 79.8344 53.1238 78.8176 51.8738 77.8332C50.6238 76.8478 50.241 76.0509 50.241 75.4393H50.2321L50.2312 67.9704ZM106.26 81.1356V88.6321C106.26 89.2437 105.877 90.0406 104.627 91.0261C103.377 92.0116 101.359 93.0272 98.791 93.8832C93.6547 95.5953 86.3333 96.7125 78.2496 96.7125C70.1658 96.7125 62.8533 95.5942 57.7184 93.8832C55.1503 93.0272 53.1324 92.0105 51.8824 91.0261C50.6324 90.0406 50.2496 89.2437 50.2496 88.6321H50.2407V81.1444C51.9416 82.3531 53.9595 83.4201 56.513 84.2704C62.195 86.1644 69.8187 87.2861 78.2418 87.2861C86.665 87.2861 94.2975 86.1645 99.9795 84.2704C102.541 83.4166 104.558 82.3485 106.261 81.1341L106.26 81.1356ZM50.2398 94.3287C51.9418 95.5408 53.9629 96.6122 56.5209 97.465C62.2029 99.359 69.8266 100.481 78.2498 100.481C86.6729 100.481 94.3055 99.359 99.9875 97.465C102.546 96.6123 104.557 95.5409 106.26 94.3287V101.649H106.251C106.251 102.261 105.868 103.057 104.618 104.043C103.368 105.028 101.359 106.044 98.7909 106.9C93.6546 108.612 86.3332 109.72 78.2495 109.72C70.1658 109.72 62.8443 108.612 57.708 106.9C55.14 106.044 53.122 105.027 51.872 104.043C50.622 103.057 50.2482 102.261 50.2482 101.649H50.2392L50.2398 94.3287ZM50.2308 107.346C51.934 108.56 53.9597 109.628 56.5211 110.482C62.2031 112.376 69.8269 113.498 78.25 113.498C86.6731 113.498 94.2969 112.376 99.9789 110.482C102.532 109.63 104.55 108.564 106.251 107.356V114.667C106.251 115.279 105.868 116.076 104.618 117.061C103.368 118.047 101.35 119.062 98.7823 119.918C93.646 121.63 86.3246 122.739 78.2409 122.739C70.1572 122.739 62.8446 121.63 57.7098 119.918C55.1417 119.062 53.1238 118.046 51.8738 117.061C50.6238 116.076 50.241 115.279 50.241 114.667H50.232L50.2308 107.346Z" fill="black" fill-opacity="0.54"/>
</svg>
